<?xml version="1.0" encoding="UTF-8" standalone="no"?>
<!-- Created with Inkscape (http://www.inkscape.org/) -->

<svg
   xmlns:dc="http://purl.org/dc/elements/1.1/"
   xmlns:cc="http://creativecommons.org/ns#"
   xmlns:rdf="http://www.w3.org/1999/02/22-rdf-syntax-ns#"
   xmlns:svg="http://www.w3.org/2000/svg"
   xmlns="http://www.w3.org/2000/svg"
   xmlns:xlink="http://www.w3.org/1999/xlink"
   version="1.2"
   width="744.09448"
   height="1052.3622"
   id="svg2">
  <defs
     id="defs4">
    <radialGradient
       cx="109.89989"
       cy="158.61389"
       r="455.8476"
       fx="109.89989"
       fy="158.61389"
       id="radialGradient1096"
       xlink:href="#linearGradient1085"
       gradientUnits="userSpaceOnUse"
       gradientTransform="scale(1.222775,0.817812)" />
    <radialGradient
       cx="-0.41929287"
       cy="0.96238458"
       r="4.1027188"
       fx="-0.41929287"
       fy="0.96238458"
       id="radialGradient1095"
       xlink:href="#linearGradient1085"
       gradientTransform="scale(0.751916,1.329935)" />
    <radialGradient
       cx="-0.42395663"
       cy="-1.7813325"
       r="4.1027193"
       fx="-0.42395663"
       fy="-1.7813325"
       id="radialGradient1094"
       xlink:href="#linearGradient1085"
       gradientTransform="scale(0.751916,1.329935)" />
    <radialGradient
       cx="-2.8758476"
       cy="-0.63852179"
       r="4.1027193"
       fx="-2.8758476"
       fy="-0.63852179"
       id="radialGradient1093"
       xlink:href="#linearGradient1085" />
    <radialGradient
       cx="0.77746075"
       cy="-0.62963188"
       r="4.1027188"
       fx="0.77746075"
       fy="-0.62963188"
       id="radialGradient1092"
       xlink:href="#linearGradient1085" />
    <radialGradient
       cx="-0.42194343"
       cy="0.2561444"
       r="4.1027193"
       fx="-0.42194343"
       fy="0.2561444"
       id="radialGradient1091"
       xlink:href="#linearGradient1085"
       gradientTransform="scale(0.751916,1.329935)" />
    <radialGradient
       cx="-0.42395663"
       cy="-2.4909019"
       r="4.1027193"
       fx="-0.42395663"
       fy="-2.4909019"
       id="radialGradient1090"
       xlink:href="#linearGradient1085"
       gradientTransform="scale(0.751916,1.329935)" />
    <radialGradient
       cx="-1.936861"
       cy="-0.63499105"
       r="4.1027193"
       fx="-1.936861"
       fy="-0.63499105"
       id="radialGradient1089"
       xlink:href="#linearGradient1085" />
    <radialGradient
       cx="1.7164468"
       cy="-0.64022434"
       r="4.1027193"
       fx="1.7164468"
       fy="-0.64022434"
       id="radialGradient1088"
       xlink:href="#linearGradient1085" />
    <linearGradient
       id="linearGradient1085">
      <stop
         id="stop1086"
         style="stop-color:#006600;stop-opacity:1"
         offset="0" />
      <stop
         id="stop1087"
         style="stop-color:#00ff00;stop-opacity:1"
         offset="1" />
    </linearGradient>
  </defs>
  <metadata
     id="metadata7">
    <rdf:RDF>
      <cc:Work
         rdf:about="">
        <dc:format>image/svg+xml</dc:format>
        <dc:type
           rdf:resource="http://purl.org/dc/dcmitype/StillImage" />
        <dc:title></dc:title>
      </cc:Work>
    </rdf:RDF>
  </metadata>
  <g
     id="layer1">
    <flowRoot
       id="flowRoot3101"
       xml:space="preserve"
       style="font-size:40px;font-style:normal;font-weight:normal;line-height:125%;letter-spacing:0px;word-spacing:0px;fill:#000000;fill-opacity:1;stroke:none;font-family:Sans"><flowRegion
         id="flowRegion3103"><rect
           width="312.85715"
           height="70.714287"
           x="119.28571"
           y="43.790752"
           id="rect3105" /></flowRegion><flowPara
         id="flowPara3107"
         style="font-size:64px;font-style:normal;font-variant:normal;font-weight:normal;font-stretch:normal;font-family:Serif;-inkscape-font-specification:Serif">WANTED</flowPara></flowRoot>    <g
       id="g4182">
      <flowRoot
         transform="translate(215.21647,156.23933)"
         id="flowRoot3109"
         xml:space="preserve"
         style="font-size:40px;font-style:normal;font-weight:normal;line-height:125%;letter-spacing:0px;word-spacing:0px;fill:#000000;fill-opacity:1;stroke:none;font-family:Sans"><flowRegion
           id="flowRegion3111"><rect
             width="506.42856"
             height="94.285713"
             x="57.142857"
             y="28.790752"
             id="rect3113"
             style="fill:#000000" /></flowRegion><flowPara
           id="flowPara3115"
           style="font-size:72px;font-style:normal;font-variant:normal;font-weight:normal;font-stretch:normal;fill:#000000;font-family:Serif;-inkscape-font-specification:Serif">WANTED</flowPara></flowRoot>      <g
         transform="matrix(0,0.11342822,-0.1125897,0,563.42373,270.87856)"
         id="g5072"
         style="fill:#578cdc;fill-opacity:1;stroke:#ffffff;stroke-opacity:1">
        <path
           d="m 41.609368,801.36496 c 0.55954,15.19944 5.65331,32.24863 16.5625,41.34375 28.18773,13.22926 15.17291,-18.90771 34.6875,-22.6875 19.514592,-3.77979 20.593752,18.90625 20.593752,18.90625 l 0,0 0,97.75 c 0,0 96.93751,-0.125 96.9375,-0.125 0,0 22.68603,-1.07917 18.90625,-20.59375 -3.07108,-15.8556 -24.87804,-10.23276 -25.84375,-22.6875 -0.22286,-2.87417 0.67576,-6.7148 3.15625,-12 9.09512,-10.9092 26.14431,-16.00296 41.34375,-16.5625 5.61095,-0.20656 10.88794,0.2833 15.5,1.25 0.20469,0.0248 0.42017,0.0673 0.625,0.0937 13.11441,1.69391 26.4178,6.7618 34.09375,15.96875 13.22927,28.18774 -18.90772,15.17291 -22.6875,34.6875 -2.75393,14.2182 8.47834,18.61045 14.8125,19.96875 l 102.90625,0 0,-101.59375 c 1.21826,-6.20122 5.48907,-18.24109 20.125,-15.40625 19.5146,3.77979 6.49976,35.88552 34.6875,22.65625 9.20696,-7.67594 14.27484,-20.97934 15.96875,-34.09375 0.0265,-0.20482 0.0689,-0.42031 0.0937,-0.625 0.96671,-4.61204 1.45656,-9.88905 1.25,-15.5 -0.55953,-15.19944 -5.6533,-32.24863 -16.5625,-41.34375 -28.18772,-13.22926 -15.17291,18.90771 -34.6875,22.6875 -19.51457,3.7798 -20.59375,-18.90625 -20.59375,-18.90625 l -0.28125,-97.1875 c 0,0 -98.25001,0.62501 -98.25,0.625 0,0 -22.68605,1.07918 -18.90625,20.59375 3.77979,19.51459 35.91675,6.49978 22.6875,34.6875 -9.09512,10.9092 -26.14431,16.00297 -41.34375,16.5625 -5.61095,0.20656 -10.88795,-0.28329 -15.5,-1.25 -0.20469,-0.0248 -0.42019,-0.0673 -0.625,-0.0937 -13.11441,-1.69391 -26.41782,-6.76179 -34.09375,-15.96875 -2.48049,-5.2852 -3.37911,-9.12583 -3.15625,-12 0.96571,-12.45474 22.74142,-6.83189 25.8125,-22.6875 3.5267,-18.2079 -15.33972,-20.26129 -17.96875,-20.46875 l -98.40625,0 0,102.15625 c -1.48194,6.40559 -5.99188,16.96423 -19.843752,14.28125 -19.51459,-3.77978 -6.49976,-35.88552 -34.6875,-22.65625 -9.20694,7.67595 -14.27483,20.97934 -15.96875,34.09375 -0.02646,0.20483 -0.06894,0.42031 -0.09375,0.625 -0.9667,4.61205 -1.45656,9.88905 -1.25,15.5 z"
           id="path1099"
           style="fill:#578cdc;fill-opacity:1;fill-rule:evenodd;stroke:#ffffff;stroke-width:12.5;stroke-linejoin:round;stroke-opacity:1;stroke-dasharray:none" />
        <path
           d="m 527.75,585.52143 c -15.19944,0.55954 -32.24863,5.65331 -41.34375,16.5625 -13.22926,28.18773 18.90771,15.17291 22.6875,34.6875 3.77979,19.51459 -18.90625,20.59375 -18.90625,20.59375 l 0,0 -97.75,0 c 0,0 0.125,96.93751 0.125,96.9375 0,0 1.07917,22.68603 20.59375,18.90625 15.8556,-3.07108 10.23276,-24.87804 22.6875,-25.84375 2.87417,-0.22286 6.7148,0.67576 12,3.15625 10.9092,9.09512 16.00296,26.14431 16.5625,41.34375 0.20656,5.61095 -0.2833,10.88794 -1.25,15.5 -0.0248,0.20469 -0.0673,0.42017 -0.0937,0.625 -1.69391,13.11441 -6.7618,26.4178 -15.96875,34.09375 -28.18774,13.22927 -15.17291,-18.90772 -34.6875,-22.6875 -14.2182,-2.75393 -18.61045,8.47834 -19.96875,14.8125 l 0,102.90625 101.59375,0 c 6.20122,1.21826 18.24109,5.48907 15.40625,20.125 -3.77979,19.5146 -35.88552,6.49976 -22.65625,34.6875 7.67594,9.20692 20.97934,14.27482 34.09375,15.96872 0.20482,0.027 0.42031,0.069 0.625,0.094 4.61204,0.9667 9.88905,1.4565 15.5,1.25 15.19944,-0.5596 32.24863,-5.6533 41.34375,-16.56252 13.22926,-28.18772 -18.90771,-15.17291 -22.6875,-34.6875 -3.7798,-19.51457 18.90625,-20.59375 18.90625,-20.59375 l 97.1875,-0.28125 c 0,0 -0.62501,-98.25001 -0.625,-98.25 0,0 -1.07918,-22.68605 -20.59375,-18.90625 -19.51459,3.77979 -6.49978,35.91675 -34.6875,22.6875 -10.9092,-9.09512 -16.00297,-26.14431 -16.5625,-41.34375 -0.20656,-5.61095 0.28329,-10.88795 1.25,-15.5 0.0248,-0.20469 0.0673,-0.42019 0.0937,-0.625 1.69391,-13.11441 6.76179,-26.41782 15.96875,-34.09375 5.2852,-2.48049 9.12583,-3.37911 12,-3.15625 12.45474,0.96571 6.83189,22.74142 22.6875,25.8125 18.2079,3.5267 20.26129,-15.33972 20.46875,-17.96875 l 0,-98.40625 -102.15625,0 c -6.40559,-1.48194 -16.96423,-5.99188 -14.28125,-19.84375 3.77978,-19.51459 35.88552,-6.49976 22.65625,-34.6875 -7.67595,-9.20694 -20.97934,-14.27483 -34.09375,-15.96875 -0.20483,-0.0265 -0.42031,-0.0689 -0.625,-0.0937 -4.61205,-0.9667 -9.88905,-1.45656 -15.5,-1.25 z"
           id="path2840"
           style="fill:#578cdc;fill-opacity:1;fill-rule:evenodd;stroke:#ffffff;stroke-width:12.5;stroke-linejoin:round;stroke-opacity:1;stroke-dasharray:none" />
        <path
           d="m 248.75,305.52142 c -15.19944,0.55954 -32.24863,5.65331 -41.34375,16.5625 -13.22926,28.18773 18.90771,15.17291 22.6875,34.6875 3.77979,19.51459 -18.90625,20.59375 -18.90625,20.59375 l 0,0 -97.75,0 c 0,0 0.125,96.93752 0.125,96.93751 0,0 1.07917,22.68603 20.59375,18.90625 15.8556,-3.07108 10.23276,-24.87804 22.6875,-25.84375 2.87417,-0.22286 6.7148,0.67576 12,3.15625 10.9092,9.09512 16.00296,26.14431 16.5625,41.34375 0.20656,5.61095 -0.2833,10.88794 -1.25,15.5 -0.0248,0.20469 -0.0673,0.42017 -0.0937,0.625 -1.69391,13.11441 -6.7618,26.4178 -15.96875,34.09375 -28.18774,13.22927 -15.17291,-18.90772 -34.6875,-22.6875 -14.2182,-2.75393 -18.61045,8.47834 -19.96875,14.8125 l 0,102.90625 101.59375,0 c 6.20122,1.21826 18.24109,5.48907 15.40625,20.125 -3.77979,19.5146 -35.88552,6.49976 -22.65625,34.6875 7.67594,9.20696 20.97934,14.27484 34.09375,15.96875 0.20482,0.0265 0.42031,0.0689 0.625,0.0937 4.61204,0.96671 9.88905,1.45656 15.5,1.25 15.19944,-0.55953 32.24863,-5.6533 41.34375,-16.5625 13.22926,-28.18772 -18.90771,-15.17291 -22.6875,-34.6875 -3.7798,-19.51457 18.90625,-20.59375 18.90625,-20.59375 l 97.1875,-0.28125 c 0,0 -0.62501,-98.25001 -0.625,-98.25 0,0 -1.07918,-22.68605 -20.59375,-18.90625 -19.51459,3.77979 -6.49978,35.91675 -34.6875,22.6875 -10.9092,-9.09512 -16.00297,-26.14431 -16.5625,-41.34375 -0.20656,-5.61095 0.28329,-10.88795 1.25,-15.5 0.0248,-0.20469 0.0673,-0.42019 0.0937,-0.625 1.69391,-13.11441 6.76179,-26.41782 15.96875,-34.09375 5.2852,-2.48049 9.12583,-3.37911 12,-3.15625 12.45474,0.96571 6.83189,22.74142 22.6875,25.8125 18.2079,3.5267 20.26129,-15.33972 20.46875,-17.96875 l 0,-98.40626 -102.15625,0 c -6.40559,-1.48194 -16.96423,-5.99188 -14.28125,-19.84375 3.77978,-19.51459 35.88552,-6.49976 22.65625,-34.6875 -7.67595,-9.20694 -20.97934,-14.27483 -34.09375,-15.96875 -0.20483,-0.0265 -0.42031,-0.0689 -0.625,-0.0937 -4.61205,-0.9667 -9.88905,-1.45656 -15.5,-1.25 z"
           id="path3568"
           style="fill:#578cdc;fill-opacity:1;fill-rule:evenodd;stroke:#ffffff;stroke-width:12.5;stroke-linejoin:round;stroke-opacity:1;stroke-dasharray:none" />
        <path
           d="m 320.29669,520.97437 c 0.55954,15.19944 5.65331,32.24863 16.5625,41.34375 28.18773,13.22926 15.17291,-18.90771 34.6875,-22.6875 19.51459,-3.77979 20.59375,18.90625 20.59375,18.90625 l 0,0 0,97.75 c 0,0 96.93751,-0.125 96.9375,-0.125 0,0 22.68603,-1.07917 18.90625,-20.59375 -3.07108,-15.8556 -24.87804,-10.23276 -25.84375,-22.6875 -0.22286,-2.87417 0.67576,-6.7148 3.15625,-12 9.09512,-10.9092 26.14431,-16.00296 41.34375,-16.5625 5.61095,-0.20656 10.88794,0.2833 15.5,1.25 0.20469,0.0248 0.42017,0.0673 0.625,0.0937 13.11441,1.69391 26.4178,6.7618 34.09375,15.96875 13.22927,28.18774 -18.90772,15.17291 -22.6875,34.6875 -2.75393,14.2182 8.47834,18.61045 14.8125,19.96875 l 102.90625,0 0,-101.59375 c 1.21826,-6.20122 5.48907,-18.24109 20.125,-15.40625 19.5146,3.77979 6.49976,35.88552 34.6875,22.65625 9.20696,-7.67594 14.27484,-20.97934 15.96875,-34.09375 0.0265,-0.20482 0.0689,-0.42031 0.0937,-0.625 0.96671,-4.61204 1.45656,-9.88905 1.25,-15.5 -0.55953,-15.19944 -5.6533,-32.24863 -16.5625,-41.34375 -28.18772,-13.22926 -15.17291,18.90771 -34.6875,22.6875 -19.51457,3.7798 -20.59375,-18.90625 -20.59375,-18.90625 l -0.28125,-97.1875 c 0,0 -98.25001,0.62501 -98.25,0.625 0,0 -22.68605,1.07918 -18.90625,20.59375 3.77979,19.51459 35.91675,6.49978 22.6875,34.6875 -9.09512,10.9092 -26.14431,16.00297 -41.34375,16.5625 -5.61095,0.20656 -10.88795,-0.28329 -15.5,-1.25 -0.20469,-0.0248 -0.42019,-0.0673 -0.625,-0.0937 -13.11441,-1.69391 -26.41782,-6.76179 -34.09375,-15.96875 -2.48049,-5.2852 -3.37911,-9.12583 -3.15625,-12 0.96571,-12.45474 22.74142,-6.83189 25.8125,-22.6875 3.5267,-18.2079 -15.33972,-20.26129 -17.96875,-20.46875 l -98.40625,0 0,102.15625 c -1.48194,6.40559 -5.99188,16.96423 -19.84375,14.28125 -19.51459,-3.77978 -6.49976,-35.88552 -34.6875,-22.65625 -9.20694,7.67595 -14.27483,20.97934 -15.96875,34.09375 -0.0265,0.20483 -0.0689,0.42031 -0.0937,0.625 -0.9667,4.61205 -1.45656,9.88905 -1.25,15.5 z"
           id="path4296"
           style="fill:#578cdc;fill-opacity:1;fill-rule:evenodd;stroke:#ffffff;stroke-width:12.5;stroke-linejoin:round;stroke-opacity:1;stroke-dasharray:none" />
        <path
           d="m 806.5625,304.52142 c -15.19944,0.55954 -32.24863,5.65331 -41.34375,16.5625 -13.22926,28.18773 18.90771,15.17291 22.6875,34.6875 C 791.68604,375.28601 769,376.36517 769,376.36517 l 0,0 -97.75,0 c 0,0 0.125,96.93752 0.125,96.93751 0,0 1.07917,22.68603 20.59375,18.90625 15.8556,-3.07108 10.23276,-24.87804 22.6875,-25.84375 2.87417,-0.22286 6.7148,0.67576 12,3.15625 10.9092,9.09512 16.00296,26.14431 16.5625,41.34375 0.20656,5.61095 -0.2833,10.88794 -1.25,15.5 -0.0248,0.20469 -0.0673,0.42017 -0.0937,0.625 -1.69391,13.11441 -6.7618,26.4178 -15.96875,34.09375 -28.18774,13.22927 -15.17291,-18.90772 -34.6875,-22.6875 -14.2182,-2.75393 -18.61045,8.47834 -19.96875,14.8125 l 0,102.90625 101.59375,0 c 6.20122,1.21826 18.24109,5.48907 15.40625,20.125 -3.77979,19.5146 -35.88552,6.49976 -22.65625,34.6875 7.67594,9.20696 20.97934,14.27484 34.09375,15.96875 0.20482,0.0265 0.42031,0.0689 0.625,0.0937 4.61204,0.96671 9.88905,1.45656 15.5,1.25 15.19944,-0.55953 32.24863,-5.6533 41.34375,-16.5625 13.22926,-28.18772 -18.90771,-15.17291 -22.6875,-34.6875 -3.7798,-19.51457 18.90625,-20.59375 18.90625,-20.59375 l 97.1875,-0.28125 c 0,0 -0.62501,-98.25001 -0.625,-98.25 0,0 -1.07918,-22.68605 -20.59375,-18.90625 -19.51459,3.77979 -6.49978,35.91675 -34.6875,22.6875 -10.9092,-9.09512 -16.00297,-26.14431 -16.5625,-41.34375 -0.20656,-5.61095 0.28329,-10.88795 1.25,-15.5 0.0248,-0.20469 0.0673,-0.42019 0.0937,-0.625 1.69391,-13.11441 6.76179,-26.41782 15.96875,-34.09375 5.2852,-2.48049 9.12583,-3.37911 12,-3.15625 12.45474,0.96571 6.83189,22.74142 22.6875,25.8125 18.2079,3.5267 20.26129,-15.33972 20.46875,-17.96875 l 0,-98.40626 -102.15625,0 c -6.40559,-1.48194 -16.96423,-5.99188 -14.28125,-19.84375 3.77978,-19.51459 35.88552,-6.49976 22.65625,-34.6875 -7.67595,-9.20694 -20.97934,-14.27483 -34.09375,-15.96875 -0.20483,-0.0265 -0.42031,-0.0689 -0.625,-0.0937 -4.61205,-0.9667 -9.88905,-1.45656 -15.5,-1.25 z"
           id="path5024"
           style="fill:#578cdc;fill-opacity:1;fill-rule:evenodd;stroke:#ffffff;stroke-width:12.5;stroke-linejoin:round;stroke-opacity:1;stroke-dasharray:none" />
        <path
           d="m 598.98456,801.78687 c 0.55954,15.19944 5.65331,32.24863 16.5625,41.34375 28.18773,13.22926 15.17291,-18.90771 34.6875,-22.6875 19.51459,-3.77979 20.59375,18.90625 20.59375,18.90625 l 0,0 0,97.75 c 0,0 96.93751,-0.125 96.9375,-0.125 0,0 22.68603,-1.07917 18.90625,-20.59375 -3.07108,-15.8556 -24.87804,-10.23276 -25.84375,-22.6875 -0.22286,-2.87417 0.67576,-6.7148 3.15625,-12 9.09512,-10.9092 26.14431,-16.00296 41.34375,-16.5625 5.61095,-0.20656 10.88794,0.2833 15.5,1.25 0.20469,0.0248 0.42017,0.0673 0.625,0.0937 13.11441,1.69391 26.4178,6.7618 34.09375,15.96875 13.22927,28.18774 -18.90772,15.17291 -22.6875,34.6875 -2.75393,14.2182 8.47834,18.61045 14.8125,19.96875 l 102.90625,0 0,-101.59375 c 1.21826,-6.20122 5.48907,-18.24109 20.125,-15.40625 19.5146,3.77979 6.49976,35.88552 34.68749,22.65625 9.207,-7.67594 14.2748,-20.97934 15.9688,-34.09375 0.026,-0.20482 0.069,-0.42031 0.094,-0.625 0.9667,-4.61204 1.4566,-9.88905 1.25,-15.5 -0.5595,-15.19944 -5.6533,-32.24863 -16.5625,-41.34375 -28.18771,-13.22926 -15.1729,18.90771 -34.68749,22.6875 -19.51457,3.7798 -20.59375,-18.90625 -20.59375,-18.90625 l -0.28125,-97.1875 c 0,0 -98.25001,0.62501 -98.25,0.625 0,0 -22.68605,1.07918 -18.90625,20.59375 3.77979,19.51459 35.91675,6.49978 22.6875,34.6875 -9.09512,10.9092 -26.14431,16.00297 -41.34375,16.5625 -5.61095,0.20656 -10.88795,-0.28329 -15.5,-1.25 -0.20469,-0.0248 -0.42019,-0.0673 -0.625,-0.0937 -13.11441,-1.69391 -26.41782,-6.76179 -34.09375,-15.96875 -2.48049,-5.2852 -3.37911,-9.12583 -3.15625,-12 0.96571,-12.45474 22.74142,-6.83189 25.8125,-22.6875 3.5267,-18.2079 -15.33972,-20.26129 -17.96875,-20.46875 l -98.40625,0 0,102.15625 c -1.48194,6.40559 -5.99188,16.96423 -19.84375,14.28125 -19.51459,-3.77978 -6.49976,-35.88552 -34.6875,-22.65625 -9.20694,7.67595 -14.27483,20.97934 -15.96875,34.09375 -0.0265,0.20483 -0.0689,0.42031 -0.0937,0.625 -0.9667,4.61205 -1.45656,9.88905 -1.25,15.5 z"
           id="path5026"
           style="fill:#578cdc;fill-opacity:1;fill-rule:evenodd;stroke:#ffffff;stroke-width:12.5;stroke-linejoin:round;stroke-opacity:1;stroke-dasharray:none" />
        <path
           d="m 248.75,864.52142 c -15.19944,0.55954 -32.24863,5.65331 -41.34375,16.5625 -13.22926,28.18773 18.90771,15.17291 22.6875,34.68751 3.77979,19.51459 -18.90625,20.59375 -18.90625,20.59375 l 0,0 -97.75,0 c 0,0 0.125,96.93752 0.125,96.93752 0,0 1.07917,22.686 20.59375,18.9062 15.8556,-3.0711 10.23276,-24.878 22.6875,-25.8437 2.87417,-0.2229 6.7148,0.6757 12,3.1562 10.9092,9.0951 16.00296,26.1443 16.5625,41.3438 0.20656,5.6109 -0.2833,10.8879 -1.25,15.5 -0.0248,0.2047 -0.0673,0.4201 -0.0937,0.625 -1.69391,13.1144 -6.7618,26.4178 -15.96875,34.0937 -28.18774,13.2293 -15.17291,-18.9077 -34.6875,-22.6875 -14.2182,-2.7539 -18.61045,8.4784 -19.96875,14.8125 l 0,102.9063 101.59375,0 c 6.20122,1.2182 18.24109,5.489 15.40625,20.125 -3.77979,19.5146 -35.88552,6.4997 -22.65625,34.6875 7.67594,9.2069 20.97934,14.2748 34.09375,15.9687 0.20482,0.026 0.42031,0.069 0.625,0.094 4.61204,0.9667 9.88905,1.4565 15.5,1.25 15.19944,-0.5596 32.24863,-5.6533 41.34375,-16.5625 13.22926,-28.1877 -18.90771,-15.1729 -22.6875,-34.6875 -3.7798,-19.5146 18.90625,-20.5938 18.90625,-20.5938 l 97.1875,-0.2812 c 0,0 -0.62501,-98.25 -0.625,-98.25 0,0 -1.07918,-22.6861 -20.59375,-18.9063 -19.51459,3.7798 -6.49978,35.9168 -34.6875,22.6875 -10.9092,-9.0951 -16.00297,-26.1443 -16.5625,-41.3437 -0.20656,-5.611 0.28329,-10.888 1.25,-15.5 0.0248,-0.2047 0.0673,-0.4202 0.0937,-0.625 1.69391,-13.1144 6.76179,-26.4178 15.96875,-34.0938 5.2852,-2.4805 9.12583,-3.3791 12,-3.1562 12.45474,0.9657 6.83189,22.7414 22.6875,25.8125 18.2079,3.5267 20.26129,-15.3397 20.46875,-17.9688 l 0,-98.40622 -102.15625,0 c -6.40559,-1.48194 -16.96423,-5.99188 -14.28125,-19.84375 3.77978,-19.5146 35.88552,-6.49977 22.65625,-34.68751 -7.67595,-9.20694 -20.97934,-14.27483 -34.09375,-15.96875 -0.20483,-0.0265 -0.42031,-0.0689 -0.625,-0.0937 -4.61205,-0.9667 -9.88905,-1.45656 -15.5,-1.25 z"
           id="path5028"
           style="fill:#578cdc;fill-opacity:1;fill-rule:evenodd;stroke:#ffffff;stroke-width:12.5;stroke-linejoin:round;stroke-opacity:1;stroke-dasharray:none" />
        <path
           d="m 318.29669,1080.9744 c 0.55954,15.1994 5.65331,32.2486 16.5625,41.3437 28.18773,13.2293 15.17291,-18.9077 34.6875,-22.6875 19.51459,-3.7798 20.59375,18.9063 20.59375,18.9063 l 0,0 0,97.75 c 0,0 96.93751,-0.125 96.9375,-0.125 0,0 22.68603,-1.0792 18.90625,-20.5938 -3.07108,-15.8556 -24.87804,-10.2327 -25.84375,-22.6875 -0.22286,-2.8742 0.67576,-6.7148 3.15625,-12 9.09512,-10.9092 26.14431,-16.0029 41.34375,-16.5625 5.61095,-0.2065 10.88794,0.2833 15.5,1.25 0.20469,0.025 0.42017,0.067 0.625,0.094 13.11441,1.6939 26.4178,6.7618 34.09375,15.9687 13.22927,28.1878 -18.90772,15.1729 -22.6875,34.6875 -2.75393,14.2182 8.47834,18.6105 14.8125,19.9688 l 102.90625,0 0,-101.5938 c 1.21826,-6.2012 5.48907,-18.2411 20.125,-15.4062 19.5146,3.7798 6.49976,35.8855 34.6875,22.6562 9.20696,-7.6759 14.27484,-20.9793 15.96875,-34.0937 0.0265,-0.2049 0.0689,-0.4203 0.0937,-0.625 0.96671,-4.6121 1.45656,-9.8891 1.25,-15.5 -0.55953,-15.1995 -5.6533,-32.2487 -16.5625,-41.3438 -28.18772,-13.2292 -15.17291,18.9077 -34.6875,22.6875 -19.51457,3.7798 -20.59375,-18.9062 -20.59375,-18.9062 l -0.28125,-97.18753 c 0,0 -98.25001,0.62501 -98.25,0.625 0,0 -22.68605,1.07918 -18.90625,20.59375 3.77979,19.51459 35.91675,6.49978 22.6875,34.6875 -9.09512,10.90918 -26.14431,16.00298 -41.34375,16.56248 -5.61095,0.2066 -10.88795,-0.2833 -15.5,-1.25 -0.20469,-0.025 -0.42019,-0.067 -0.625,-0.094 -13.11441,-1.6939 -26.41782,-6.7618 -34.09375,-15.96878 -2.48049,-5.2852 -3.37911,-9.12583 -3.15625,-12 0.96571,-12.45474 22.74142,-6.83189 25.8125,-22.6875 3.5267,-18.2079 -15.33972,-20.26129 -17.96875,-20.46875 l -98.40625,0 0,102.15623 c -1.48194,6.4056 -5.99188,16.9642 -19.84375,14.2813 -19.51459,-3.7798 -6.49976,-35.8856 -34.6875,-22.6563 -9.20694,7.676 -14.27483,20.9794 -15.96875,34.0938 -0.0265,0.2048 -0.0689,0.4203 -0.0937,0.625 -0.9667,4.612 -1.45656,9.889 -1.25,15.5 z"
           id="path5030"
           style="fill:#578cdc;fill-opacity:1;fill-rule:evenodd;stroke:#ffffff;stroke-width:12.5;stroke-linejoin:round;stroke-opacity:1;stroke-dasharray:none" />
        <path
           d="m 806.5625,864.83356 c -15.19944,0.55954 -32.24863,5.65331 -41.34375,16.5625 -13.22926,28.18773 18.90771,15.17291 22.6875,34.6875 C 791.68604,935.59815 769,936.67731 769,936.67731 l 0,0 -97.75,0 c 0,0 0.125,96.93749 0.125,96.93749 0,0 1.07917,22.686 20.59375,18.9063 15.8556,-3.0711 10.23276,-24.8781 22.6875,-25.8438 2.87417,-0.2228 6.7148,0.6758 12,3.1563 10.9092,9.0951 16.00296,26.1443 16.5625,41.3437 0.20656,5.611 -0.2833,10.888 -1.25,15.5 -0.0248,0.2047 -0.0673,0.4202 -0.0937,0.625 -1.69391,13.1144 -6.7618,26.4178 -15.96875,34.0938 -28.18774,13.2292 -15.17291,-18.9078 -34.6875,-22.6875 -14.2182,-2.754 -18.61045,8.4783 -19.96875,14.8125 l 0,102.9062 101.59375,0 c 6.20122,1.2183 18.24109,5.4891 15.40625,20.125 -3.77979,19.5146 -35.88552,6.4998 -22.65625,34.6875 7.67594,9.207 20.97934,14.2749 34.09375,15.9688 0.20482,0.026 0.42031,0.069 0.625,0.094 4.61204,0.9667 9.88905,1.4566 15.5,1.25 15.19944,-0.5595 32.24863,-5.6533 41.34375,-16.5625 13.22926,-28.1877 -18.90771,-15.1729 -22.6875,-34.6875 -3.7798,-19.5146 18.90625,-20.5937 18.90625,-20.5937 l 97.1875,-0.2813 c 0,0 -0.62501,-98.25 -0.625,-98.25 0,0 -1.07918,-22.686 -20.59375,-18.9062 -19.51459,3.7798 -6.49978,35.9167 -34.6875,22.6875 -10.9092,-9.0952 -16.00297,-26.1443 -16.5625,-41.3438 -0.20656,-5.6109 0.28329,-10.8879 1.25,-15.5 0.0248,-0.2047 0.0673,-0.4202 0.0937,-0.625 1.69391,-13.1144 6.76179,-26.4178 15.96875,-34.0937 5.2852,-2.4805 9.12583,-3.3791 12,-3.1563 12.45474,0.9657 6.83189,22.7414 22.6875,25.8125 18.2079,3.5267 20.26129,-15.3397 20.46875,-17.9687 l 0,-98.40629 -102.15625,0 c -6.40559,-1.48194 -16.96423,-5.99188 -14.28125,-19.84375 3.77978,-19.51459 35.88552,-6.49976 22.65625,-34.6875 -7.67595,-9.20694 -20.97934,-14.27483 -34.09375,-15.96875 -0.20483,-0.0265 -0.42031,-0.0689 -0.625,-0.0937 -4.61205,-0.9667 -9.88905,-1.45656 -15.5,-1.25 z"
           id="path5032"
           style="fill:#578cdc;fill-opacity:1;fill-rule:evenodd;stroke:#ffffff;stroke-width:12.5;stroke-linejoin:round;stroke-opacity:1;stroke-dasharray:none" />
        <path
           d="m 527.5625,25.833555 c -15.19944,0.55954 -32.24863,5.65331 -41.34375,16.5625 -13.22926,28.18773 18.90771,15.17291 22.6875,34.6875 C 512.68604,96.598145 490,97.677305 490,97.677305 l 0,0 -97.75,0 c 0,0 0.125,96.937515 0.125,96.937505 0,0 1.07917,22.68603 20.59375,18.90625 15.8556,-3.07108 10.23276,-24.87803 22.6875,-25.84374 2.87417,-0.22286 6.7148,0.67576 12,3.15625 10.9092,9.09511 16.00296,26.1443 16.5625,41.34374 0.20656,5.61095 -0.2833,10.88794 -1.25,15.5 -0.0248,0.20469 -0.0673,0.42017 -0.0937,0.625 -1.69391,13.11441 -6.7618,26.4178 -15.96875,34.09375 -28.18774,13.22927 -15.17291,-18.90772 -34.6875,-22.6875 -14.2182,-2.75393 -18.61045,8.47834 -19.96875,14.8125 l 0,102.90625 101.59375,0 c 6.20122,1.21826 18.24109,5.48907 15.40625,20.12501 -3.77979,19.5146 -35.88552,6.49976 -22.65625,34.6875 7.67594,9.20696 20.97934,14.27484 34.09375,15.96875 0.20482,0.0265 0.42031,0.0689 0.625,0.0937 4.61204,0.96671 9.88905,1.45656 15.5,1.25 15.19944,-0.55953 32.24863,-5.6533 41.34375,-16.5625 13.22926,-28.18772 -18.90771,-15.17291 -22.6875,-34.6875 -3.7798,-19.51458 18.90625,-20.59376 18.90625,-20.59376 l 97.1875,-0.28125 c 0,0 -0.62501,-98.25001 -0.625,-98.25 0,0 -1.07918,-22.68605 -20.59375,-18.90625 -19.51459,3.77979 -6.49978,35.91675 -34.6875,22.6875 -10.9092,-9.09512 -16.00297,-26.14431 -16.5625,-41.34375 -0.20656,-5.61095 0.28329,-10.88795 1.25,-15.5 0.0248,-0.20469 0.0673,-0.42019 0.0937,-0.625 1.69391,-13.11441 6.76179,-26.41782 15.96875,-34.09374 5.2852,-2.48049 9.12583,-3.37911 12,-3.15625 12.45474,0.96571 6.83189,22.74141 22.6875,25.81249 18.2079,3.5267 20.26129,-15.33972 20.46875,-17.96875 l 0,-98.406255 -102.15625,0 c -6.40559,-1.48194 -16.96423,-5.99188 -14.28125,-19.84375 3.77978,-19.51459 35.88552,-6.49976 22.65625,-34.6875 -7.67595,-9.20694 -20.97934,-14.27483 -34.09375,-15.96875 -0.20483,-0.02646 -0.42031,-0.06894 -0.625,-0.09375 -4.61205,-0.9667 -9.88905,-1.45656 -15.5,-1.25 z"
           id="path5034"
           style="fill:#578cdc;fill-opacity:1;fill-rule:evenodd;stroke:#ffffff;stroke-width:12.5;stroke-linejoin:round;stroke-opacity:1;stroke-dasharray:none" />
        <path
           d="m 41.984559,241.97437 c 0.55954,15.19944 5.65331,32.24863 16.5625,41.34375 28.18773,13.22926 15.17291,-18.90771 34.6875,-22.6875 19.514591,-3.77979 20.593751,18.90625 20.593751,18.90625 l 0,0 0,97.75 c 0,0 96.93751,-0.125 96.9375,-0.125 0,0 22.68603,-1.07917 18.90625,-20.59375 -3.07108,-15.8556 -24.87804,-10.23276 -25.84375,-22.6875 -0.22286,-2.87417 0.67576,-6.7148 3.15625,-12 9.09512,-10.9092 26.14431,-16.00296 41.34375,-16.5625 5.61095,-0.20656 10.88794,0.2833 15.5,1.25 0.20469,0.0248 0.42017,0.0673 0.625,0.0937 13.11441,1.69391 26.4178,6.7618 34.09375,15.96875 13.22927,28.18774 -18.90772,15.17291 -22.6875,34.6875 -2.75393,14.2182 8.47834,18.61045 14.8125,19.96875 l 102.90625,0 0,-101.59375 c 1.21826,-6.20122 5.48907,-18.24109 20.125,-15.40625 19.5146,3.77979 6.49976,35.88552 34.6875,22.65625 9.20696,-7.67594 14.27484,-20.97934 15.96875,-34.09375 0.0265,-0.20482 0.0689,-0.42031 0.0937,-0.625 0.96671,-4.61204 1.45656,-9.88905 1.25,-15.5 -0.55953,-15.19944 -5.6533,-32.24863 -16.5625,-41.34375 -28.18772,-13.22926 -15.17291,18.90771 -34.6875,22.6875 -19.51457,3.7798 -20.59375,-18.90625 -20.59375,-18.90625 l -0.28125,-97.187505 c 0,0 -98.25001,0.62501 -98.25,0.625 0,0 -22.68605,1.07918 -18.90625,20.593755 3.77979,19.51459 35.91675,6.49978 22.6875,34.6875 -9.09512,10.9092 -26.14431,16.00297 -41.34375,16.5625 -5.61095,0.20656 -10.88795,-0.28329 -15.5,-1.25 -0.20469,-0.0248 -0.42019,-0.0673 -0.625,-0.0937 -13.11441,-1.69391 -26.41782,-6.76179 -34.09375,-15.96875 -2.48049,-5.2852 -3.37911,-9.12583 -3.15625,-12 0.96571,-12.45474 22.74142,-6.83189 25.8125,-22.6875 3.5267,-18.2079 -15.33972,-20.261295 -17.96875,-20.468755 l -98.40625,0 0,102.156255 c -1.48194,6.40559 -5.99188,16.96423 -19.843751,14.28125 -19.51459,-3.77978 -6.49976,-35.88552 -34.6875,-22.65625 -9.20694,7.67595 -14.27483,20.97934 -15.96875,34.09375 -0.02646,0.20483 -0.06894,0.42031 -0.09375,0.625 -0.9667,4.61205 -1.45656,9.88905 -1.25,15.5 z"
           id="path5036"
           style="fill:#578cdc;fill-opacity:1;fill-rule:evenodd;stroke:#ffffff;stroke-width:12.5;stroke-linejoin:round;stroke-opacity:1;stroke-dasharray:none" />
        <path
           d="m 598.98456,240.97437 c 0.55954,15.19944 5.65331,32.24863 16.5625,41.34375 28.18773,13.22926 15.17291,-18.90771 34.6875,-22.6875 19.51459,-3.77979 20.59375,18.90625 20.59375,18.90625 l 0,0 0,97.75 c 0,0 96.93751,-0.125 96.9375,-0.125 0,0 22.68603,-1.07917 18.90625,-20.59375 -3.07108,-15.8556 -24.87804,-10.23276 -25.84375,-22.6875 -0.22286,-2.87417 0.67576,-6.7148 3.15625,-12 9.09512,-10.9092 26.14431,-16.00296 41.34375,-16.5625 5.61095,-0.20656 10.88794,0.2833 15.5,1.25 0.20469,0.0248 0.42017,0.0673 0.625,0.0937 13.11441,1.69391 26.4178,6.7618 34.09375,15.96875 13.22927,28.18774 -18.90772,15.17291 -22.6875,34.6875 -2.75393,14.2182 8.47834,18.61045 14.8125,19.96875 l 102.90625,0 0,-101.59375 c 1.21826,-6.20122 5.48907,-18.24109 20.125,-15.40625 19.5146,3.77979 6.49976,35.88552 34.68749,22.65625 9.207,-7.67594 14.2748,-20.97934 15.9688,-34.09375 0.026,-0.20482 0.069,-0.42031 0.094,-0.625 0.9667,-4.61204 1.4566,-9.88905 1.25,-15.5 -0.5595,-15.19944 -5.6533,-32.24863 -16.5625,-41.34375 -28.18771,-13.22926 -15.1729,18.90771 -34.68749,22.6875 -19.51457,3.7798 -20.59375,-18.90625 -20.59375,-18.90625 l -0.28125,-97.187505 c 0,0 -98.25001,0.62501 -98.25,0.625 0,0 -22.68605,1.07918 -18.90625,20.593755 3.77979,19.51459 35.91675,6.49978 22.6875,34.6875 -9.09512,10.9092 -26.14431,16.00297 -41.34375,16.5625 -5.61095,0.20656 -10.88795,-0.28329 -15.5,-1.25 -0.20469,-0.0248 -0.42019,-0.0673 -0.625,-0.0937 -13.11441,-1.69391 -26.41782,-6.76179 -34.09375,-15.96875 -2.48049,-5.2852 -3.37911,-9.12583 -3.15625,-12 0.96571,-12.45474 22.74142,-6.83189 25.8125,-22.6875 3.5267,-18.207905 -15.33972,-20.261295 -17.96875,-20.468755 l -98.40625,0 0,102.156255 c -1.48194,6.40559 -5.99188,16.96423 -19.84375,14.28125 -19.51459,-3.77978 -6.49976,-35.88552 -34.6875,-22.65625 -9.20694,7.67595 -14.27483,20.97934 -15.96875,34.09375 -0.0265,0.20483 -0.0689,0.42031 -0.0937,0.625 -0.9667,4.61205 -1.45656,9.88905 -1.25,15.5 z"
           id="path5038"
           style="fill:#578cdc;fill-opacity:1;fill-rule:evenodd;stroke:#ffffff;stroke-width:12.5;stroke-linejoin:round;stroke-opacity:1;stroke-dasharray:none" />
        <path
           d="m 527.3125,1144.0211 c -15.19944,0.5595 -32.24863,5.6533 -41.34375,16.5625 -13.22926,28.1877 18.90771,15.1729 22.6875,34.6875 3.77979,19.5146 -18.90625,20.5937 -18.90625,20.5937 l 0,0 -97.75,0 c 0,0 0.125,96.9375 0.125,96.9375 0,0 1.07917,22.686 20.59375,18.9063 15.8556,-3.0711 10.23276,-24.8781 22.6875,-25.8438 2.87417,-0.2228 6.7148,0.6758 12,3.1563 10.9092,9.0951 16.00296,26.1443 16.5625,41.3437 0.20656,5.611 -0.2833,10.888 -1.25,15.5 -0.0248,0.2047 -0.0673,0.4202 -0.0937,0.625 -1.69391,13.1144 -6.7618,26.4178 -15.96875,34.0938 -28.18774,13.2292 -15.17291,-18.9078 -34.6875,-22.6875 -14.2182,-2.754 -18.61045,8.4783 -19.96875,14.8125 l 0,102.9062 101.59375,0 c 6.20122,1.2183 18.24109,5.4891 15.40625,20.125 -3.77979,19.5146 -35.88552,6.4998 -22.65625,34.6875 7.67594,9.207 20.97934,14.2749 34.09375,15.9688 0.20482,0.026 0.42031,0.069 0.625,0.094 4.61204,0.9667 9.88905,1.4566 15.5,1.25 15.19944,-0.5595 32.24863,-5.6533 41.34375,-16.5625 13.22926,-28.1877 -18.90771,-15.1729 -22.6875,-34.6875 -3.7798,-19.5146 18.90625,-20.5937 18.90625,-20.5937 l 97.1875,-0.2813 c 0,0 -0.62501,-98.25 -0.625,-98.25 0,0 -1.07918,-22.686 -20.59375,-18.9062 -19.51459,3.7798 -6.49978,35.9167 -34.6875,22.6875 -10.9092,-9.0952 -16.00297,-26.1443 -16.5625,-41.3438 -0.20656,-5.6109 0.28329,-10.8879 1.25,-15.5 0.0248,-0.2047 0.0673,-0.4202 0.0937,-0.625 1.69391,-13.1144 6.76179,-26.4178 15.96875,-34.0937 5.2852,-2.4805 9.12583,-3.3791 12,-3.1563 12.45474,0.9657 6.83189,22.7414 22.6875,25.8125 18.2079,3.5267 20.26129,-15.3397 20.46875,-17.9687 l 0,-98.4063 -102.15625,0 c -6.40559,-1.4819 -16.96423,-5.9919 -14.28125,-19.8437 3.77978,-19.5146 35.88552,-6.4998 22.65625,-34.6875 -7.67595,-9.207 -20.97934,-14.2749 -34.09375,-15.9688 -0.20483,-0.026 -0.42031,-0.069 -0.625,-0.094 -4.61205,-0.9667 -9.88905,-1.4566 -15.5,-1.25 z"
           id="path5040"
           style="fill:#578cdc;fill-opacity:1;fill-rule:evenodd;stroke:#ffffff;stroke-width:12.5;stroke-linejoin:round;stroke-opacity:1;stroke-dasharray:none" />
        <path
           d="m 40.98455,1359.1619 c 0.55954,15.1994 5.65331,32.2486 16.5625,41.3437 28.18773,13.2293 15.17291,-18.9077 34.6875,-22.6875 19.5146,-3.7798 20.59376,18.9063 20.59376,18.9063 l 0,0 0,97.75 c 0,0 96.93751,-0.125 96.9375,-0.125 0,0 22.68603,-1.0792 18.90625,-20.5938 -3.07108,-15.8556 -24.87804,-10.2327 -25.84375,-22.6875 -0.22286,-2.8741 0.67576,-6.7148 3.15625,-12 9.09512,-10.9092 26.14431,-16.0029 41.34375,-16.5625 5.61095,-0.2065 10.88794,0.2833 15.5,1.25 0.20469,0.025 0.42017,0.067 0.625,0.094 13.11441,1.6939 26.4178,6.7618 34.09375,15.9687 13.22927,28.1878 -18.90772,15.1729 -22.6875,34.6875 -2.75393,14.2182 8.47834,18.6105 14.8125,19.9688 l 102.90625,0 0,-101.5938 c 1.21826,-6.2012 5.48907,-18.2411 20.125,-15.4062 19.5146,3.7798 6.49976,35.8855 34.6875,22.6562 9.20696,-7.6759 14.27484,-20.9793 15.96875,-34.0937 0.0265,-0.2048 0.0689,-0.4203 0.0937,-0.625 0.96671,-4.6121 1.45656,-9.8891 1.25,-15.5 -0.55953,-15.1995 -5.6533,-32.2487 -16.5625,-41.3438 -28.18772,-13.2292 -15.17291,18.9077 -34.6875,22.6875 -19.51457,3.7798 -20.59375,-18.9062 -20.59375,-18.9062 l -0.28125,-97.1875 c 0,0 -98.25001,0.625 -98.25,0.625 0,0 -22.68605,1.0791 -18.90625,20.5937 3.77979,19.5146 35.91675,6.4998 22.6875,34.6875 -9.09512,10.9092 -26.14431,16.003 -41.34375,16.5625 -5.61095,0.2066 -10.88795,-0.2833 -15.5,-1.25 -0.20469,-0.025 -0.42019,-0.067 -0.625,-0.094 -13.11441,-1.6939 -26.41782,-6.7618 -34.09375,-15.9688 -2.48049,-5.2852 -3.37911,-9.1258 -3.15625,-12 0.96571,-12.4547 22.74142,-6.8319 25.8125,-22.6875 3.5267,-18.2079 -15.33972,-20.2613 -17.96875,-20.4687 l -98.40625,0 0,102.1562 c -1.48194,6.4056 -5.99188,16.9643 -19.84376,14.2813 -19.51459,-3.7798 -6.49976,-35.8855 -34.6875,-22.6563 -9.20694,7.676 -14.27483,20.9794 -15.96875,34.0938 -0.02646,0.2048 -0.06894,0.4203 -0.09375,0.625 -0.9667,4.612 -1.45656,9.889 -1.25,15.5 z"
           id="path5042"
           style="fill:#578cdc;fill-opacity:1;fill-rule:evenodd;stroke:#ffffff;stroke-width:12.5;stroke-linejoin:round;stroke-opacity:1;stroke-dasharray:none" />
        <path
           d="m 1022.7033,1350.0369 c -0.5595,-15.1994 -5.6533,-32.2486 -16.5625,-41.3437 -28.18764,-13.2293 -15.17284,18.9077 -34.68744,22.6875 -19.5146,3.7798 -20.5938,-18.9063 -20.5938,-18.9063 l 0,0 0,-97.75 c 0,0 -96.93745,0.125 -96.93745,0.125 0,0 -22.686,1.0792 -18.9062,20.5938 3.0711,15.8556 24.878,10.2328 25.8437,22.6875 0.2229,2.8742 -0.6757,6.7148 -3.1562,12 -9.0951,10.9092 -26.1443,16.003 -41.3438,16.5625 -5.6109,0.2066 -10.8879,-0.2833 -15.5,-1.25 -0.2047,-0.025 -0.4201,-0.067 -0.625,-0.094 -13.1144,-1.6939 -26.4178,-6.7618 -34.0937,-15.9687 -13.2293,-28.1877 18.9077,-15.1729 22.6875,-34.6875 2.7539,-14.2182 -8.4784,-18.6105 -14.8125,-19.9688 l -102.9063,0 0,101.5938 c -1.2182,6.2012 -5.489,18.2411 -20.125,15.4062 -19.5146,-3.7797 -6.4997,-35.8855 -34.6875,-22.6562 -9.2069,7.6759 -14.2748,20.9793 -15.9687,34.0937 -0.0265,0.2049 -0.069,0.4204 -0.0938,0.625 -0.9667,4.6121 -1.4565,9.8891 -1.25,15.5 0.5596,15.1995 5.6533,32.2487 16.5625,41.3438 28.1877,13.2293 15.1729,-18.9077 34.6875,-22.6875 19.5146,-3.7798 20.5938,18.9062 20.5938,18.9062 l 0.2812,97.1875 c 0,0 98.25,-0.625 98.25,-0.625 0,0 22.6861,-1.0791 18.9063,-20.5936 -3.7798,-19.5146 -35.9168,-6.4999 -22.6875,-34.6876 9.0951,-10.9092 26.1443,-16.003 41.3437,-16.5625 5.611,-0.2066 10.888,0.2833 15.5,1.25 0.2047,0.025 0.4202,0.067 0.625,0.094 13.1144,1.694 26.4178,6.7618 34.0938,15.9688 2.4805,5.2852 3.3791,9.1258 3.1562,12 -0.9657,12.4547 -22.7414,6.8318 -25.8125,22.6876 -3.5267,18.2077 15.3397,20.2611 17.9688,20.4686 l 98.40615,0 0,-102.1562 c 1.482,-6.4056 5.9919,-16.9642 19.8438,-14.2813 19.5146,3.7798 6.4997,35.8856 34.68744,22.6563 9.2069,-7.6759 14.2748,-20.9793 15.9687,-34.0938 0.026,-0.2048 0.069,-0.4203 0.094,-0.625 0.9667,-4.612 1.4565,-9.889 1.25,-15.5 z"
           id="path5044"
           style="fill:#578cdc;fill-opacity:1;fill-rule:evenodd;stroke:#ffffff;stroke-width:12.5;stroke-linejoin:round;stroke-opacity:1;stroke-dasharray:none" />
        <path
           d="m 1085.3125,1140.709 c -15.1994,0.5595 -32.2486,5.6533 -41.3437,16.5625 -13.2293,28.1877 18.9077,15.1729 22.6874,34.6875 3.7798,19.5146 -18.9062,20.5937 -18.9062,20.5937 l 0,0 -97.75,0 c 0,0 0.125,96.9375 0.125,96.9375 0,0 1.07917,22.686 20.59375,18.9063 15.8556,-3.0711 10.23276,-24.8781 22.6875,-25.8438 2.87417,-0.2228 6.71475,0.6758 11.99995,3.1563 10.9093,9.0951 16.003,26.1443 16.5626,41.3437 0.2065,5.611 -0.2834,10.888 -1.25,15.5 -0.025,0.2047 -0.067,0.4202 -0.094,0.625 -1.6939,13.1144 -6.7618,26.4178 -15.9688,34.0938 -28.18769,13.2292 -15.17286,-18.9078 -34.68745,-22.6875 -14.2182,-2.754 -18.61045,8.4783 -19.96875,14.8125 l 0,102.9062 101.5938,0 c 6.2012,1.2183 18.241,5.4891 15.4062,20.125 -3.7798,19.5146 -35.8855,6.4998 -22.6562,34.6875 7.6759,9.207 20.9793,14.2749 34.0937,15.9688 0.2048,0.026 0.4203,0.069 0.625,0.094 4.612,0.9667 9.889,1.4566 15.5,1.25 15.1994,-0.5595 32.2486,-5.6533 41.3437,-16.5625 13.2293,-28.1877 -18.9077,-15.1729 -22.6874,-34.6875 -3.7799,-19.5146 18.9062,-20.5937 18.9062,-20.5937 l 97.1875,-0.2813 c 0,0 -0.625,-98.25 -0.625,-98.25 0,0 -1.0792,-22.686 -20.5937,-18.9062 -19.5146,3.7798 -6.4998,35.9167 -34.6876,22.6875 -10.9092,-9.0952 -16.0029,-26.1443 -16.5624,-41.3438 -0.2066,-5.6109 0.2832,-10.8879 1.25,-15.5 0.025,-0.2047 0.067,-0.4202 0.094,-0.625 1.6939,-13.1144 6.7618,-26.4178 15.9687,-34.0937 5.2853,-2.4805 9.1259,-3.3791 12,-3.1563 12.4548,0.9657 6.8319,22.7414 22.6876,25.8125 18.2078,3.5267 20.2612,-15.3397 20.4687,-17.9687 l 0,-98.4063 -102.1563,0 c -6.4055,-1.4819 -16.9642,-5.9919 -14.2812,-19.8437 3.7798,-19.5146 35.8855,-6.4998 22.6562,-34.6875 -7.6759,-9.207 -20.9793,-14.2749 -34.0937,-15.9688 -0.2048,-0.026 -0.4203,-0.069 -0.625,-0.094 -4.612,-0.9667 -9.889,-1.4566 -15.5,-1.25 z"
           id="path5046"
           style="fill:#578cdc;fill-opacity:1;fill-rule:evenodd;stroke:#ffffff;stroke-width:12.5;stroke-linejoin:round;stroke-opacity:1;stroke-dasharray:none" />
        <path
           d="m 878.29671,521.97437 c 0.5595,15.1994 5.6533,32.2486 16.5625,41.3437 28.1877,13.2293 15.1729,-18.9077 34.6875,-22.6875 19.5146,-3.7798 20.5938,18.9063 20.5938,18.9063 l 0,0 0,97.75 c 0,0 96.93749,-0.125 96.93749,-0.125 0,0 22.686,-1.0792 18.9062,-20.5938 -3.0711,-15.8556 -24.878,-10.2327 -25.8437,-22.6875 -0.2229,-2.8741 0.6757,-6.7148 3.1562,-12 9.0951,-10.9092 26.1443,-16.0029 41.3438,-16.5625 5.6109,-0.2065 10.8879,0.2833 15.5,1.25 0.2046,0.0248 0.4201,0.0673 0.625,0.0938 13.1144,1.6939 26.4178,6.7618 34.0937,15.9687 13.2293,28.1878 -18.9077,15.1729 -22.6875,34.6875 -2.7539,14.2182 8.4783,18.6105 14.8125,19.9688 l 102.9063,0 0,-101.5938 c 1.2182,-6.2012 5.489,-18.2411 20.125,-15.4062 19.5146,3.7798 6.4997,35.8855 34.6875,22.6562 9.2069,-7.6759 14.2748,-20.9793 15.9687,-34.0937 0.026,-0.2048 0.069,-0.4203 0.094,-0.625 0.9667,-4.6121 1.4565,-9.8891 1.25,-15.5 -0.5596,-15.1995 -5.6533,-32.2487 -16.5625,-41.3438 -28.1878,-13.2292 -15.173,18.9077 -34.6875,22.6875 -19.5146,3.7798 -20.5938,-18.9062 -20.5938,-18.9062 l -0.2812,-97.1875 c 0,0 -98.2501,0.625 -98.25,0.625 0,0 -22.6861,1.0791 -18.9063,20.5937 3.7798,19.5146 35.9168,6.4998 22.6875,34.6875 -9.0951,10.9092 -26.1443,16.003 -41.3437,16.5625 -5.611,0.2066 -10.888,-0.2833 -15.5,-1.25 -0.2047,-0.0248 -0.4202,-0.0673 -0.625,-0.0937 -13.1145,-1.6939 -26.4179,-6.7618 -34.0938,-15.9688 -2.4805,-5.2852 -3.3791,-9.1258 -3.1562,-12 0.9657,-12.4547 22.7414,-6.8319 25.8125,-22.6875 3.5267,-18.2079 -15.3398,-20.2613 -17.9688,-20.4687 l -98.40619,0 0,102.1562 c -1.482,6.4056 -5.9919,16.9643 -19.8438,14.2813 -19.5146,-3.7798 -6.4998,-35.8855 -34.6875,-22.6563 -9.2069,7.676 -14.2748,20.9794 -15.9688,34.0938 -0.0264,0.2048 -0.0689,0.4203 -0.0937,0.625 -0.9667,4.612 -1.4566,9.889 -1.25,15.5 z"
           id="path5048"
           style="fill:#578cdc;fill-opacity:1;fill-rule:evenodd;stroke:#ffffff;stroke-width:12.5;stroke-linejoin:round;stroke-opacity:1;stroke-dasharray:none" />
        <path
           d="m 877.98447,1639.7244 c 0.5596,15.1994 5.6534,32.2486 16.5625,41.3437 28.1878,13.2293 15.173,-18.9077 34.6875,-22.6875 19.5147,-3.7798 20.5938,18.9063 20.5938,18.9063 l 0,0 0,97.75 c 0,0 96.93753,-0.125 96.93753,-0.125 0,0 22.686,-1.0792 18.9063,-20.5938 -3.0711,-15.8556 -24.8781,-10.2327 -25.8438,-22.6875 -0.2228,-2.8741 0.6758,-6.7148 3.1563,-12 9.0951,-10.9092 26.1443,-16.0029 41.3437,-16.5625 5.611,-0.2065 10.8879,0.2833 15.5,1.25 0.2047,0.025 0.4202,0.067 0.625,0.094 13.1144,1.6939 26.4178,6.7618 34.0938,15.9687 13.2292,28.1878 -18.9078,15.1729 -22.6875,34.6875 -2.754,14.2182 8.4783,18.6105 14.8125,19.9688 l 102.9062,0 0,-101.5938 c 1.2183,-6.2012 5.4891,-18.2411 20.125,-15.4062 19.5146,3.7798 6.4998,35.8855 34.6875,22.6562 9.207,-7.6759 14.2748,-20.9793 15.9688,-34.0937 0.026,-0.2048 0.069,-0.4203 0.094,-0.625 0.9667,-4.6121 1.4566,-9.8891 1.25,-15.5 -0.5595,-15.1995 -5.6533,-32.2487 -16.5625,-41.3438 -28.1877,-13.2292 -15.1729,18.9077 -34.6875,22.6875 -19.5146,3.7798 -20.5937,-18.9062 -20.5937,-18.9062 l -0.2813,-97.1875 c 0,0 -98.25,0.625 -98.25,0.625 0,0 -22.686,1.0791 -18.9062,20.5937 3.7797,19.5146 35.9167,6.4998 22.6875,34.6875 -9.0952,10.9092 -26.1444,16.003 -41.3438,16.5625 -5.6109,0.2066 -10.8879,-0.2833 -15.5,-1.25 -0.2047,-0.025 -0.4202,-0.067 -0.625,-0.094 -13.1144,-1.6939 -26.4178,-6.7618 -34.0937,-15.9688 -2.4805,-5.2852 -3.3791,-9.1258 -3.1563,-12 0.9657,-12.4547 22.7414,-6.8319 25.8125,-22.6875 3.5267,-18.2079 -15.3397,-20.2613 -17.9687,-20.4687 l -98.40633,0 0,102.1562 c -1.4819,6.4056 -5.9919,16.9643 -19.8438,14.2813 -19.5145,-3.7798 -6.4997,-35.8855 -34.6875,-22.6563 -9.2069,7.676 -14.2748,20.9794 -15.9687,34.0938 -0.0265,0.2048 -0.0689,0.4203 -0.0938,0.625 -0.9667,4.612 -1.4565,9.889 -1.25,15.5 z"
           id="path5050"
           style="fill:#578cdc;fill-opacity:1;fill-rule:evenodd;stroke:#ffffff;stroke-width:12.5;stroke-linejoin:round;stroke-opacity:1;stroke-dasharray:none" />
        <path
           d="m 880.98458,1078.4119 c 0.55954,15.1994 5.65331,32.2486 16.5625,41.3437 28.18773,13.2293 15.17291,-18.9077 34.6875,-22.6875 19.51459,-3.7798 20.59375,18.9063 20.59375,18.9063 l 0,0 0,97.75 c 0,0 96.93757,-0.125 96.93747,-0.125 0,0 22.686,-1.0792 18.9063,-20.5938 -3.0711,-15.8556 -24.878,-10.2327 -25.8438,-22.6875 -0.2228,-2.8742 0.6758,-6.7148 3.1563,-12 9.0951,-10.9092 26.1443,-16.0029 41.3437,-16.5625 5.611,-0.2065 10.8879,0.2833 15.5,1.25 0.2047,0.025 0.4202,0.067 0.625,0.094 13.1144,1.6939 26.4178,6.7618 34.0938,15.9687 13.2292,28.1878 -18.9078,15.1729 -22.6875,34.6875 -2.754,14.2182 8.4783,18.6105 14.8125,19.9688 l 102.9062,0 0,-101.5938 c 1.2183,-6.2012 5.4891,-18.2411 20.125,-15.4062 19.5146,3.7798 6.4998,35.8855 34.6875,22.6562 9.207,-7.6759 14.2748,-20.9793 15.9688,-34.0937 0.026,-0.2049 0.069,-0.4203 0.094,-0.625 0.9667,-4.6121 1.4566,-9.8891 1.25,-15.5 -0.5595,-15.1995 -5.6533,-32.2487 -16.5625,-41.3438 -28.1877,-13.2292 -15.1729,18.9077 -34.6875,22.6875 -19.5146,3.7798 -20.5937,-18.9062 -20.5937,-18.9062 l -0.2813,-97.18756 c 0,0 -98.25,0.62501 -98.25,0.625 0,0 -22.686,1.07917 -18.9062,20.59375 3.7797,19.51459 35.9167,6.49978 22.6875,34.6875 -9.0952,10.90921 -26.1444,16.00301 -41.3438,16.56251 -5.6109,0.2066 -10.8879,-0.2833 -15.5,-1.25 -0.2047,-0.025 -0.4202,-0.067 -0.625,-0.094 -13.1144,-1.6939 -26.4178,-6.76183 -34.0937,-15.96881 -2.4805,-5.2852 -3.3791,-9.12583 -3.1563,-12 0.9658,-12.45474 22.7415,-6.83189 25.8125,-22.6875 3.5267,-18.20791 -15.3397,-20.26129 -17.9687,-20.46875 l -98.40627,0 0,102.15626 c -1.48194,6.4056 -5.99188,16.9642 -19.84375,14.2813 -19.51459,-3.7798 -6.49976,-35.8856 -34.6875,-22.6563 -9.20694,7.676 -14.27483,20.9794 -15.96875,34.0938 -0.0265,0.2048 -0.0689,0.4203 -0.0937,0.625 -0.9667,4.612 -1.45656,9.889 -1.25,15.5 z"
           id="path5052"
           style="fill:#578cdc;fill-opacity:1;fill-rule:evenodd;stroke:#ffffff;stroke-width:12.5;stroke-linejoin:round;stroke-opacity:1;stroke-dasharray:none" />
        <path
           d="m 1085.5625,584.72437 c -15.1994,0.55954 -32.2486,5.65331 -41.3437,16.5625 -13.2293,28.18773 18.9077,15.17291 22.6874,34.6875 C 1070.686,655.48896 1048,656.56812 1048,656.56812 l 0,0 -97.75,0 c 0,0 0.125,96.93751 0.125,96.9375 0,0 1.0792,22.68603 20.5937,18.90625 15.8556,-3.07108 10.2328,-24.87803 22.6875,-25.84374 2.8742,-0.22286 6.7148,0.67576 12,3.15625 10.9093,9.09511 16.003,26.1443 16.5626,41.34374 0.2065,5.61095 -0.2834,10.88794 -1.25,15.5 -0.025,0.20469 -0.067,0.42017 -0.094,0.625 -1.6939,13.11441 -6.7618,26.4178 -15.9688,34.09375 -28.1877,13.22927 -15.1729,-18.90772 -34.6875,-22.6875 -14.2182,-2.75393 -18.6104,8.47834 -19.9687,14.8125 l 0,102.90625 101.5938,0 c 6.2012,1.21826 18.241,5.48907 15.4062,20.12501 -3.7798,19.5146 -35.8855,6.49976 -22.6562,34.68747 7.6759,9.207 20.9793,14.2749 34.0937,15.9688 0.2048,0.027 0.4203,0.069 0.625,0.094 4.612,0.9667 9.889,1.4566 15.5,1.25 15.1994,-0.5595 32.2486,-5.6533 41.3437,-16.5625 13.2293,-28.18769 -18.9077,-15.17288 -22.6874,-34.68747 -3.7799,-19.51458 18.9062,-20.59376 18.9062,-20.59376 l 97.1875,-0.28125 c 0,0 -0.625,-98.25001 -0.625,-98.25 0,0 -1.0792,-22.68605 -20.5937,-18.90625 -19.5146,3.77979 -6.4998,35.91675 -34.6876,22.6875 -10.9092,-9.09512 -16.0029,-26.14431 -16.5624,-41.34375 -0.2066,-5.61095 0.2832,-10.88795 1.25,-15.5 0.025,-0.20469 0.067,-0.42019 0.094,-0.625 1.6939,-13.11441 6.7618,-26.41782 15.9687,-34.09374 5.2853,-2.48049 9.1259,-3.37911 12,-3.15625 12.4548,0.96571 6.8319,22.74141 22.6876,25.81249 18.2078,3.5267 20.2612,-15.33972 20.4687,-17.96875 l 0,-98.40625 -102.1563,0 c -6.4055,-1.48194 -16.9642,-5.99188 -14.2812,-19.84375 3.7798,-19.51459 35.8855,-6.49976 22.6562,-34.6875 -7.6759,-9.20694 -20.9793,-14.27483 -34.0937,-15.96875 -0.2048,-0.0265 -0.4203,-0.0689 -0.625,-0.0937 -4.612,-0.9667 -9.889,-1.45656 -15.5,-1.25 z"
           id="path5054"
           style="fill:#578cdc;fill-opacity:1;fill-rule:evenodd;stroke:#ffffff;stroke-width:12.5;stroke-linejoin:round;stroke-opacity:1;stroke-dasharray:none" />
        <path
           d="m 1084.5625,25.021057 c -15.1994,0.55954 -32.2486,5.65331 -41.3438,16.5625 -13.2292,28.18773 18.9078,15.17291 22.6876,34.6875 C 1069.686,95.785647 1047,96.864807 1047,96.864807 l 0,0 -97.75,0 c 0,0 0.125,96.937523 0.125,96.937513 0,0 1.07917,22.68603 20.59375,18.90625 15.8556,-3.07108 10.23276,-24.87804 22.6875,-25.84375 2.87417,-0.22286 6.7148,0.67576 12.00005,3.15625 10.9092,9.09512 16.0029,26.14431 16.5624,41.34375 0.2066,5.61095 -0.2833,10.88794 -1.25,15.5 -0.025,0.20469 -0.067,0.42017 -0.094,0.625 -1.6939,13.11441 -6.7618,26.4178 -15.9687,34.09375 -28.18779,13.22927 -15.17296,-18.90772 -34.68755,-22.6875 -14.2182,-2.75393 -18.61045,8.47834 -19.96875,14.8125 l 0,102.90625 101.5937,0 c 6.2013,1.21826 18.2411,5.48907 15.4063,20.125 -3.7798,19.5146 -35.8855,6.49976 -22.6563,34.6875 7.676,9.20696 20.9794,14.27484 34.0938,15.96875 0.2048,0.0265 0.4203,0.0689 0.625,0.0937 4.612,0.96671 9.889,1.45656 15.5,1.25 15.1994,-0.55953 32.2486,-5.6533 41.3438,-16.5625 13.2292,-28.18772 -18.9078,-15.17291 -22.6876,-34.6875 -3.7798,-19.51457 18.9063,-20.59375 18.9063,-20.59375 l 97.1875,-0.28125 c 0,0 -0.625,-98.25001 -0.625,-98.25 0,0 -1.0792,-22.68605 -20.5938,-18.90625 -19.5145,3.77979 -6.4997,35.91675 -34.6874,22.6875 -10.9093,-9.09512 -16.003,-26.14431 -16.5626,-41.34375 -0.2065,-5.61095 0.2833,-10.88795 1.25,-15.5 0.025,-0.20469 0.067,-0.42019 0.094,-0.625 1.6939,-13.11441 6.7618,-26.41782 15.9688,-34.09375 5.2852,-2.48049 9.1258,-3.37911 12,-3.15625 12.4547,0.96571 6.8318,22.74142 22.6874,25.8125 18.2079,3.5267 20.2613,-15.33972 20.4688,-17.96875 l 0,-98.406263 -102.1562,0 c -6.4056,-1.48194 -16.9643,-5.99188 -14.2813,-19.84375 3.7798,-19.51459 35.8855,-6.49976 22.6563,-34.6875 -7.676,-9.20694 -20.9794,-14.27483 -34.0938,-15.96875 -0.2048,-0.02646 -0.4203,-0.06894 -0.625,-0.09375 -4.612,-0.9667 -9.889,-1.45656 -15.5,-1.25 z"
           id="path5056"
           style="fill:#578cdc;fill-opacity:1;fill-rule:evenodd;stroke:#ffffff;stroke-width:12.5;stroke-linejoin:round;stroke-opacity:1;stroke-dasharray:none" />
        <path
           d="m 807.75,1424.7244 c -15.1994,0.5595 -32.2486,5.6533 -41.3437,16.5625 -13.2293,28.1877 18.9077,15.1729 22.6874,34.6875 3.7798,19.5146 -18.9062,20.5937 -18.9062,20.5937 l 0,0 -97.75,0 c 0,0 0.125,96.9375 0.125,96.9375 0,0 1.07917,22.686 20.59375,18.9063 15.8556,-3.0711 10.23276,-24.8781 22.6875,-25.8438 2.87417,-0.2228 6.71475,0.6758 11.99995,3.1563 10.9093,9.0951 16.003,26.1443 16.5626,41.3437 0.2065,5.611 -0.2834,10.888 -1.25,15.5 -0.0249,0.2047 -0.0673,0.4202 -0.0938,0.625 -1.6939,13.1144 -6.7618,26.4178 -15.9688,34.0938 -28.18769,13.2292 -15.17286,-18.9078 -34.68745,-22.6875 -14.2182,-2.754 -18.61045,8.4783 -19.96875,14.8125 l 0,102.9062 101.5938,0 c 6.2012,1.2183 18.241,5.4891 15.4062,20.125 -3.7798,19.5146 -35.8855,6.4998 -22.6562,34.6875 7.6759,9.207 20.9793,14.2749 34.0937,15.9688 0.2048,0.026 0.4203,0.069 0.625,0.094 4.612,0.9667 9.889,1.4566 15.5,1.25 15.1994,-0.5595 32.2486,-5.6533 41.3437,-16.5625 13.2293,-28.1877 -18.9077,-15.1729 -22.6874,-34.6875 -3.7799,-19.5146 18.9062,-20.5937 18.9062,-20.5937 l 97.1875,-0.2813 c 0,0 -0.625,-98.25 -0.625,-98.25 0,0 -1.0792,-22.686 -20.5937,-18.9062 -19.5146,3.7798 -6.4998,35.9167 -34.6876,22.6875 -10.9092,-9.0952 -16.0029,-26.1443 -16.5624,-41.3438 -0.2066,-5.6109 0.2832,-10.8879 1.25,-15.5 0.0248,-0.2047 0.0672,-0.4202 0.0937,-0.625 1.6939,-13.1144 6.7618,-26.4178 15.9687,-34.0937 5.2853,-2.4805 9.1259,-3.3791 12,-3.1563 12.4548,0.9657 6.8319,22.7414 22.6876,25.8125 18.2078,3.5267 20.2612,-15.3397 20.4687,-17.9687 l 0,-98.4063 -102.1563,0 c -6.4055,-1.4819 -16.9642,-5.9919 -14.2812,-19.8437 3.7798,-19.5146 35.8855,-6.4998 22.6562,-34.6875 -7.6759,-9.207 -20.9793,-14.2749 -34.0937,-15.9688 -0.2048,-0.026 -0.4203,-0.069 -0.625,-0.094 -4.612,-0.9667 -9.889,-1.4566 -15.5,-1.25 z"
           id="path5058"
           style="fill:#578cdc;fill-opacity:1;fill-rule:evenodd;stroke:#ffffff;stroke-width:12.5;stroke-linejoin:round;stroke-opacity:1;stroke-dasharray:none" />
        <path
           d="m 321.98457,1641.9745 c 0.55954,15.1994 5.65331,32.2486 16.5625,41.3437 28.18773,13.2293 15.17291,-18.9077 34.6875,-22.6875 19.51459,-3.7798 20.59375,18.9063 20.59375,18.9063 l 0,0 0,97.75 c 0,0 96.93757,-0.125 96.93747,-0.125 0,0 22.686,-1.0792 18.9063,-20.5938 -3.0711,-15.8556 -24.878,-10.2327 -25.8438,-22.6875 -0.2228,-2.8742 0.6758,-6.7148 3.1563,-12 9.0951,-10.9092 26.1443,-16.0029 41.3437,-16.5625 5.611,-0.2065 10.8879,0.2833 15.5,1.25 0.2047,0.025 0.4202,0.067 0.625,0.094 13.1144,1.6939 26.4178,6.7618 34.0938,15.9687 13.2292,28.1878 -18.9078,15.1729 -22.6875,34.6875 -2.754,14.2182 8.4783,18.6105 14.8125,19.9688 l 102.9062,0 0,-101.5938 c 1.2183,-6.2012 5.4891,-18.2411 20.125,-15.4062 19.5146,3.7798 6.4998,35.8855 34.6875,22.6562 9.207,-7.6759 14.2748,-20.9793 15.9688,-34.0937 0.0264,-0.2049 0.0689,-0.4203 0.0937,-0.625 0.9667,-4.6121 1.4566,-9.8891 1.25,-15.5 -0.5595,-15.1995 -5.6533,-32.2487 -16.5625,-41.3438 -28.1877,-13.2292 -15.1729,18.9077 -34.6875,22.6875 -19.5146,3.7798 -20.5937,-18.9062 -20.5937,-18.9062 l -0.2813,-97.1876 c 0,0 -98.25,0.625 -98.25,0.625 0,0 -22.686,1.0792 -18.9062,20.5938 3.7797,19.5146 35.9167,6.4998 22.6875,34.6875 -9.0952,10.9092 -26.1444,16.003 -41.3438,16.5625 -5.6109,0.2066 -10.8879,-0.2833 -15.5,-1.25 -0.2047,-0.025 -0.4202,-0.067 -0.625,-0.094 -13.1144,-1.6939 -26.4178,-6.7618 -34.0937,-15.9688 -2.4805,-5.2852 -3.3791,-9.1258 -3.1563,-12 0.9658,-12.4547 22.7415,-6.8319 25.8125,-22.6875 3.5267,-18.2079 -15.3397,-20.2613 -17.9687,-20.4688 l -98.40627,0 0,102.1563 c -1.48194,6.4056 -5.99188,16.9642 -19.84375,14.2813 -19.51459,-3.7798 -6.49976,-35.8856 -34.6875,-22.6563 -9.20694,7.676 -14.27483,20.9794 -15.96875,34.0938 -0.0265,0.2048 -0.0689,0.4203 -0.0937,0.625 -0.9667,4.612 -1.45656,9.889 -1.25,15.5 z"
           id="path5060"
           style="fill:#578cdc;fill-opacity:1;fill-rule:evenodd;stroke:#ffffff;stroke-width:12.5;stroke-linejoin:round;stroke-opacity:1;stroke-dasharray:none" />
        <path
           d="m 248.3125,1425.7089 c -15.19944,0.5596 -32.24863,5.6533 -41.34375,16.5625 -13.22926,28.1877 18.90771,15.1729 22.6875,34.6875 3.77979,19.5146 -18.90625,20.5938 -18.90625,20.5938 l 0,0 -97.75,0 c 0,0 0.125,96.9375 0.125,96.9375 0,0 1.07917,22.686 20.59375,18.9062 15.8556,-3.0711 10.23276,-24.878 22.6875,-25.8437 2.87417,-0.2229 6.7148,0.6757 12,3.1562 10.9092,9.0951 16.00296,26.1443 16.5625,41.3438 0.20656,5.6109 -0.2833,10.8879 -1.25,15.5 -0.0248,0.2047 -0.0673,0.4201 -0.0937,0.625 -1.69391,13.1144 -6.7618,26.4178 -15.96875,34.0937 -28.18774,13.2293 -15.17291,-18.9077 -34.6875,-22.6875 -14.2182,-2.7539 -18.61045,8.4784 -19.96875,14.8125 l 0,102.9063 101.59375,0 c 6.20122,1.2182 18.24109,5.489 15.40625,20.125 -3.77979,19.5146 -35.88552,6.4997 -22.65625,34.6875 7.67594,9.2069 20.97934,14.2748 34.09375,15.9687 0.20482,0.026 0.42031,0.069 0.625,0.094 4.61204,0.9667 9.88905,1.4565 15.5,1.25 15.19944,-0.5596 32.24863,-5.6533 41.34375,-16.5625 13.22926,-28.1877 -18.90771,-15.1729 -22.6875,-34.6875 -3.7798,-19.5146 18.90625,-20.5938 18.90625,-20.5938 l 97.1875,-0.2812 c 0,0 -0.62501,-98.25 -0.625,-98.25 0,0 -1.07918,-22.6861 -20.59375,-18.9063 -19.51459,3.7798 -6.49978,35.9168 -34.6875,22.6875 -10.9092,-9.0951 -16.00297,-26.1443 -16.5625,-41.3437 -0.20656,-5.611 0.28329,-10.888 1.25,-15.5 0.0248,-0.2047 0.0673,-0.4202 0.0937,-0.625 1.69391,-13.1144 6.76179,-26.4178 15.96875,-34.0938 5.2852,-2.4805 9.12583,-3.3791 12,-3.1562 12.45474,0.9657 6.83189,22.7414 22.6875,25.8125 18.2079,3.5267 20.26129,-15.3397 20.46875,-17.9688 l 0,-98.4062 -102.15625,0 c -6.40559,-1.482 -16.96423,-5.9919 -14.28125,-19.8438 3.77978,-19.5146 35.88552,-6.4997 22.65625,-34.6875 -7.67595,-9.2069 -20.97934,-14.2748 -34.09375,-15.9687 -0.20483,-0.026 -0.42031,-0.069 -0.625,-0.094 -4.61205,-0.9667 -9.88905,-1.4565 -15.5,-1.25 z"
           id="path5062"
           style="fill:#578cdc;fill-opacity:1;fill-rule:evenodd;stroke:#ffffff;stroke-width:12.5;stroke-linejoin:round;stroke-opacity:1;stroke-dasharray:none" />
        <path
           d="m 528.75,1706.0211 c -15.1994,0.5595 -32.2486,5.6533 -41.3437,16.5625 -13.2293,28.1877 18.9077,15.1729 22.6874,34.6875 3.7798,19.5146 -18.9062,20.5937 -18.9062,20.5937 l 0,0 -97.75,0 c 0,0 0.125,96.9375 0.125,96.9375 0,0 1.07917,22.686 20.59375,18.9063 15.8556,-3.0711 10.23276,-24.8781 22.6875,-25.8438 2.87417,-0.2228 6.71475,0.6758 11.99995,3.1563 10.9093,9.0951 16.003,26.1443 16.5626,41.3437 0.2065,5.611 -0.2834,10.888 -1.25,15.5 -0.0249,0.2047 -0.0673,0.4202 -0.0938,0.625 -1.6939,13.1144 -6.7618,26.4178 -15.9688,34.0938 -28.18769,13.2292 -15.17286,-18.9078 -34.68745,-22.6875 -14.2182,-2.754 -18.61045,8.4783 -19.96875,14.8125 l 0,102.9062 101.5938,0 c 6.2012,1.2183 18.241,5.4891 15.4062,20.125 -3.7798,19.5146 -35.8855,6.4998 -22.6562,34.6875 7.6759,9.207 20.9793,14.2749 34.0937,15.9688 0.2048,0.026 0.4203,0.069 0.625,0.094 4.612,0.9667 9.889,1.4566 15.5,1.25 15.1994,-0.5595 32.2486,-5.6533 41.3437,-16.5625 13.2293,-28.1877 -18.9077,-15.1729 -22.6874,-34.6875 -3.7799,-19.5146 18.9062,-20.5937 18.9062,-20.5937 l 97.1875,-0.2813 c 0,0 -0.625,-98.25 -0.625,-98.25 0,0 -1.0792,-22.686 -20.5937,-18.9062 -19.5146,3.7798 -6.4998,35.9167 -34.6876,22.6875 -10.9092,-9.0952 -16.0029,-26.1443 -16.5624,-41.3438 -0.2066,-5.6109 0.2832,-10.8879 1.25,-15.5 0.0248,-0.2047 0.0672,-0.4202 0.0937,-0.625 1.6939,-13.1144 6.7618,-26.4178 15.9687,-34.0937 5.2853,-2.4805 9.1259,-3.3791 12,-3.1563 12.4548,0.9657 6.8319,22.7414 22.6876,25.8125 18.2078,3.5267 20.2612,-15.3397 20.4687,-17.9687 l 0,-98.4063 -102.1563,0 c -6.4055,-1.4819 -16.9642,-5.9919 -14.2812,-19.8437 3.7798,-19.5146 35.8855,-6.4998 22.6562,-34.6875 -7.6759,-9.207 -20.9793,-14.2749 -34.0937,-15.9688 -0.2048,-0.027 -0.4203,-0.069 -0.625,-0.094 -4.612,-0.9667 -9.889,-1.4566 -15.5,-1.25 z"
           id="path5064"
           style="fill:#578cdc;fill-opacity:1;fill-rule:evenodd;stroke:#ffffff;stroke-width:12.5;stroke-linejoin:round;stroke-opacity:1;stroke-dasharray:none" />
        <path
           d="m 603,1922.4119 c 0.5596,15.1994 5.6534,32.2486 16.5625,41.3437 28.1878,13.2293 15.173,-18.9077 34.6875,-22.6875 19.5147,-3.7798 20.5938,18.9063 20.5938,18.9063 l 0,0 0,97.75 c 0,0 96.93752,-0.125 96.93752,-0.125 0,0 22.686,-1.0792 18.9063,-20.5938 -3.0711,-15.8556 -24.8781,-10.2327 -25.8438,-22.6875 -0.2228,-2.8741 0.6758,-6.7148 3.1563,-12 9.0951,-10.9092 26.1443,-16.0029 41.3437,-16.5625 5.611,-0.2065 10.8879,0.2833 15.5,1.25 0.2047,0.025 0.4202,0.067 0.625,0.094 13.1144,1.6939 26.4178,6.7618 34.0938,15.9687 13.2292,28.1878 -18.9078,15.1729 -22.6875,34.6875 -2.754,14.2182 8.4783,18.6105 14.8125,19.9688 l 102.9062,0 0,-101.5938 c 1.2183,-6.2012 5.4891,-18.2411 20.125,-15.4062 19.5146,3.7798 6.4998,35.8855 34.68748,22.6562 9.207,-7.6759 14.2748,-20.9793 15.9688,-34.0937 0.026,-0.2048 0.069,-0.4203 0.094,-0.625 0.9667,-4.6121 1.4566,-9.8891 1.25,-15.5 -0.5595,-15.1995 -5.6533,-32.2487 -16.5625,-41.3438 -28.18768,-13.2292 -15.17288,18.9077 -34.68748,22.6875 -19.5146,3.7798 -20.5937,-18.9062 -20.5937,-18.9062 l -0.2813,-97.1875 c 0,0 -98.25,0.625 -98.25,0.625 0,0 -22.686,1.0791 -18.9062,20.5937 3.7797,19.5146 35.9167,6.4998 22.6875,34.6875 -9.0952,10.9092 -26.1444,16.003 -41.3438,16.5625 -5.6109,0.2066 -10.8879,-0.2833 -15.5,-1.25 -0.2047,-0.025 -0.4202,-0.067 -0.625,-0.094 -13.1144,-1.6939 -26.4178,-6.7618 -34.0937,-15.9688 -2.4805,-5.2852 -3.3791,-9.1258 -3.1563,-12 0.9657,-12.4547 22.7414,-6.8319 25.8125,-22.6875 3.5267,-18.2079 -15.3397,-20.2613 -17.9687,-20.4687 l -98.40632,0 0,102.1562 c -1.4819,6.4056 -5.9919,16.9643 -19.8438,14.2813 -19.5145,-3.7798 -6.4997,-35.8855 -34.6875,-22.6563 -9.2069,7.676 -14.2748,20.9794 -15.9687,34.0938 -0.0265,0.2048 -0.0689,0.4203 -0.0938,0.625 -0.9667,4.612 -1.4565,9.889 -1.25,15.5 z"
           id="path5066"
           style="fill:#578cdc;fill-opacity:1;fill-rule:evenodd;stroke:#ffffff;stroke-width:12.5;stroke-linejoin:round;stroke-opacity:1;stroke-dasharray:none" />
        <path
           d="m 1085.3125,1706.0211 c -15.1994,0.5595 -32.2486,5.6533 -41.3437,16.5625 -13.2293,28.1877 18.9077,15.1729 22.6874,34.6875 3.7798,19.5146 -18.9062,20.5937 -18.9062,20.5937 l 0,0 -97.75,0 c 0,0 0.125,96.9375 0.125,96.9375 0,0 1.07917,22.686 20.59375,18.9063 15.8556,-3.0711 10.23276,-24.8781 22.6875,-25.8438 2.87417,-0.2228 6.71475,0.6758 11.99995,3.1563 10.9093,9.0951 16.003,26.1443 16.5626,41.3437 0.2065,5.611 -0.2834,10.888 -1.25,15.5 -0.025,0.2047 -0.067,0.4202 -0.094,0.625 -1.6939,13.1144 -6.7618,26.4178 -15.9688,34.0938 -28.18769,13.2292 -15.17286,-18.9078 -34.68745,-22.6875 -14.2182,-2.754 -18.61045,8.4783 -19.96875,14.8125 l 0,102.9062 101.5938,0 c 6.2012,1.2183 18.241,5.4891 15.4062,20.125 -3.7798,19.5146 -35.8855,6.4998 -22.6562,34.6875 7.6759,9.207 20.9793,14.2749 34.0937,15.9688 0.2048,0.026 0.4203,0.069 0.625,0.094 4.612,0.9667 9.889,1.4566 15.5,1.25 15.1994,-0.5595 32.2486,-5.6533 41.3437,-16.5625 13.2293,-28.1877 -18.9077,-15.1729 -22.6874,-34.6875 -3.7799,-19.5146 18.9062,-20.5937 18.9062,-20.5937 l 97.1875,-0.2813 c 0,0 -0.625,-98.25 -0.625,-98.25 0,0 -1.0792,-22.686 -20.5937,-18.9062 -19.5146,3.7798 -6.4998,35.9167 -34.6876,22.6875 -10.9092,-9.0952 -16.0029,-26.1443 -16.5624,-41.3438 -0.2066,-5.6109 0.2832,-10.8879 1.25,-15.5 0.025,-0.2047 0.067,-0.4202 0.094,-0.625 1.6939,-13.1144 6.7618,-26.4178 15.9687,-34.0937 5.2853,-2.4805 9.1259,-3.3791 12,-3.1563 12.4548,0.9657 6.8319,22.7414 22.6876,25.8125 18.2078,3.5267 20.2612,-15.3397 20.4687,-17.9687 l 0,-98.4063 -102.1563,0 c -6.4055,-1.4819 -16.9642,-5.9919 -14.2812,-19.8437 3.7798,-19.5146 35.8855,-6.4998 22.6562,-34.6875 -7.6759,-9.207 -20.9793,-14.2749 -34.0937,-15.9688 -0.2048,-0.027 -0.4203,-0.069 -0.625,-0.094 -4.612,-0.9667 -9.889,-1.4566 -15.5,-1.25 z"
           id="path5068"
           style="fill:#578cdc;fill-opacity:1;fill-rule:evenodd;stroke:#ffffff;stroke-width:12.5;stroke-linejoin:round;stroke-opacity:1;stroke-dasharray:none" />
        <path
           d="m 41.296692,1922.7245 c 0.55954,15.1994 5.65331,32.2486 16.5625,41.3437 28.18773,13.2293 15.17291,-18.9077 34.6875,-22.6875 19.514588,-3.7798 20.593748,18.9063 20.593748,18.9063 l 0,0 0,97.75 c 0,0 96.93757,-0.125 96.93747,-0.125 0,0 22.686,-1.0792 18.9063,-20.5938 -3.0711,-15.8556 -24.878,-10.2327 -25.8438,-22.6875 -0.2228,-2.8742 0.6758,-6.7148 3.1563,-12 9.0951,-10.9092 26.1443,-16.0029 41.3437,-16.5625 5.611,-0.2065 10.8879,0.2833 15.5,1.25 0.2047,0.025 0.4202,0.067 0.625,0.094 13.1144,1.6939 26.4178,6.7618 34.0938,15.9687 13.2292,28.1878 -18.9078,15.1729 -22.6875,34.6875 -2.754,14.2182 8.4783,18.6105 14.8125,19.9688 l 102.9062,0 0,-101.5938 c 1.2183,-6.2012 5.4891,-18.2411 20.125,-15.4062 19.5146,3.7798 6.4998,35.8855 34.6875,22.6562 9.207,-7.6759 14.2748,-20.9793 15.9688,-34.0937 0.0264,-0.2049 0.0689,-0.4203 0.0937,-0.625 0.9667,-4.6121 1.4566,-9.8891 1.25,-15.5 -0.5595,-15.1995 -5.6533,-32.2487 -16.5625,-41.3438 -28.1877,-13.2292 -15.1729,18.9077 -34.6875,22.6875 -19.5146,3.7798 -20.5937,-18.9062 -20.5937,-18.9062 l -0.2813,-97.1876 c 0,0 -98.25,0.625 -98.25,0.625 0,0 -22.686,1.0792 -18.9062,20.5938 3.7797,19.5146 35.9167,6.4998 22.6875,34.6875 -9.0952,10.9092 -26.1444,16.003 -41.3438,16.5625 -5.6109,0.2066 -10.8879,-0.2833 -15.5,-1.25 -0.2047,-0.025 -0.4202,-0.067 -0.625,-0.094 -13.1144,-1.6939 -26.4178,-6.7618 -34.0937,-15.9688 -2.4805,-5.2852 -3.3791,-9.1258 -3.1563,-12 0.9658,-12.4547 22.7415,-6.8319 25.8125,-22.6875 3.5267,-18.2079 -15.3397,-20.2613 -17.9687,-20.4688 l -98.40627,0 0,102.1563 c -1.48194,6.4056 -5.99188,16.9642 -19.843748,14.2813 -19.51459,-3.7798 -6.49976,-35.8856 -34.6875,-22.6563 -9.20694,7.676 -14.27483,20.9794 -15.96875,34.0938 -0.02646,0.2048 -0.06894,0.4203 -0.09375,0.625 -0.9667,4.612 -1.45656,9.889 -1.25,15.5 z"
           id="path5070"
           style="fill:#578cdc;fill-opacity:1;fill-rule:evenodd;stroke:#ffffff;stroke-width:12.5;stroke-linejoin:round;stroke-opacity:1;stroke-dasharray:none" />
      </g>
      <path
         d="m 441.15498,353.91863 c -2.0634,-0.31184 -3.23875,-0.9036 -3.23875,-1.63063 0,-0.30041 0.28749,-0.64816 0.63887,-0.77277 2.14592,-0.76102 2.68205,-3.47621 0.95469,-4.83495 -0.87833,-0.6909 -1.4492,-0.75663 -6.57118,-0.75663 l -5.6093,0 0,-5.22044 c 0,-4.98653 0.21136,-6.0966 1.1608,-6.0966 0.15655,0 0.61986,0.65712 1.0296,1.46026 0.65106,1.27617 0.90326,1.46027 2.00051,1.46027 2.35849,0 3.84055,-2.70921 3.84055,-7.02056 0,-3.72251 -2.44582,-6.78797 -4.62403,-5.79552 -0.48985,0.22319 -1.06228,0.89819 -1.27208,1.50001 -0.4145,1.18904 -1.53924,1.49275 -1.91375,0.51677 -0.12188,-0.31761 -0.2216,-2.86394 -0.2216,-5.65853 l 0,-5.08106 5.6093,0 c 5.12198,0 5.69285,-0.0657 6.57118,-0.75663 0.68204,-0.53649 0.96028,-1.09413 0.95631,-1.91659 -0.007,-1.4581 -0.25142,-1.82187 -1.73461,-2.58185 -1.00086,-0.51284 -1.13337,-0.72174 -0.82419,-1.29943 0.83253,-1.55559 5.83526,-1.9231 7.88613,-0.57933 1.07316,0.70316 1.14316,1.5265 0.15641,1.83968 -1.2419,0.39416 -1.82749,1.27346 -1.82749,2.74406 0,2.31572 0.66259,2.55009 7.20953,2.55009 l 5.58679,0 -0.10077,5.56265 c -0.0895,4.93924 -0.17167,5.57626 -0.73336,5.68408 -0.4267,0.0819 -0.83485,-0.30274 -1.25407,-1.18187 -0.34183,-0.7168 -0.87857,-1.3222 -1.19275,-1.34532 -2.19437,-0.16148 -3.45975,0.87504 -4.22851,3.46372 -0.78863,2.65564 -0.67808,4.5564 0.38964,6.69904 1.43975,2.8892 3.82817,3.27706 5.09495,0.82739 0.37163,-0.71866 0.81503,-1.09313 1.20557,-1.01816 0.54252,0.10413 0.63001,0.79285 0.71839,5.65539 l 0.10064,5.53682 -5.6307,0.1171 c -4.97065,0.10337 -5.7227,0.20047 -6.41548,0.82834 -0.60356,0.547 -0.75967,1.05166 -0.67606,2.1854 0.0889,1.20586 0.32211,1.60797 1.28112,2.20929 1.3874,0.86992 1.49906,1.46233 0.38772,2.0571 -1.31368,0.70306 -2.90406,0.92234 -4.71002,0.64941 l 0,0 z"
         id="path4129"
         style="fill:#000000;fill-opacity:1;stroke:#ffffff;stroke-width:0.36506596;stroke-opacity:1" />
      <path
         d="m 364.17291,372.27724 c 0,-5.30437 -0.0603,-5.83698 -0.74435,-6.57119 -1.41543,-1.51927 -3.58185,-0.98077 -4.99229,1.24093 -0.43016,0.67757 -0.46445,0.67349 -1.16646,-0.13904 -0.95913,-1.11012 -1.29472,-3.57533 -0.75925,-5.57748 0.73326,-2.74172 1.46228,-3.1875 2.3633,-1.44512 1.03243,1.99649 2.99907,2.31079 4.5782,0.73167 0.65778,-0.65778 0.72085,-1.23273 0.72085,-6.57142 l 0,-5.85056 5.56725,0.10078 c 5.26489,0.0953 5.57299,0.14074 5.67273,0.83677 0.0762,0.53165 -0.20158,0.8519 -1.00041,1.15342 -2.10007,0.7927 -2.19527,3.40816 -0.17229,4.73367 1.35715,0.88923 4.90666,1.5593 6.59677,1.24531 1.62432,-0.30176 3.44377,-1.18276 4.11637,-1.9932 0.25635,-0.30888 0.49081,-1.08841 0.52101,-1.73228 0.045,-0.95866 -0.17648,-1.32809 -1.22281,-2.03986 -2.74074,-1.86443 -1.90673,-2.27295 4.6546,-2.28 l 5.20218,-0.006 0,5.6093 c 0,5.12198 0.0657,5.69285 0.75663,6.57118 1.25346,1.59351 3.48558,1.16947 4.53594,-0.86169 0.72692,-1.40572 1.44179,-1.10242 2.223,0.94316 0.69221,1.81251 0.53347,4.19245 -0.40003,5.99764 -0.71673,1.386 -1.27078,1.35779 -2.19213,-0.11162 -0.6068,-0.96774 -0.99911,-1.1917 -2.24744,-1.28298 -2.44938,-0.17911 -2.67597,0.43992 -2.67597,7.3106 l 0,5.75982 -5.08106,0 c -2.79458,0 -5.34092,-0.0997 -5.65852,-0.22159 -0.9633,-0.36965 -0.66456,-1.47908 0.53169,-1.97458 3.42463,-1.41853 1.57016,-4.95087 -3.0576,-5.82407 -4.2083,-0.79405 -7.90833,0.92961 -7.90833,3.68411 0,0.81793 0.31333,1.23917 1.46026,1.9632 0.80315,0.50701 1.46027,1.08811 1.46027,1.29135 0,0.76007 -2.01471,1.08158 -6.77748,1.08158 l -4.90463,0 0,-5.77222 z"
         id="path4131"
         style="fill:#000000;fill-opacity:1;stroke:#ffffff;stroke-width:0.36506596;stroke-opacity:1" />
      <path
         d="m 521.8814,403.83583 c 0,-5.12198 -0.0657,-5.69285 -0.75663,-6.57118 -1.33028,-1.69117 -3.95034,-1.18566 -4.67832,0.90262 -0.34557,0.9913 -0.47999,1.08409 -0.97513,0.67316 -2.01679,-1.67378 -2.14882,-6.76241 -0.22073,-8.50731 0.62866,-0.56893 0.7165,-0.52549 1.55015,0.76667 0.71654,1.11061 1.13471,1.39073 2.2102,1.48058 1.07773,0.09 1.47122,-0.0732 2.09846,-0.87063 0.71,-0.90263 0.772,-1.43265 0.772,-6.60024 l 0,-5.6188 5.56265,0.10078 c 4.79055,0.0868 5.57842,0.18299 5.67632,0.69308 0.0693,0.36135 -0.39147,0.89034 -1.18186,1.35668 -1.08535,0.64037 -1.29553,0.96841 -1.29553,2.02197 0,2.88503 4.84898,4.70686 9.26454,3.48082 1.98743,-0.55183 3.1477,-1.81681 3.1477,-3.43177 0,-1.10975 -0.19522,-1.42181 -1.29553,-2.07102 -0.79039,-0.46634 -1.25121,-0.99533 -1.18186,-1.35668 0.0979,-0.51009 0.88577,-0.6063 5.67632,-0.69308 l 5.56265,-0.10078 0,5.78693 c 0,5.57699 0.0307,5.81573 0.84493,6.5807 1.50378,1.41273 3.92599,0.73788 4.42028,-1.23151 0.28019,-1.11636 0.8086,-1.02889 1.79913,0.29782 1.31869,1.76626 0.55216,7.93357 -0.98606,7.93357 -0.29159,0 -0.86942,-0.57497 -1.28405,-1.27773 -0.65555,-1.11107 -0.93857,-1.27772 -2.16987,-1.27772 -2.45369,0 -2.62436,0.47077 -2.62436,7.23879 l 0,5.90358 -5.13492,0 c -6.56236,0 -8.09058,-0.65804 -5.08692,-2.1904 1.2928,-0.65954 1.46026,-0.89478 1.46026,-2.05135 0,-4.10172 -8.60376,-5.56761 -11.81988,-2.01385 -1.26273,1.39531 -0.71244,3.39496 1.1267,4.0942 1.02122,0.38827 1.08578,1.27211 0.13026,1.78349 -0.38837,0.20785 -2.9347,0.37791 -5.65852,0.37791 l -4.95238,0 0,-5.6093 z"
         id="path4133"
         style="fill:#000000;fill-opacity:1;stroke:#ffffff;stroke-width:0.36506596;stroke-opacity:1" />
      <path
         d="m 490.35867,310.638 c -0.13091,-2.13949 -0.23801,-4.73933 -0.23801,-5.77742 0,-1.5009 -0.17304,-2.04999 -0.84493,-2.6812 -1.50378,-1.41273 -3.92599,-0.73789 -4.42028,1.23151 -0.28018,1.11635 -0.8086,1.02888 -1.79913,-0.29783 -1.3187,-1.76625 -0.55216,-7.93357 0.98606,-7.93357 0.2916,0 0.86941,0.57497 1.28405,1.27773 0.65555,1.11107 0.93857,1.27773 2.16987,1.27773 2.53778,0 2.78875,-0.63003 2.92328,-7.33853 l 0.11639,-5.80384 5.17706,0.006 c 6.52831,0.007 7.38019,0.42414 4.62948,2.26668 -3.37844,2.26302 -0.27422,5.73311 5.14476,5.75116 3.27382,0.0109 5.47847,-1.10725 5.96121,-3.02341 0.27587,-1.09504 0.21633,-1.46859 -0.33038,-2.0727 -0.3668,-0.40531 -0.86775,-0.73692 -1.11323,-0.73692 -0.24547,0 -0.65082,-0.24642 -0.90078,-0.5476 -0.36258,-0.43688 -0.36258,-0.65832 0,-1.0952 0.36541,-0.44029 1.48302,-0.5476 5.70322,-0.5476 l 5.24876,0 0,5.60929 c 0,5.12199 0.0657,5.69286 0.75663,6.57119 1.3439,1.7085 3.94494,1.18455 4.70114,-0.947 l 0.42366,-1.19416 0.8762,1.00537 c 1.60988,1.8472 1.63879,5.9541 0.0549,7.79552 l -0.8071,0.9383 -0.90523,-1.40147 c -0.92181,-1.42712 -1.88102,-1.82974 -3.43193,-1.44049 -1.36998,0.34385 -1.66825,1.69197 -1.66825,7.54004 l 0,5.45882 -5.20219,-0.006 c -6.55446,-0.007 -7.40769,-0.42254 -4.65459,-2.26668 3.37843,-2.26301 0.27422,-5.73311 -5.14477,-5.75116 -3.27381,-0.0109 -5.47846,1.10725 -5.9612,3.02341 -0.27587,1.09504 -0.21634,1.4686 0.33038,2.07271 0.3668,0.4053 0.86775,0.73691 1.11322,0.73691 0.24548,0 0.65083,0.24643 0.90079,0.54761 0.36258,0.43688 0.36258,0.65831 0,1.0952 -0.365,0.43979 -1.47686,0.54759 -5.64775,0.54759 l -5.19327,0 -0.23802,-3.88998 z"
         id="path4135"
         style="fill:#000000;fill-opacity:1;stroke:#ffffff;stroke-width:0.36506596;stroke-opacity:1" />
    </g>
    <path
       d="m 344.48109,321.92 c -1.66421,-0.84576 -1.76583,-1.38544 -0.39441,-2.09463 2.1317,-1.10234 2.21789,-3.94199 0.14829,-4.88496 -0.54381,-0.24778 -3.08444,-0.41243 -6.36399,-0.41243 l -5.45881,0 0,-5.22368 c 0,-3.88655 0.13006,-5.40154 0.5081,-5.91854 0.41695,-0.57022 0.60698,-0.61279 1.05937,-0.23733 0.30322,0.25164 0.65205,0.85898 0.77521,1.34965 0.26361,1.05034 1.6818,1.53034 3.09332,1.04696 2.49416,-0.85413 3.6415,-7.12886 1.87729,-10.26677 -1.50057,-2.66895 -4.21151,-2.92132 -5.0655,-0.47156 -0.38551,1.10586 -1.41631,1.50196 -1.68267,0.64658 -0.0782,-0.25098 -0.22181,-2.79732 -0.31923,-5.65853 l -0.17713,-5.20218 5.65223,0 5.65222,0 1.10313,-1.10314 c 0.6811,-0.68109 1.01952,-1.32101 0.88458,-1.67265 -0.1202,-0.31324 -0.21854,-0.80805 -0.21854,-1.09958 0,-0.29152 -0.57498,-0.8693 -1.27773,-1.28393 -0.70276,-0.41463 -1.27774,-0.90435 -1.27774,-1.08825 0,-0.73318 2.41033,-1.78121 4.09961,-1.78254 1.90214,-0.001 4.50255,0.88193 4.78835,1.62674 0.10411,0.27127 -0.39432,0.84845 -1.15829,1.34131 -1.08145,0.69767 -1.36246,1.12187 -1.45182,2.19158 -0.09,1.07773 0.0732,1.47122 0.87063,2.09846 0.90246,0.70987 1.43282,0.772 6.59073,0.772 l 5.60929,0 0,5.08106 c 0,2.79458 -0.0997,5.34092 -0.22159,5.65852 -0.36965,0.9633 -1.47908,0.66456 -1.97459,-0.53169 -0.25268,-0.61003 -0.73889,-1.25872 -1.08046,-1.44152 -0.68589,-0.36708 -2.09833,-0.12127 -2.89754,0.50427 -1.01675,0.7958 -1.91205,3.50826 -1.91829,5.81176 -0.0106,3.91658 1.34395,6.09142 3.79395,6.09142 1.27236,0 1.46915,-0.129 1.94912,-1.27773 0.62122,-1.48678 1.77649,-1.73554 2.1193,-0.45633 0.12108,0.45177 0.22238,2.9981 0.22512,5.65852 l 0.005,4.83712 -5.38472,0.005 c -5.86443,0.006 -6.97207,0.28059 -7.53023,1.86771 -0.54139,1.53942 0.003,2.8537 1.42837,3.44932 1.57247,0.65702 1.58846,1.06212 0.0783,1.98291 -1.52523,0.92994 -4.71465,0.97276 -6.45818,0.0867 l 0,2e-5 z"
       id="path4137"
       style="fill:#000000;fill-opacity:1;stroke:#ffffff;stroke-width:0.36506596;stroke-opacity:1" />
  </g>
</svg>
