<?xml version="1.0" encoding="UTF-8" standalone="no"?>
<!-- Created with Inkscape (http://www.inkscape.org/) -->
<svg id="svg3147" xmlns:rdf="http://www.w3.org/1999/02/22-rdf-syntax-ns#" xmlns="http://www.w3.org/2000/svg" xmlns:osb="http://www.openswatchbook.org/uri/2009/osb" height="150.03" width="236.53" version="1.1" xmlns:cc="http://creativecommons.org/ns#" xmlns:xlink="http://www.w3.org/1999/xlink" xmlns:dc="http://purl.org/dc/elements/1.1/">
 <defs id="defs3149"></defs>
 <metadata id="metadata3152">
  <rdf:RDF>
   <cc:Work rdf:about="">
    <dc:format>image/svg+xml</dc:format>
    <dc:type rdf:resource="http://purl.org/dc/dcmitype/StillImage"/>
    <dc:title/>
   </cc:Work>
  </rdf:RDF>
 </metadata>
 <g id="layer1" transform="translate(85.972058,42.755053)">
  <g id="layer1-1" transform="matrix(0.69689699,0,0,0.69689699,-276.03279,-185.12988)">
   <flowRoot id="flowRoot3101" style="letter-spacing:0px;word-spacing:0px;" font-weight="normal" xml:space="preserve" font-size="40px" font-style="normal" font-family="Sans" line-height="125%" fill="#000000"><flowRegion id="flowRegion3103"><rect id="rect3105" y="43.791" x="119.29" width="312.86" height="70.714"/></flowRegion><flowPara id="flowPara3107" font-weight="normal" font-size="64px" font-style="normal" font-stretch="normal" font-variant="normal" font-family="Serif">WANTED</flowPara></flowRoot>
   <g id="g4182">
    <g id="g5072" stroke-linejoin="round" fill-rule="evenodd" transform="matrix(0,0.11342822,-0.1125897,0,563.42373,270.87856)" stroke="#ffffff" stroke-dasharray="none" stroke-width="12.5" fill="#578cdc">
     <path id="path1099" d="m41.609,801.36c0.55954,15.199,5.6533,32.249,16.562,41.344,28.188,13.229,15.173-18.908,34.688-22.688,19.515-3.7798,20.594,18.906,20.594,18.906v97.75s96.938-0.125,96.938-0.125,22.686-1.0792,18.906-20.594c-3.0711-15.856-24.878-10.233-25.844-22.688-0.22286-2.8742,0.67576-6.7148,3.1562-12,9.0951-10.909,26.144-16.003,41.344-16.562,5.611-0.20656,10.888,0.2833,15.5,1.25,0.20469,0.0248,0.42017,0.0673,0.625,0.0937,13.114,1.6939,26.418,6.7618,34.094,15.969,13.229,28.188-18.908,15.173-22.688,34.688-2.7539,14.218,8.4783,18.61,14.812,19.969h102.91v-101.59c1.2183-6.2012,5.4891-18.241,20.125-15.406,19.515,3.7798,6.4998,35.886,34.688,22.656,9.207-7.6759,14.275-20.979,15.969-34.094,0.0265-0.20482,0.0689-0.42031,0.0937-0.625,0.96671-4.612,1.4566-9.889,1.25-15.5-0.55953-15.199-5.6533-32.249-16.562-41.344-28.188-13.229-15.173,18.908-34.688,22.688-19.515,3.7798-20.594-18.906-20.594-18.906l-0.28125-97.188s-98.25,0.62501-98.25,0.625c0,0-22.686,1.0792-18.906,20.594,3.7798,19.515,35.917,6.4998,22.688,34.688-9.0951,10.909-26.144,16.003-41.344,16.562-5.611,0.20656-10.888-0.28329-15.5-1.25-0.20469-0.0248-0.42019-0.0673-0.625-0.0937-13.114-1.6939-26.418-6.7618-34.094-15.969-2.4805-5.2852-3.3791-9.1258-3.1562-12,0.96571-12.455,22.741-6.8319,25.812-22.688,3.5267-18.208-15.34-20.261-17.969-20.469h-98.406v102.16c-1.4819,6.4056-5.9919,16.964-19.844,14.281-19.515-3.7798-6.4998-35.886-34.688-22.656-9.2069,7.676-14.275,20.979-15.969,34.094-0.02646,0.20483-0.06894,0.42031-0.09375,0.625-0.9667,4.612-1.4566,9.889-1.25,15.5z"/>
     <path id="path2840" d="m527.75,585.52c-15.199,0.55954-32.249,5.6533-41.344,16.562-13.229,28.188,18.908,15.173,22.688,34.688,3.7798,19.515-18.906,20.594-18.906,20.594h-97.75s0.125,96.938,0.125,96.938,1.0792,22.686,20.594,18.906c15.856-3.0711,10.233-24.878,22.688-25.844,2.8742-0.22286,6.7148,0.67576,12,3.1562,10.909,9.0951,16.003,26.144,16.562,41.344,0.20656,5.611-0.2833,10.888-1.25,15.5-0.0248,0.20469-0.0673,0.42017-0.0937,0.625-1.6939,13.114-6.7618,26.418-15.969,34.094-28.188,13.229-15.173-18.908-34.688-22.688-14.218-2.7539-18.61,8.4783-19.969,14.812v102.91h101.59c6.2012,1.2183,18.241,5.4891,15.406,20.125-3.7798,19.515-35.886,6.4998-22.656,34.688,7.6759,9.2069,20.979,14.275,34.094,15.969,0.20482,0.027,0.42031,0.069,0.625,0.094,4.612,0.9667,9.889,1.4565,15.5,1.25,15.199-0.5596,32.249-5.6533,41.344-16.563,13.229-28.188-18.908-15.173-22.688-34.688-3.7798-19.515,18.906-20.594,18.906-20.594l97.188-0.28125s-0.62501-98.25-0.625-98.25c0,0-1.0792-22.686-20.594-18.906-19.515,3.7798-6.4998,35.917-34.688,22.688-10.909-9.0951-16.003-26.144-16.562-41.344-0.20656-5.611,0.28329-10.888,1.25-15.5,0.0248-0.20469,0.0673-0.42019,0.0937-0.625,1.6939-13.114,6.7618-26.418,15.969-34.094,5.2852-2.4805,9.1258-3.3791,12-3.1562,12.455,0.96571,6.8319,22.741,22.688,25.812,18.208,3.5267,20.261-15.34,20.469-17.969v-98.406h-102.16c-6.4056-1.4819-16.964-5.9919-14.281-19.844,3.7798-19.515,35.886-6.4998,22.656-34.688-7.676-9.2069-20.979-14.275-34.094-15.969-0.20483-0.0265-0.42031-0.0689-0.625-0.0937-4.612-0.9667-9.889-1.4566-15.5-1.25z"/>
     <path id="path3568" d="m248.75,305.52c-15.199,0.55954-32.249,5.6533-41.344,16.562-13.229,28.188,18.908,15.173,22.688,34.688,3.7798,19.515-18.906,20.594-18.906,20.594h-97.75s0.125,96.938,0.125,96.938,1.0792,22.686,20.594,18.906c15.856-3.0711,10.233-24.878,22.688-25.844,2.8742-0.22286,6.7148,0.67576,12,3.1562,10.909,9.0951,16.003,26.144,16.562,41.344,0.20656,5.611-0.2833,10.888-1.25,15.5-0.0248,0.20469-0.0673,0.42017-0.0937,0.625-1.6939,13.114-6.7618,26.418-15.969,34.094-28.188,13.229-15.173-18.908-34.688-22.688-14.218-2.7539-18.61,8.4783-19.969,14.812v102.91h101.59c6.2012,1.2183,18.241,5.4891,15.406,20.125-3.7798,19.515-35.886,6.4998-22.656,34.688,7.6759,9.207,20.979,14.275,34.094,15.969,0.20482,0.0265,0.42031,0.0689,0.625,0.0937,4.612,0.96671,9.889,1.4566,15.5,1.25,15.199-0.55953,32.249-5.6533,41.344-16.562,13.229-28.188-18.908-15.173-22.688-34.688-3.7798-19.515,18.906-20.594,18.906-20.594l97.188-0.28125s-0.62501-98.25-0.625-98.25c0,0-1.0792-22.686-20.594-18.906-19.515,3.7798-6.4998,35.917-34.688,22.688-10.909-9.0951-16.003-26.144-16.562-41.344-0.20656-5.611,0.28329-10.888,1.25-15.5,0.0248-0.20469,0.0673-0.42019,0.0937-0.625,1.6939-13.114,6.7618-26.418,15.969-34.094,5.2852-2.4805,9.1258-3.3791,12-3.1562,12.455,0.96571,6.8319,22.741,22.688,25.812,18.208,3.5267,20.261-15.34,20.469-17.969v-98.406h-102.16c-6.4056-1.4819-16.964-5.9919-14.281-19.844,3.7798-19.515,35.886-6.4998,22.656-34.688-7.676-9.2069-20.979-14.275-34.094-15.969-0.20483-0.0265-0.42031-0.0689-0.625-0.0937-4.612-0.9667-9.889-1.4566-15.5-1.25z"/>
     <path id="path4296" d="m320.3,520.97c0.55954,15.199,5.6533,32.249,16.562,41.344,28.188,13.229,15.173-18.908,34.688-22.688,19.515-3.7798,20.594,18.906,20.594,18.906v97.75s96.938-0.125,96.938-0.125,22.686-1.0792,18.906-20.594c-3.0711-15.856-24.878-10.233-25.844-22.688-0.22286-2.8742,0.67576-6.7148,3.1562-12,9.0951-10.909,26.144-16.003,41.344-16.562,5.611-0.20656,10.888,0.2833,15.5,1.25,0.20469,0.0248,0.42017,0.0673,0.625,0.0937,13.114,1.6939,26.418,6.7618,34.094,15.969,13.229,28.188-18.908,15.173-22.688,34.688-2.7539,14.218,8.4783,18.61,14.812,19.969h102.91v-101.59c1.2183-6.2012,5.4891-18.241,20.125-15.406,19.515,3.7798,6.4998,35.886,34.688,22.656,9.207-7.6759,14.275-20.979,15.969-34.094,0.0265-0.20482,0.0689-0.42031,0.0937-0.625,0.96671-4.612,1.4566-9.889,1.25-15.5-0.55953-15.199-5.6533-32.249-16.562-41.344-28.188-13.229-15.173,18.908-34.688,22.688-19.515,3.7798-20.594-18.906-20.594-18.906l-0.28125-97.188s-98.25,0.62501-98.25,0.625c0,0-22.686,1.0792-18.906,20.594,3.7798,19.515,35.917,6.4998,22.688,34.688-9.0951,10.909-26.144,16.003-41.344,16.562-5.611,0.20656-10.888-0.28329-15.5-1.25-0.20469-0.0248-0.42019-0.0673-0.625-0.0937-13.114-1.6939-26.418-6.7618-34.094-15.969-2.4805-5.2852-3.3791-9.1258-3.1562-12,0.96571-12.455,22.741-6.8319,25.812-22.688,3.5267-18.208-15.34-20.261-17.969-20.469h-98.406v102.16c-1.4819,6.4056-5.9919,16.964-19.844,14.281-19.515-3.7798-6.4998-35.886-34.688-22.656-9.2069,7.676-14.275,20.979-15.969,34.094-0.0265,0.20483-0.0689,0.42031-0.0937,0.625-0.9667,4.612-1.4566,9.889-1.25,15.5z"/>
     <path id="path5024" d="m806.56,304.52c-15.199,0.55954-32.249,5.6533-41.344,16.562-13.229,28.188,18.908,15.173,22.688,34.688,3.78,19.52-18.91,20.6-18.91,20.6h-97.75s0.125,96.938,0.125,96.938,1.0792,22.686,20.594,18.906c15.856-3.0711,10.233-24.878,22.688-25.844,2.8742-0.22286,6.7148,0.67576,12,3.1562,10.909,9.0951,16.003,26.144,16.562,41.344,0.20656,5.611-0.2833,10.888-1.25,15.5-0.0248,0.20469-0.0673,0.42017-0.0937,0.625-1.6939,13.114-6.7618,26.418-15.969,34.094-28.188,13.229-15.173-18.908-34.688-22.688-14.218-2.7539-18.61,8.4783-19.969,14.812v102.91h101.59c6.2012,1.2183,18.241,5.4891,15.406,20.125-3.7798,19.515-35.886,6.4998-22.656,34.688,7.6759,9.207,20.979,14.275,34.094,15.969,0.20482,0.0265,0.42031,0.0689,0.625,0.0937,4.612,0.96671,9.889,1.4566,15.5,1.25,15.199-0.55953,32.249-5.6533,41.344-16.562,13.229-28.188-18.908-15.173-22.688-34.688-3.7798-19.515,18.906-20.594,18.906-20.594l97.188-0.28125s-0.62501-98.25-0.625-98.25c0,0-1.0792-22.686-20.594-18.906-19.515,3.7798-6.4998,35.917-34.688,22.688-10.909-9.0951-16.003-26.144-16.562-41.344-0.20656-5.611,0.28329-10.888,1.25-15.5,0.0248-0.20469,0.0673-0.42019,0.0937-0.625,1.6939-13.114,6.7618-26.418,15.969-34.094,5.2852-2.4805,9.1258-3.3791,12-3.1562,12.455,0.96571,6.8319,22.741,22.688,25.812,18.208,3.5267,20.261-15.34,20.469-17.969v-98.406h-102.16c-6.4056-1.4819-16.964-5.9919-14.281-19.844,3.7798-19.515,35.886-6.4998,22.656-34.688-7.676-9.2069-20.979-14.275-34.094-15.969-0.20483-0.0265-0.42031-0.0689-0.625-0.0937-4.612-0.9667-9.889-1.4566-15.5-1.25z"/>
     <path id="path5026" d="m598.98,801.79c0.55954,15.199,5.6533,32.249,16.562,41.344,28.188,13.229,15.173-18.908,34.688-22.688,19.515-3.7798,20.594,18.906,20.594,18.906v97.75s96.938-0.125,96.938-0.125,22.686-1.0792,18.906-20.594c-3.0711-15.856-24.878-10.233-25.844-22.688-0.22286-2.8742,0.67576-6.7148,3.1562-12,9.0951-10.909,26.144-16.003,41.344-16.562,5.611-0.20656,10.888,0.2833,15.5,1.25,0.20469,0.0248,0.42017,0.0673,0.625,0.0937,13.114,1.6939,26.418,6.7618,34.094,15.969,13.229,28.188-18.908,15.173-22.688,34.688-2.7539,14.218,8.4783,18.61,14.812,19.969h102.91v-101.59c1.2183-6.2012,5.4891-18.241,20.125-15.406,19.515,3.7798,6.4998,35.886,34.687,22.656,9.207-7.6759,14.275-20.979,15.969-34.094,0.026-0.20482,0.069-0.42031,0.094-0.625,0.9667-4.612,1.4566-9.889,1.25-15.5-0.5595-15.199-5.6533-32.249-16.562-41.344-28.188-13.229-15.173,18.908-34.687,22.688-19.515,3.7798-20.594-18.906-20.594-18.906l-0.28125-97.188s-98.25,0.62501-98.25,0.625c0,0-22.686,1.0792-18.906,20.594,3.7798,19.515,35.917,6.4998,22.688,34.688-9.0951,10.909-26.144,16.003-41.344,16.562-5.611,0.20656-10.888-0.28329-15.5-1.25-0.20469-0.0248-0.42019-0.0673-0.625-0.0937-13.114-1.6939-26.418-6.7618-34.094-15.969-2.4805-5.2852-3.3791-9.1258-3.1562-12,0.96571-12.455,22.741-6.8319,25.812-22.688,3.5267-18.208-15.34-20.261-17.969-20.469h-98.406v102.16c-1.4819,6.4056-5.9919,16.964-19.844,14.281-19.515-3.7798-6.4998-35.886-34.688-22.656-9.2069,7.676-14.275,20.979-15.969,34.094-0.0265,0.20483-0.0689,0.42031-0.0937,0.625-0.9667,4.612-1.4566,9.889-1.25,15.5z"/>
     <path id="path5028" d="m248.75,864.52c-15.199,0.55954-32.249,5.6533-41.344,16.562-13.229,28.188,18.908,15.173,22.688,34.688,3.7798,19.515-18.906,20.594-18.906,20.594h-97.75s0.125,96.938,0.125,96.938,1.0792,22.686,20.594,18.906c15.856-3.0711,10.233-24.878,22.688-25.844,2.8742-0.2229,6.7148,0.6757,12,3.1562,10.909,9.0951,16.003,26.144,16.562,41.344,0.20656,5.6109-0.2833,10.888-1.25,15.5-0.0248,0.2047-0.0673,0.4201-0.0937,0.625-1.6939,13.114-6.7618,26.418-15.969,34.094-28.188,13.229-15.173-18.908-34.688-22.688-14.218-2.7539-18.61,8.4784-19.969,14.812v102.91h101.59c6.2012,1.2182,18.241,5.489,15.406,20.125-3.7798,19.515-35.886,6.4997-22.656,34.688,7.6759,9.2069,20.979,14.275,34.094,15.969,0.20482,0.026,0.42031,0.069,0.625,0.094,4.612,0.9667,9.889,1.4565,15.5,1.25,15.199-0.5596,32.249-5.6533,41.344-16.562,13.229-28.188-18.908-15.173-22.688-34.688-3.7798-19.515,18.906-20.594,18.906-20.594l97.188-0.2812s-0.62501-98.25-0.625-98.25c0,0-1.0792-22.686-20.594-18.906-19.515,3.7798-6.4998,35.917-34.688,22.688-10.909-9.0951-16.003-26.144-16.562-41.344-0.20656-5.611,0.28329-10.888,1.25-15.5,0.0248-0.2047,0.0673-0.4202,0.0937-0.625,1.6939-13.114,6.7618-26.418,15.969-34.094,5.2852-2.4805,9.1258-3.3791,12-3.1562,12.455,0.9657,6.8319,22.741,22.688,25.812,18.208,3.5267,20.261-15.34,20.469-17.969v-98.406h-102.16c-6.4056-1.4819-16.964-5.9919-14.281-19.844,3.7798-19.515,35.886-6.4998,22.656-34.688-7.676-9.2069-20.979-14.275-34.094-15.969-0.20483-0.0265-0.42031-0.0689-0.625-0.0937-4.612-0.9667-9.889-1.4566-15.5-1.25z"/>
     <path id="path5030" d="m318.3,1081c0.55954,15.199,5.6533,32.249,16.562,41.344,28.188,13.229,15.173-18.908,34.688-22.688,19.515-3.7798,20.594,18.906,20.594,18.906v97.75s96.938-0.125,96.938-0.125,22.686-1.0792,18.906-20.594c-3.0711-15.856-24.878-10.233-25.844-22.688-0.22286-2.8742,0.67576-6.7148,3.1562-12,9.0951-10.909,26.144-16.003,41.344-16.562,5.611-0.2065,10.888,0.2833,15.5,1.25,0.20469,0.025,0.42017,0.067,0.625,0.094,13.114,1.6939,26.418,6.7618,34.094,15.969,13.229,28.188-18.908,15.173-22.688,34.688-2.7539,14.218,8.4783,18.61,14.812,19.969h102.91v-101.59c1.2183-6.2012,5.4891-18.241,20.125-15.406,19.515,3.7798,6.4998,35.886,34.688,22.656,9.207-7.6759,14.275-20.979,15.969-34.094,0.0265-0.2049,0.0689-0.4203,0.0937-0.625,0.96671-4.6121,1.4566-9.8891,1.25-15.5-0.55953-15.2-5.6533-32.249-16.562-41.344-28.188-13.229-15.173,18.908-34.688,22.688-19.515,3.7798-20.594-18.906-20.594-18.906l-0.28125-97.188s-98.25,0.62501-98.25,0.625c0,0-22.686,1.0792-18.906,20.594,3.7798,19.515,35.917,6.4998,22.688,34.688-9.0951,10.909-26.144,16.003-41.344,16.562-5.611,0.2066-10.888-0.2833-15.5-1.25-0.20469-0.025-0.42019-0.067-0.625-0.094-13.114-1.6939-26.418-6.7618-34.094-15.969-2.4805-5.2852-3.3791-9.1258-3.1562-12,0.96571-12.455,22.741-6.8319,25.812-22.688,3.5267-18.208-15.34-20.261-17.969-20.469h-98.406v102.16c-1.4819,6.4056-5.9919,16.964-19.844,14.281-19.515-3.7798-6.4998-35.886-34.688-22.656-9.2069,7.676-14.275,20.979-15.969,34.094-0.0265,0.2048-0.0689,0.4203-0.0937,0.625-0.9667,4.612-1.4566,9.889-1.25,15.5z"/>
     <path id="path5032" d="m806.56,864.83c-15.199,0.55954-32.249,5.6533-41.344,16.562-13.229,28.188,18.908,15.173,22.688,34.688,3.78,19.52-18.91,20.6-18.91,20.6h-97.75s0.125,96.937,0.125,96.937,1.0792,22.686,20.594,18.906c15.856-3.0711,10.233-24.878,22.688-25.844,2.8742-0.2228,6.7148,0.6758,12,3.1563,10.909,9.0951,16.003,26.144,16.562,41.344,0.20656,5.611-0.2833,10.888-1.25,15.5-0.0248,0.2047-0.0673,0.4202-0.0937,0.625-1.6939,13.114-6.7618,26.418-15.969,34.094-28.188,13.229-15.173-18.908-34.688-22.688-14.218-2.754-18.61,8.4783-19.969,14.812v102.91h101.59c6.2012,1.2183,18.241,5.4891,15.406,20.125-3.7798,19.515-35.886,6.4998-22.656,34.688,7.6759,9.207,20.979,14.275,34.094,15.969,0.20482,0.026,0.42031,0.069,0.625,0.094,4.612,0.9667,9.889,1.4566,15.5,1.25,15.199-0.5595,32.249-5.6533,41.344-16.562,13.229-28.188-18.908-15.173-22.688-34.688-3.7798-19.515,18.906-20.594,18.906-20.594l97.188-0.2813s-0.62501-98.25-0.625-98.25c0,0-1.0792-22.686-20.594-18.906-19.515,3.7798-6.4998,35.917-34.688,22.688-10.909-9.0952-16.003-26.144-16.562-41.344-0.20656-5.6109,0.28329-10.888,1.25-15.5,0.0248-0.2047,0.0673-0.4202,0.0937-0.625,1.6939-13.114,6.7618-26.418,15.969-34.094,5.2852-2.4805,9.1258-3.3791,12-3.1563,12.455,0.9657,6.8319,22.741,22.688,25.812,18.208,3.5267,20.261-15.34,20.469-17.969v-98.406h-102.16c-6.4056-1.4819-16.964-5.9919-14.281-19.844,3.7798-19.515,35.886-6.4998,22.656-34.688-7.676-9.2069-20.979-14.275-34.094-15.969-0.20483-0.0265-0.42031-0.0689-0.625-0.0937-4.612-0.9667-9.889-1.4566-15.5-1.25z"/>
     <path id="path5034" d="m527.56,25.834c-15.199,0.55954-32.249,5.6533-41.344,16.562-13.229,28.188,18.908,15.173,22.688,34.688,3.78,19.514-18.91,20.593-18.91,20.593h-97.75s0.125,96.938,0.125,96.938,1.0792,22.686,20.594,18.906c15.856-3.0711,10.233-24.878,22.688-25.844,2.8742-0.22286,6.7148,0.67576,12,3.1562,10.909,9.0951,16.003,26.144,16.562,41.344,0.20656,5.611-0.2833,10.888-1.25,15.5-0.0248,0.20469-0.0673,0.42017-0.0937,0.625-1.6939,13.114-6.7618,26.418-15.969,34.094-28.188,13.229-15.173-18.908-34.688-22.688-14.218-2.7539-18.61,8.4783-19.969,14.812v102.91h101.59c6.2012,1.2183,18.241,5.4891,15.406,20.125-3.7798,19.515-35.886,6.4998-22.656,34.688,7.6759,9.207,20.979,14.275,34.094,15.969,0.20482,0.0265,0.42031,0.0689,0.625,0.0937,4.612,0.96671,9.889,1.4566,15.5,1.25,15.199-0.55953,32.249-5.6533,41.344-16.562,13.229-28.188-18.908-15.173-22.688-34.688-3.7798-19.515,18.906-20.594,18.906-20.594l97.188-0.28125s-0.62501-98.25-0.625-98.25c0,0-1.0792-22.686-20.594-18.906-19.515,3.7798-6.4998,35.917-34.688,22.688-10.909-9.0951-16.003-26.144-16.562-41.344-0.20656-5.611,0.28329-10.888,1.25-15.5,0.0248-0.20469,0.0673-0.42019,0.0937-0.625,1.6939-13.114,6.7618-26.418,15.969-34.094,5.2852-2.4805,9.1258-3.3791,12-3.1562,12.455,0.96571,6.8319,22.741,22.688,25.812,18.208,3.5267,20.261-15.34,20.469-17.969v-98.406h-102.16c-6.4056-1.4819-16.964-5.9919-14.281-19.844,3.7798-19.515,35.886-6.4998,22.656-34.688-7.676-9.2069-20.979-14.275-34.094-15.969-0.20483-0.02646-0.42031-0.06894-0.625-0.09375-4.612-0.9667-9.889-1.4566-15.5-1.25z"/>
     <path id="path5036" d="m41.985,241.97c0.55954,15.199,5.6533,32.249,16.562,41.344,28.188,13.229,15.173-18.908,34.688-22.688,19.515-3.7798,20.594,18.906,20.594,18.906v97.75s96.938-0.125,96.938-0.125,22.686-1.0792,18.906-20.594c-3.0711-15.856-24.878-10.233-25.844-22.688-0.22286-2.8742,0.67576-6.7148,3.1562-12,9.0951-10.909,26.144-16.003,41.344-16.562,5.611-0.20656,10.888,0.2833,15.5,1.25,0.20469,0.0248,0.42017,0.0673,0.625,0.0937,13.114,1.6939,26.418,6.7618,34.094,15.969,13.229,28.188-18.908,15.173-22.688,34.688-2.7539,14.218,8.4783,18.61,14.812,19.969h102.91v-101.59c1.2183-6.2012,5.4891-18.241,20.125-15.406,19.515,3.7798,6.4998,35.886,34.688,22.656,9.207-7.6759,14.275-20.979,15.969-34.094,0.0265-0.20482,0.0689-0.42031,0.0937-0.625,0.96671-4.612,1.4566-9.889,1.25-15.5-0.55953-15.199-5.6533-32.249-16.562-41.344-28.188-13.229-15.173,18.908-34.688,22.688-19.515,3.7798-20.594-18.906-20.594-18.906l-0.28125-97.188s-98.25,0.62501-98.25,0.625c0,0-22.686,1.0792-18.906,20.594,3.7798,19.515,35.917,6.4998,22.688,34.688-9.0951,10.909-26.144,16.003-41.344,16.562-5.611,0.20656-10.888-0.28329-15.5-1.25-0.20469-0.0248-0.42019-0.0673-0.625-0.0937-13.114-1.6939-26.418-6.7618-34.094-15.969-2.4805-5.2852-3.3791-9.1258-3.1562-12,0.96571-12.455,22.741-6.8319,25.812-22.688,3.5267-18.208-15.34-20.261-17.969-20.469h-98.406v102.16c-1.4819,6.4056-5.9919,16.964-19.844,14.281-19.515-3.7798-6.4998-35.886-34.688-22.656-9.2069,7.676-14.275,20.979-15.969,34.094-0.02646,0.20483-0.06894,0.42031-0.09375,0.625-0.9667,4.612-1.4566,9.889-1.25,15.5z"/>
     <path id="path5038" d="m598.98,240.97c0.55954,15.199,5.6533,32.249,16.562,41.344,28.188,13.229,15.173-18.908,34.688-22.688,19.515-3.7798,20.594,18.906,20.594,18.906v97.75s96.938-0.125,96.938-0.125,22.686-1.0792,18.906-20.594c-3.0711-15.856-24.878-10.233-25.844-22.688-0.22286-2.8742,0.67576-6.7148,3.1562-12,9.0951-10.909,26.144-16.003,41.344-16.562,5.611-0.20656,10.888,0.2833,15.5,1.25,0.20469,0.0248,0.42017,0.0673,0.625,0.0937,13.114,1.6939,26.418,6.7618,34.094,15.969,13.229,28.188-18.908,15.173-22.688,34.688-2.7539,14.218,8.4783,18.61,14.812,19.969h102.91v-101.59c1.2183-6.2012,5.4891-18.241,20.125-15.406,19.515,3.7798,6.4998,35.886,34.687,22.656,9.207-7.6759,14.275-20.979,15.969-34.094,0.026-0.20482,0.069-0.42031,0.094-0.625,0.9667-4.612,1.4566-9.889,1.25-15.5-0.5595-15.199-5.6533-32.249-16.562-41.344-28.188-13.229-15.173,18.908-34.687,22.688-19.515,3.7798-20.594-18.906-20.594-18.906l-0.28125-97.188s-98.25,0.62501-98.25,0.625c0,0-22.686,1.0792-18.906,20.594,3.7798,19.515,35.917,6.4998,22.688,34.688-9.0951,10.909-26.144,16.003-41.344,16.562-5.611,0.20656-10.888-0.28329-15.5-1.25-0.20469-0.0248-0.42019-0.0673-0.625-0.0937-13.114-1.6939-26.418-6.7618-34.094-15.969-2.4805-5.2852-3.3791-9.1258-3.1562-12,0.96571-12.455,22.741-6.8319,25.812-22.688,3.5267-18.208-15.34-20.261-17.969-20.469h-98.406v102.16c-1.4819,6.4056-5.9919,16.964-19.844,14.281-19.515-3.7798-6.4998-35.886-34.688-22.656-9.2069,7.676-14.275,20.979-15.969,34.094-0.0265,0.20483-0.0689,0.42031-0.0937,0.625-0.9667,4.612-1.4566,9.889-1.25,15.5z"/>
     <path id="path5040" d="m527.31,1144c-15.199,0.5595-32.249,5.6533-41.344,16.562-13.229,28.188,18.908,15.173,22.688,34.688,3.7798,19.515-18.906,20.594-18.906,20.594h-97.75s0.125,96.938,0.125,96.938,1.0792,22.686,20.594,18.906c15.856-3.0711,10.233-24.878,22.688-25.844,2.8742-0.2228,6.7148,0.6758,12,3.1563,10.909,9.0951,16.003,26.144,16.562,41.344,0.20656,5.611-0.2833,10.888-1.25,15.5-0.0248,0.2047-0.0673,0.4202-0.0937,0.625-1.6939,13.114-6.7618,26.418-15.969,34.094-28.188,13.229-15.173-18.908-34.688-22.688-14.218-2.754-18.61,8.4783-19.969,14.812v102.91h101.59c6.2012,1.2183,18.241,5.4891,15.406,20.125-3.7798,19.515-35.886,6.4998-22.656,34.688,7.6759,9.207,20.979,14.275,34.094,15.969,0.20482,0.026,0.42031,0.069,0.625,0.094,4.612,0.9667,9.889,1.4566,15.5,1.25,15.199-0.5595,32.249-5.6533,41.344-16.562,13.229-28.188-18.908-15.173-22.688-34.688-3.7798-19.515,18.906-20.594,18.906-20.594l97.188-0.2813s-0.62501-98.25-0.625-98.25c0,0-1.0792-22.686-20.594-18.906-19.515,3.7798-6.4998,35.917-34.688,22.688-10.909-9.0952-16.003-26.144-16.562-41.344-0.20656-5.6109,0.28329-10.888,1.25-15.5,0.0248-0.2047,0.0673-0.4202,0.0937-0.625,1.6939-13.114,6.7618-26.418,15.969-34.094,5.2852-2.4805,9.1258-3.3791,12-3.1563,12.455,0.9657,6.8319,22.741,22.688,25.812,18.208,3.5267,20.261-15.34,20.469-17.969v-98.406h-102.16c-6.4056-1.4819-16.964-5.9919-14.281-19.844,3.7798-19.515,35.886-6.4998,22.656-34.688-7.676-9.207-20.979-14.275-34.094-15.969-0.20483-0.026-0.42031-0.069-0.625-0.094-4.612-0.9667-9.889-1.4566-15.5-1.25z"/>
     <path id="path5042" d="m40.985,1359.2c0.55954,15.199,5.6533,32.249,16.562,41.344,28.188,13.229,15.173-18.908,34.688-22.688,19.515-3.7798,20.594,18.906,20.594,18.906v97.75s96.938-0.125,96.938-0.125,22.686-1.0792,18.906-20.594c-3.0711-15.856-24.878-10.233-25.844-22.688-0.22286-2.8741,0.67576-6.7148,3.1562-12,9.0951-10.909,26.144-16.003,41.344-16.562,5.611-0.2065,10.888,0.2833,15.5,1.25,0.20469,0.025,0.42017,0.067,0.625,0.094,13.114,1.6939,26.418,6.7618,34.094,15.969,13.229,28.188-18.908,15.173-22.688,34.688-2.7539,14.218,8.4783,18.61,14.812,19.969h102.91v-101.59c1.2183-6.2012,5.4891-18.241,20.125-15.406,19.515,3.7798,6.4998,35.886,34.688,22.656,9.207-7.6759,14.275-20.979,15.969-34.094,0.0265-0.2048,0.0689-0.4203,0.0937-0.625,0.96671-4.6121,1.4566-9.8891,1.25-15.5-0.55953-15.2-5.6533-32.249-16.562-41.344-28.188-13.229-15.173,18.908-34.688,22.688-19.515,3.7798-20.594-18.906-20.594-18.906l-0.28125-97.188s-98.25,0.625-98.25,0.625-22.686,1.0791-18.906,20.594c3.7798,19.515,35.917,6.4998,22.688,34.688-9.0951,10.909-26.144,16.003-41.344,16.562-5.611,0.2066-10.888-0.2833-15.5-1.25-0.20469-0.025-0.42019-0.067-0.625-0.094-13.114-1.6939-26.418-6.7618-34.094-15.969-2.4805-5.2852-3.3791-9.1258-3.1562-12,0.96571-12.455,22.741-6.8319,25.812-22.688,3.5267-18.208-15.34-20.261-17.969-20.469h-98.406v102.16c-1.4819,6.4056-5.9919,16.964-19.844,14.281-19.515-3.7798-6.4998-35.886-34.688-22.656-9.2069,7.676-14.275,20.979-15.969,34.094-0.02646,0.2048-0.06894,0.4203-0.09375,0.625-0.9667,4.612-1.4566,9.889-1.25,15.5z"/>
     <path id="path5044" d="m1022.7,1350c-0.5595-15.199-5.6533-32.249-16.562-41.344-28.188-13.229-15.173,18.908-34.687,22.688-19.515,3.7798-20.594-18.906-20.594-18.906v-97.75s-96.937,0.125-96.937,0.125-22.686,1.0792-18.906,20.594c3.0711,15.856,24.878,10.233,25.844,22.688,0.2229,2.8742-0.6757,6.7148-3.1562,12-9.0951,10.909-26.144,16.003-41.344,16.562-5.6109,0.2066-10.888-0.2833-15.5-1.25-0.2047-0.025-0.4201-0.067-0.625-0.094-13.114-1.6939-26.418-6.7618-34.094-15.969-13.229-28.188,18.908-15.173,22.688-34.688,2.7539-14.218-8.4784-18.61-14.812-19.969h-102.91v101.59c-1.2182,6.2012-5.489,18.241-20.125,15.406-19.515-3.7797-6.4997-35.886-34.688-22.656-9.2069,7.6759-14.275,20.979-15.969,34.094-0.0265,0.2049-0.069,0.4204-0.0938,0.625-0.9667,4.6121-1.4565,9.8891-1.25,15.5,0.5596,15.2,5.6533,32.249,16.562,41.344,28.188,13.229,15.173-18.908,34.688-22.688,19.515-3.7798,20.594,18.906,20.594,18.906l0.2812,97.188s98.25-0.625,98.25-0.625,22.686-1.0791,18.906-20.594c-3.7798-19.515-35.917-6.4999-22.688-34.688,9.0951-10.909,26.144-16.003,41.344-16.562,5.611-0.2066,10.888,0.2833,15.5,1.25,0.2047,0.025,0.4202,0.067,0.625,0.094,13.114,1.694,26.418,6.7618,34.094,15.969,2.4805,5.2852,3.3791,9.1258,3.1562,12-0.9657,12.455-22.741,6.8318-25.812,22.688-3.5267,18.208,15.34,20.261,17.969,20.469h98.406v-102.16c1.482-6.4056,5.9919-16.964,19.844-14.281,19.515,3.7798,6.4997,35.886,34.687,22.656,9.2069-7.6759,14.275-20.979,15.969-34.094,0.026-0.2048,0.069-0.4203,0.094-0.625,0.9667-4.612,1.4565-9.889,1.25-15.5z"/>
     <path id="path5046" d="m1085.3,1140.7c-15.199,0.5595-32.249,5.6533-41.344,16.562-13.229,28.188,18.908,15.173,22.687,34.688,3.7798,19.515-18.906,20.594-18.906,20.594h-97.75s0.125,96.938,0.125,96.938,1.0792,22.686,20.594,18.906c15.856-3.0711,10.233-24.878,22.688-25.844,2.8742-0.2228,6.7148,0.6758,12,3.1563,10.909,9.0951,16.003,26.144,16.563,41.344,0.2065,5.611-0.2834,10.888-1.25,15.5-0.025,0.2047-0.067,0.4202-0.094,0.625-1.6939,13.114-6.7618,26.418-15.969,34.094-28.188,13.229-15.173-18.908-34.687-22.688-14.218-2.754-18.61,8.4783-19.969,14.812v102.91h101.59c6.2012,1.2183,18.241,5.4891,15.406,20.125-3.7798,19.515-35.886,6.4998-22.656,34.688,7.6759,9.207,20.979,14.275,34.094,15.969,0.2048,0.026,0.4203,0.069,0.625,0.094,4.612,0.9667,9.889,1.4566,15.5,1.25,15.199-0.5595,32.249-5.6533,41.344-16.562,13.229-28.188-18.908-15.173-22.687-34.688-3.7799-19.515,18.906-20.594,18.906-20.594l97.188-0.2813s-0.625-98.25-0.625-98.25-1.0792-22.686-20.594-18.906c-19.515,3.7798-6.4998,35.917-34.688,22.688-10.909-9.0952-16.003-26.144-16.562-41.344-0.2066-5.6109,0.2832-10.888,1.25-15.5,0.025-0.2047,0.067-0.4202,0.094-0.625,1.6939-13.114,6.7618-26.418,15.969-34.094,5.2853-2.4805,9.1259-3.3791,12-3.1563,12.455,0.9657,6.8319,22.741,22.688,25.812,18.208,3.5267,20.261-15.34,20.469-17.969v-98.406h-102.16c-6.4055-1.4819-16.964-5.9919-14.281-19.844,3.7798-19.515,35.886-6.4998,22.656-34.688-7.6759-9.207-20.979-14.275-34.094-15.969-0.2048-0.026-0.4203-0.069-0.625-0.094-4.612-0.9667-9.889-1.4566-15.5-1.25z"/>
     <path id="path5048" d="m878.3,521.97c0.5595,15.199,5.6533,32.249,16.562,41.344,28.188,13.229,15.173-18.908,34.688-22.688,19.515-3.7798,20.594,18.906,20.594,18.906v97.75s96.937-0.125,96.937-0.125,22.686-1.0792,18.906-20.594c-3.0711-15.856-24.878-10.233-25.844-22.688-0.2229-2.8741,0.6757-6.7148,3.1562-12,9.0951-10.909,26.144-16.003,41.344-16.562,5.6109-0.2065,10.888,0.2833,15.5,1.25,0.2046,0.0248,0.4201,0.0673,0.625,0.0938,13.114,1.6939,26.418,6.7618,34.094,15.969,13.229,28.188-18.908,15.173-22.688,34.688-2.7539,14.218,8.4783,18.61,14.812,19.969h102.91v-101.59c1.2182-6.2012,5.489-18.241,20.125-15.406,19.515,3.7798,6.4997,35.886,34.688,22.656,9.2069-7.6759,14.275-20.979,15.969-34.094,0.026-0.2048,0.069-0.4203,0.094-0.625,0.9667-4.6121,1.4565-9.8891,1.25-15.5-0.5596-15.2-5.6533-32.249-16.562-41.344-28.188-13.229-15.173,18.908-34.688,22.688-19.515,3.7798-20.594-18.906-20.594-18.906l-0.2812-97.188s-98.25,0.625-98.25,0.625-22.686,1.0791-18.906,20.594c3.7798,19.515,35.917,6.4998,22.688,34.688-9.0951,10.909-26.144,16.003-41.344,16.562-5.611,0.2066-10.888-0.2833-15.5-1.25-0.2047-0.0248-0.4202-0.0673-0.625-0.0937-13.114-1.6939-26.418-6.7618-34.094-15.969-2.4805-5.2852-3.3791-9.1258-3.1562-12,0.9657-12.455,22.741-6.8319,25.812-22.688,3.5267-18.208-15.34-20.261-17.969-20.469h-98.406v102.16c-1.482,6.4056-5.9919,16.964-19.844,14.281-19.515-3.7798-6.4998-35.886-34.688-22.656-9.2069,7.676-14.275,20.979-15.969,34.094-0.0264,0.2048-0.0689,0.4203-0.0937,0.625-0.9667,4.612-1.4566,9.889-1.25,15.5z"/>
     <path id="path5050" d="m877.98,1639.7c0.5596,15.199,5.6534,32.249,16.562,41.344,28.188,13.229,15.173-18.908,34.688-22.688,19.515-3.7798,20.594,18.906,20.594,18.906v97.75s96.938-0.125,96.938-0.125,22.686-1.0792,18.906-20.594c-3.0711-15.856-24.878-10.233-25.844-22.688-0.2228-2.8741,0.6758-6.7148,3.1563-12,9.0951-10.909,26.144-16.003,41.344-16.562,5.611-0.2065,10.888,0.2833,15.5,1.25,0.2047,0.025,0.4202,0.067,0.625,0.094,13.114,1.6939,26.418,6.7618,34.094,15.969,13.229,28.188-18.908,15.173-22.688,34.688-2.754,14.218,8.4783,18.61,14.812,19.969h102.91v-101.59c1.2183-6.2012,5.4891-18.241,20.125-15.406,19.515,3.7798,6.4998,35.886,34.688,22.656,9.207-7.6759,14.275-20.979,15.969-34.094,0.026-0.2048,0.069-0.4203,0.094-0.625,0.9667-4.6121,1.4566-9.8891,1.25-15.5-0.5595-15.2-5.6533-32.249-16.562-41.344-28.188-13.229-15.173,18.908-34.688,22.688-19.515,3.7798-20.594-18.906-20.594-18.906l-0.2813-97.188s-98.25,0.625-98.25,0.625-22.686,1.0791-18.906,20.594c3.7797,19.515,35.917,6.4998,22.688,34.688-9.0952,10.909-26.144,16.003-41.344,16.562-5.6109,0.2066-10.888-0.2833-15.5-1.25-0.2047-0.025-0.4202-0.067-0.625-0.094-13.114-1.6939-26.418-6.7618-34.094-15.969-2.4805-5.2852-3.3791-9.1258-3.1563-12,0.9657-12.455,22.741-6.8319,25.812-22.688,3.5267-18.208-15.34-20.261-17.969-20.469h-98.406v102.16c-1.4819,6.4056-5.9919,16.964-19.844,14.281-19.514-3.7798-6.4997-35.886-34.688-22.656-9.2069,7.676-14.275,20.979-15.969,34.094-0.0265,0.2048-0.0689,0.4203-0.0938,0.625-0.9667,4.612-1.4565,9.889-1.25,15.5z"/>
     <path id="path5052" d="m880.98,1078.4c0.55954,15.199,5.6533,32.249,16.562,41.344,28.188,13.229,15.173-18.908,34.688-22.688,19.515-3.7798,20.594,18.906,20.594,18.906v97.75s96.938-0.125,96.937-0.125c0,0,22.686-1.0792,18.906-20.594-3.0711-15.856-24.878-10.233-25.844-22.688-0.2228-2.8742,0.6758-6.7148,3.1563-12,9.0951-10.909,26.144-16.003,41.344-16.562,5.611-0.2065,10.888,0.2833,15.5,1.25,0.2047,0.025,0.4202,0.067,0.625,0.094,13.114,1.6939,26.418,6.7618,34.094,15.969,13.229,28.188-18.908,15.173-22.688,34.688-2.754,14.218,8.4783,18.61,14.812,19.969h102.91v-101.59c1.2183-6.2012,5.4891-18.241,20.125-15.406,19.515,3.7798,6.4998,35.886,34.688,22.656,9.207-7.6759,14.275-20.979,15.969-34.094,0.026-0.2049,0.069-0.4203,0.094-0.625,0.9667-4.6121,1.4566-9.8891,1.25-15.5-0.5595-15.2-5.6533-32.249-16.562-41.344-28.188-13.229-15.173,18.908-34.688,22.688-19.515,3.7798-20.594-18.906-20.594-18.906l-0.2813-97.188s-98.25,0.62501-98.25,0.625c0,0-22.686,1.0792-18.906,20.594,3.7797,19.515,35.917,6.4998,22.688,34.688-9.0952,10.909-26.144,16.003-41.344,16.563-5.6109,0.2066-10.888-0.2833-15.5-1.25-0.2047-0.025-0.4202-0.067-0.625-0.094-13.114-1.6939-26.418-6.7618-34.094-15.969-2.4805-5.2852-3.3791-9.1258-3.1563-12,0.9658-12.455,22.742-6.8319,25.812-22.688,3.5267-18.208-15.34-20.261-17.969-20.469h-98.406v102.16c-1.4819,6.4056-5.9919,16.964-19.844,14.281-19.515-3.7798-6.4998-35.886-34.688-22.656-9.2069,7.676-14.275,20.979-15.969,34.094-0.0265,0.2048-0.0689,0.4203-0.0937,0.625-0.9667,4.612-1.4566,9.889-1.25,15.5z"/>
     <path id="path5054" d="m1085.6,584.72c-15.199,0.55954-32.249,5.6533-41.344,16.562-13.229,28.188,18.908,15.173,22.687,34.688,3.7,19.52-19,20.6-19,20.6h-97.75s0.125,96.938,0.125,96.938,1.0792,22.686,20.594,18.906c15.856-3.0711,10.233-24.878,22.688-25.844,2.8742-0.22286,6.7148,0.67576,12,3.1562,10.909,9.0951,16.003,26.144,16.563,41.344,0.2065,5.611-0.2834,10.888-1.25,15.5-0.025,0.20469-0.067,0.42017-0.094,0.625-1.6939,13.114-6.7618,26.418-15.969,34.094-28.188,13.229-15.173-18.908-34.688-22.688-14.218-2.7539-18.61,8.4783-19.969,14.812v102.91h101.59c6.2012,1.2183,18.241,5.4891,15.406,20.125-3.7798,19.515-35.886,6.4998-22.656,34.687,7.6759,9.207,20.979,14.275,34.094,15.969,0.2048,0.027,0.4203,0.069,0.625,0.094,4.612,0.9667,9.889,1.4566,15.5,1.25,15.199-0.5595,32.249-5.6533,41.344-16.562,13.229-28.188-18.908-15.173-22.687-34.687-3.7799-19.515,18.906-20.594,18.906-20.594l97.188-0.28125s-0.625-98.25-0.625-98.25-1.0792-22.686-20.594-18.906c-19.515,3.7798-6.4998,35.917-34.688,22.688-10.909-9.0951-16.003-26.144-16.562-41.344-0.2066-5.611,0.2832-10.888,1.25-15.5,0.025-0.20469,0.067-0.42019,0.094-0.625,1.6939-13.114,6.7618-26.418,15.969-34.094,5.2853-2.4805,9.1259-3.3791,12-3.1562,12.455,0.96571,6.8319,22.741,22.688,25.812,18.208,3.5267,20.261-15.34,20.469-17.969v-98.406h-102.16c-6.4055-1.4819-16.964-5.9919-14.281-19.844,3.7798-19.515,35.886-6.4998,22.656-34.688-7.6759-9.2069-20.979-14.275-34.094-15.969-0.2048-0.0265-0.4203-0.0689-0.625-0.0937-4.612-0.9667-9.889-1.4566-15.5-1.25z"/>
     <path id="path5056" d="m1084.6,25.021c-15.199,0.55954-32.249,5.6533-41.344,16.562-13.229,28.188,18.908,15.173,22.688,34.688,3.7,19.515-19,20.594-19,20.594h-97.75s0.125,96.938,0.125,96.938,1.0792,22.686,20.594,18.906c15.856-3.0711,10.233-24.878,22.688-25.844,2.8742-0.22286,6.7148,0.67576,12,3.1562,10.909,9.0951,16.003,26.144,16.562,41.344,0.2066,5.611-0.2833,10.888-1.25,15.5-0.025,0.20469-0.067,0.42017-0.094,0.625-1.6939,13.114-6.7618,26.418-15.969,34.094-28.188,13.229-15.173-18.908-34.688-22.688-14.218-2.7539-18.61,8.4783-19.969,14.812v102.91h101.59c6.2013,1.2183,18.241,5.4891,15.406,20.125-3.7798,19.515-35.886,6.4998-22.656,34.688,7.676,9.207,20.979,14.275,34.094,15.969,0.2048,0.0265,0.4203,0.0689,0.625,0.0937,4.612,0.96671,9.889,1.4566,15.5,1.25,15.199-0.55953,32.249-5.6533,41.344-16.562,13.229-28.188-18.908-15.173-22.688-34.688-3.7798-19.515,18.906-20.594,18.906-20.594l97.188-0.28125s-0.625-98.25-0.625-98.25-1.0792-22.686-20.594-18.906c-19.514,3.7798-6.4997,35.917-34.687,22.688-10.909-9.0951-16.003-26.144-16.563-41.344-0.2065-5.611,0.2833-10.888,1.25-15.5,0.025-0.20469,0.067-0.42019,0.094-0.625,1.6939-13.114,6.7618-26.418,15.969-34.094,5.2852-2.4805,9.1258-3.3791,12-3.1562,12.455,0.96571,6.8318,22.741,22.687,25.812,18.208,3.5267,20.261-15.34,20.469-17.969v-98.406h-102.16c-6.4056-1.4819-16.964-5.9919-14.281-19.844,3.7798-19.515,35.886-6.4998,22.656-34.688-7.676-9.2069-20.979-14.275-34.094-15.969-0.2048-0.02646-0.4203-0.06894-0.625-0.09375-4.612-0.9667-9.889-1.4566-15.5-1.25z"/>
     <path id="path5058" d="m807.75,1424.7c-15.199,0.5595-32.249,5.6533-41.344,16.562-13.229,28.188,18.908,15.173,22.687,34.688,3.7798,19.515-18.906,20.594-18.906,20.594h-97.75s0.125,96.938,0.125,96.938,1.0792,22.686,20.594,18.906c15.856-3.0711,10.233-24.878,22.688-25.844,2.8742-0.2228,6.7148,0.6758,12,3.1563,10.909,9.0951,16.003,26.144,16.563,41.344,0.2065,5.611-0.2834,10.888-1.25,15.5-0.0249,0.2047-0.0673,0.4202-0.0938,0.625-1.6939,13.114-6.7618,26.418-15.969,34.094-28.188,13.229-15.173-18.908-34.687-22.688-14.218-2.754-18.61,8.4783-19.969,14.812v102.91h101.59c6.2012,1.2183,18.241,5.4891,15.406,20.125-3.7798,19.515-35.886,6.4998-22.656,34.688,7.6759,9.207,20.979,14.275,34.094,15.969,0.2048,0.026,0.4203,0.069,0.625,0.094,4.612,0.9667,9.889,1.4566,15.5,1.25,15.199-0.5595,32.249-5.6533,41.344-16.562,13.229-28.188-18.908-15.173-22.687-34.688-3.7799-19.515,18.906-20.594,18.906-20.594l97.188-0.2813s-0.625-98.25-0.625-98.25-1.0792-22.686-20.594-18.906c-19.515,3.7798-6.4998,35.917-34.688,22.688-10.909-9.0952-16.003-26.144-16.562-41.344-0.2066-5.6109,0.2832-10.888,1.25-15.5,0.0248-0.2047,0.0672-0.4202,0.0937-0.625,1.6939-13.114,6.7618-26.418,15.969-34.094,5.2853-2.4805,9.1259-3.3791,12-3.1563,12.455,0.9657,6.8319,22.741,22.688,25.812,18.208,3.5267,20.261-15.34,20.469-17.969v-98.406h-102.16c-6.4055-1.4819-16.964-5.9919-14.281-19.844,3.7798-19.515,35.886-6.4998,22.656-34.688-7.6759-9.207-20.979-14.275-34.094-15.969-0.2048-0.026-0.4203-0.069-0.625-0.094-4.612-0.9667-9.889-1.4566-15.5-1.25z"/>
     <path id="path5060" d="m321.98,1642c0.55954,15.199,5.6533,32.249,16.562,41.344,28.188,13.229,15.173-18.908,34.688-22.688,19.515-3.7798,20.594,18.906,20.594,18.906v97.75s96.938-0.125,96.937-0.125c0,0,22.686-1.0792,18.906-20.594-3.0711-15.856-24.878-10.233-25.844-22.688-0.2228-2.8742,0.6758-6.7148,3.1563-12,9.0951-10.909,26.144-16.003,41.344-16.562,5.611-0.2065,10.888,0.2833,15.5,1.25,0.2047,0.025,0.4202,0.067,0.625,0.094,13.114,1.6939,26.418,6.7618,34.094,15.969,13.229,28.188-18.908,15.173-22.688,34.688-2.754,14.218,8.4783,18.61,14.812,19.969h102.91v-101.59c1.2183-6.2012,5.4891-18.241,20.125-15.406,19.515,3.7798,6.4998,35.886,34.688,22.656,9.207-7.6759,14.275-20.979,15.969-34.094,0.0264-0.2049,0.0689-0.4203,0.0937-0.625,0.9667-4.6121,1.4566-9.8891,1.25-15.5-0.5595-15.2-5.6533-32.249-16.562-41.344-28.188-13.229-15.173,18.908-34.688,22.688-19.515,3.7798-20.594-18.906-20.594-18.906l-0.2813-97.188s-98.25,0.625-98.25,0.625-22.686,1.0792-18.906,20.594c3.7797,19.515,35.917,6.4998,22.688,34.688-9.0952,10.909-26.144,16.003-41.344,16.562-5.6109,0.2066-10.888-0.2833-15.5-1.25-0.2047-0.025-0.4202-0.067-0.625-0.094-13.114-1.6939-26.418-6.7618-34.094-15.969-2.4805-5.2852-3.3791-9.1258-3.1563-12,0.9658-12.455,22.742-6.8319,25.812-22.688,3.5267-18.208-15.34-20.261-17.969-20.469h-98.406v102.16c-1.4819,6.4056-5.9919,16.964-19.844,14.281-19.515-3.7798-6.4998-35.886-34.688-22.656-9.2069,7.676-14.275,20.979-15.969,34.094-0.0265,0.2048-0.0689,0.4203-0.0937,0.625-0.9667,4.612-1.4566,9.889-1.25,15.5z"/>
     <path id="path5062" d="m248.31,1425.7c-15.199,0.5596-32.249,5.6533-41.344,16.562-13.229,28.188,18.908,15.173,22.688,34.688,3.7798,19.515-18.906,20.594-18.906,20.594h-97.75s0.125,96.938,0.125,96.938,1.0792,22.686,20.594,18.906c15.856-3.0711,10.233-24.878,22.688-25.844,2.8742-0.2229,6.7148,0.6757,12,3.1562,10.909,9.0951,16.003,26.144,16.562,41.344,0.20656,5.6109-0.2833,10.888-1.25,15.5-0.0248,0.2047-0.0673,0.4201-0.0937,0.625-1.6939,13.114-6.7618,26.418-15.969,34.094-28.188,13.229-15.173-18.908-34.688-22.688-14.218-2.7539-18.61,8.4784-19.969,14.812v102.91h101.59c6.2012,1.2182,18.241,5.489,15.406,20.125-3.7798,19.515-35.886,6.4997-22.656,34.688,7.6759,9.2069,20.979,14.275,34.094,15.969,0.20482,0.026,0.42031,0.069,0.625,0.094,4.612,0.9667,9.889,1.4565,15.5,1.25,15.199-0.5596,32.249-5.6533,41.344-16.562,13.229-28.188-18.908-15.173-22.688-34.688-3.7798-19.515,18.906-20.594,18.906-20.594l97.188-0.2812s-0.62501-98.25-0.625-98.25c0,0-1.0792-22.686-20.594-18.906-19.515,3.7798-6.4998,35.917-34.688,22.688-10.909-9.0951-16.003-26.144-16.562-41.344-0.20656-5.611,0.28329-10.888,1.25-15.5,0.0248-0.2047,0.0673-0.4202,0.0937-0.625,1.6939-13.114,6.7618-26.418,15.969-34.094,5.2852-2.4805,9.1258-3.3791,12-3.1562,12.455,0.9657,6.8319,22.741,22.688,25.812,18.208,3.5267,20.261-15.34,20.469-17.969v-98.406h-102.16c-6.4056-1.482-16.964-5.9919-14.281-19.844,3.7798-19.515,35.886-6.4997,22.656-34.688-7.676-9.2069-20.979-14.275-34.094-15.969-0.20483-0.026-0.42031-0.069-0.625-0.094-4.612-0.9667-9.889-1.4565-15.5-1.25z"/>
     <path id="path5064" d="m528.75,1706c-15.199,0.5595-32.249,5.6533-41.344,16.562-13.229,28.188,18.908,15.173,22.687,34.688,3.7798,19.515-18.906,20.594-18.906,20.594h-97.75s0.125,96.938,0.125,96.938,1.0792,22.686,20.594,18.906c15.856-3.0711,10.233-24.878,22.688-25.844,2.8742-0.2228,6.7148,0.6758,12,3.1563,10.909,9.0951,16.003,26.144,16.563,41.344,0.2065,5.611-0.2834,10.888-1.25,15.5-0.0249,0.2047-0.0673,0.4202-0.0938,0.625-1.6939,13.114-6.7618,26.418-15.969,34.094-28.188,13.229-15.173-18.908-34.687-22.688-14.218-2.754-18.61,8.4783-19.969,14.812v102.91h101.59c6.2012,1.2183,18.241,5.4891,15.406,20.125-3.7798,19.515-35.886,6.4998-22.656,34.688,7.6759,9.207,20.979,14.275,34.094,15.969,0.2048,0.026,0.4203,0.069,0.625,0.094,4.612,0.9667,9.889,1.4566,15.5,1.25,15.199-0.5595,32.249-5.6533,41.344-16.562,13.229-28.188-18.908-15.173-22.687-34.688-3.7799-19.515,18.906-20.594,18.906-20.594l97.188-0.2813s-0.625-98.25-0.625-98.25-1.0792-22.686-20.594-18.906c-19.515,3.7798-6.4998,35.917-34.688,22.688-10.909-9.0952-16.003-26.144-16.562-41.344-0.2066-5.6109,0.2832-10.888,1.25-15.5,0.0248-0.2047,0.0672-0.4202,0.0937-0.625,1.6939-13.114,6.7618-26.418,15.969-34.094,5.2853-2.4805,9.1259-3.3791,12-3.1563,12.455,0.9657,6.8319,22.741,22.688,25.812,18.208,3.5267,20.261-15.34,20.469-17.969v-98.406h-102.16c-6.4055-1.4819-16.964-5.9919-14.281-19.844,3.7798-19.515,35.886-6.4998,22.656-34.688-7.6759-9.207-20.979-14.275-34.094-15.969-0.2048-0.027-0.4203-0.069-0.625-0.094-4.612-0.9667-9.889-1.4566-15.5-1.25z"/>
     <path id="path5066" d="m603,1922.4c0.5596,15.199,5.6534,32.249,16.562,41.344,28.188,13.229,15.173-18.908,34.688-22.688,19.515-3.7798,20.594,18.906,20.594,18.906v97.75s96.938-0.125,96.938-0.125,22.686-1.0792,18.906-20.594c-3.0711-15.856-24.878-10.233-25.844-22.688-0.2228-2.8741,0.6758-6.7148,3.1563-12,9.0951-10.909,26.144-16.003,41.344-16.562,5.611-0.2065,10.888,0.2833,15.5,1.25,0.2047,0.025,0.4202,0.067,0.625,0.094,13.114,1.6939,26.418,6.7618,34.094,15.969,13.229,28.188-18.908,15.173-22.688,34.688-2.754,14.218,8.4783,18.61,14.812,19.969h102.91v-101.59c1.2183-6.2012,5.4891-18.241,20.125-15.406,19.515,3.7798,6.4998,35.886,34.687,22.656,9.207-7.6759,14.275-20.979,15.969-34.094,0.026-0.2048,0.069-0.4203,0.094-0.625,0.9667-4.6121,1.4566-9.8891,1.25-15.5-0.5595-15.2-5.6533-32.249-16.562-41.344-28.188-13.229-15.173,18.908-34.687,22.688-19.515,3.7798-20.594-18.906-20.594-18.906l-0.2813-97.188s-98.25,0.625-98.25,0.625-22.686,1.0791-18.906,20.594c3.7797,19.515,35.917,6.4998,22.688,34.688-9.0952,10.909-26.144,16.003-41.344,16.562-5.6109,0.2066-10.888-0.2833-15.5-1.25-0.2047-0.025-0.4202-0.067-0.625-0.094-13.114-1.6939-26.418-6.7618-34.094-15.969-2.4805-5.2852-3.3791-9.1258-3.1563-12,0.9657-12.455,22.741-6.8319,25.812-22.688,3.5267-18.208-15.34-20.261-17.969-20.469h-98.406v102.16c-1.4819,6.4056-5.9919,16.964-19.844,14.281-19.514-3.7798-6.4997-35.886-34.688-22.656-9.2069,7.676-14.275,20.979-15.969,34.094-0.0265,0.2048-0.0689,0.4203-0.0938,0.625-0.9667,4.612-1.4565,9.889-1.25,15.5z"/>
     <path id="path5068" d="m1085.3,1706c-15.199,0.5595-32.249,5.6533-41.344,16.562-13.229,28.188,18.908,15.173,22.687,34.688,3.7798,19.515-18.906,20.594-18.906,20.594h-97.75s0.125,96.938,0.125,96.938,1.0792,22.686,20.594,18.906c15.856-3.0711,10.233-24.878,22.688-25.844,2.8742-0.2228,6.7148,0.6758,12,3.1563,10.909,9.0951,16.003,26.144,16.563,41.344,0.2065,5.611-0.2834,10.888-1.25,15.5-0.025,0.2047-0.067,0.4202-0.094,0.625-1.6939,13.114-6.7618,26.418-15.969,34.094-28.188,13.229-15.173-18.908-34.687-22.688-14.218-2.754-18.61,8.4783-19.969,14.812v102.91h101.59c6.2012,1.2183,18.241,5.4891,15.406,20.125-3.7798,19.515-35.886,6.4998-22.656,34.688,7.6759,9.207,20.979,14.275,34.094,15.969,0.2048,0.026,0.4203,0.069,0.625,0.094,4.612,0.9667,9.889,1.4566,15.5,1.25,15.199-0.5595,32.249-5.6533,41.344-16.562,13.229-28.188-18.908-15.173-22.687-34.688-3.7799-19.515,18.906-20.594,18.906-20.594l97.188-0.2813s-0.625-98.25-0.625-98.25-1.0792-22.686-20.594-18.906c-19.515,3.7798-6.4998,35.917-34.688,22.688-10.909-9.0952-16.003-26.144-16.562-41.344-0.2066-5.6109,0.2832-10.888,1.25-15.5,0.025-0.2047,0.067-0.4202,0.094-0.625,1.6939-13.114,6.7618-26.418,15.969-34.094,5.2853-2.4805,9.1259-3.3791,12-3.1563,12.455,0.9657,6.8319,22.741,22.688,25.812,18.208,3.5267,20.261-15.34,20.469-17.969v-98.406h-102.16c-6.4055-1.4819-16.964-5.9919-14.281-19.844,3.7798-19.515,35.886-6.4998,22.656-34.688-7.6759-9.207-20.979-14.275-34.094-15.969-0.2048-0.027-0.4203-0.069-0.625-0.094-4.612-0.9667-9.889-1.4566-15.5-1.25z"/>
     <path id="path5070" d="m41.297,1922.7c0.55954,15.199,5.6533,32.249,16.562,41.344,28.188,13.229,15.173-18.908,34.688-22.688,19.515-3.7798,20.594,18.906,20.594,18.906v97.75s96.938-0.125,96.937-0.125c0,0,22.686-1.0792,18.906-20.594-3.0711-15.856-24.878-10.233-25.844-22.688-0.2228-2.8742,0.6758-6.7148,3.1563-12,9.0951-10.909,26.144-16.003,41.344-16.562,5.611-0.2065,10.888,0.2833,15.5,1.25,0.2047,0.025,0.4202,0.067,0.625,0.094,13.114,1.6939,26.418,6.7618,34.094,15.969,13.229,28.188-18.908,15.173-22.688,34.688-2.754,14.218,8.4783,18.61,14.812,19.969h102.91v-101.59c1.2183-6.2012,5.4891-18.241,20.125-15.406,19.515,3.7798,6.4998,35.886,34.688,22.656,9.207-7.6759,14.275-20.979,15.969-34.094,0.0264-0.2049,0.0689-0.4203,0.0937-0.625,0.9667-4.6121,1.4566-9.8891,1.25-15.5-0.5595-15.2-5.6533-32.249-16.562-41.344-28.188-13.229-15.173,18.908-34.688,22.688-19.515,3.7798-20.594-18.906-20.594-18.906l-0.2813-97.188s-98.25,0.625-98.25,0.625-22.686,1.0792-18.906,20.594c3.7797,19.515,35.917,6.4998,22.688,34.688-9.0952,10.909-26.144,16.003-41.344,16.562-5.6109,0.2066-10.888-0.2833-15.5-1.25-0.2047-0.025-0.4202-0.067-0.625-0.094-13.114-1.6939-26.418-6.7618-34.094-15.969-2.4805-5.2852-3.3791-9.1258-3.1563-12,0.9658-12.455,22.742-6.8319,25.812-22.688,3.5267-18.208-15.34-20.261-17.969-20.469h-98.406v102.16c-1.4819,6.4056-5.9919,16.964-19.844,14.281-19.515-3.7798-6.4998-35.886-34.688-22.656-9.2069,7.676-14.275,20.979-15.969,34.094-0.02646,0.2048-0.06894,0.4203-0.09375,0.625-0.9667,4.612-1.4566,9.889-1.25,15.5z"/>
    </g>
    <path id="path4129" d="m441.15,353.92c-2.0634-0.31184-3.2388-0.9036-3.2388-1.6306,0-0.30041,0.28749-0.64816,0.63887-0.77277,2.1459-0.76102,2.682-3.4762,0.95469-4.835-0.87833-0.6909-1.4492-0.75663-6.5712-0.75663h-5.6093v-5.2204c0-4.9865,0.21136-6.0966,1.1608-6.0966,0.15655,0,0.61986,0.65712,1.0296,1.4603,0.65106,1.2762,0.90326,1.4603,2.0005,1.4603,2.3585,0,3.8406-2.7092,3.8406-7.0206,0-3.7225-2.4458-6.788-4.624-5.7955-0.48985,0.22319-1.0623,0.89819-1.2721,1.5-0.4145,1.189-1.5392,1.4928-1.9138,0.51677-0.12188-0.31761-0.2216-2.8639-0.2216-5.6585v-5.0811h5.6093c5.122,0,5.6928-0.0657,6.5712-0.75663,0.68204-0.53649,0.96028-1.0941,0.95631-1.9166-0.007-1.4581-0.25142-1.8219-1.7346-2.5818-1.0009-0.51284-1.1334-0.72174-0.82419-1.2994,0.83253-1.5556,5.8353-1.9231,7.8861-0.57933,1.0732,0.70316,1.1432,1.5265,0.15641,1.8397-1.2419,0.39416-1.8275,1.2735-1.8275,2.7441,0,2.3157,0.66259,2.5501,7.2095,2.5501h5.5868l-0.10077,5.5626c-0.0895,4.9392-0.17167,5.5763-0.73336,5.6841-0.4267,0.0819-0.83485-0.30274-1.2541-1.1819-0.34183-0.7168-0.87857-1.3222-1.1928-1.3453-2.1944-0.16148-3.4598,0.87504-4.2285,3.4637-0.78863,2.6556-0.67808,4.5564,0.38964,6.699,1.4398,2.8892,3.8282,3.2771,5.095,0.82739,0.37163-0.71866,0.81503-1.0931,1.2056-1.0182,0.54252,0.10413,0.63001,0.79285,0.71839,5.6554l0.10064,5.5368-5.6307,0.1171c-4.9706,0.10337-5.7227,0.20047-6.4155,0.82834-0.60356,0.547-0.75967,1.0517-0.67606,2.1854,0.0889,1.2059,0.32211,1.608,1.2811,2.2093,1.3874,0.86992,1.4991,1.4623,0.38772,2.0571-1.3137,0.70306-2.9041,0.92234-4.71,0.64941z" stroke="#ffffff" stroke-width="0.36506596" fill="#000000"/>
    <path id="path4131" d="m364.17,372.28c0-5.3044-0.0603-5.837-0.74435-6.5712-1.4154-1.5193-3.5818-0.98077-4.9923,1.2409-0.43016,0.67757-0.46445,0.67349-1.1665-0.13904-0.95913-1.1101-1.2947-3.5753-0.75925-5.5775,0.73326-2.7417,1.4623-3.1875,2.3633-1.4451,1.0324,1.9965,2.9991,2.3108,4.5782,0.73167,0.65778-0.65778,0.72085-1.2327,0.72085-6.5714v-5.8506l5.5672,0.10078c5.2649,0.0953,5.573,0.14074,5.6727,0.83677,0.0762,0.53165-0.20158,0.8519-1.0004,1.1534-2.1001,0.7927-2.1953,3.4082-0.17229,4.7337,1.3572,0.88923,4.9067,1.5593,6.5968,1.2453,1.6243-0.30176,3.4438-1.1828,4.1164-1.9932,0.25635-0.30888,0.49081-1.0884,0.52101-1.7323,0.045-0.95866-0.17648-1.3281-1.2228-2.0399-2.7407-1.8644-1.9067-2.273,4.6546-2.28l5.2022-0.006v5.6093c0,5.122,0.0657,5.6928,0.75663,6.5712,1.2535,1.5935,3.4856,1.1695,4.5359-0.86169,0.72692-1.4057,1.4418-1.1024,2.223,0.94316,0.69221,1.8125,0.53347,4.1924-0.40003,5.9976-0.71673,1.386-1.2708,1.3578-2.1921-0.11162-0.6068-0.96774-0.99911-1.1917-2.2474-1.283-2.4494-0.17911-2.676,0.43992-2.676,7.3106v5.7598h-5.0811c-2.7946,0-5.3409-0.0997-5.6585-0.22159-0.9633-0.36965-0.66456-1.4791,0.53169-1.9746,3.4246-1.4185,1.5702-4.9509-3.0576-5.8241-4.2083-0.79405-7.9083,0.92961-7.9083,3.6841,0,0.81793,0.31333,1.2392,1.4603,1.9632,0.80315,0.50701,1.4603,1.0881,1.4603,1.2914,0,0.76007-2.0147,1.0816-6.7775,1.0816h-4.9046v-5.7722z" stroke="#ffffff" stroke-width="0.36506596" fill="#000000"/>
    <path id="path4133" d="m521.88,403.84c0-5.122-0.0657-5.6928-0.75663-6.5712-1.3303-1.6912-3.9503-1.1857-4.6783,0.90262-0.34557,0.9913-0.47999,1.0841-0.97513,0.67316-2.0168-1.6738-2.1488-6.7624-0.22073-8.5073,0.62866-0.56893,0.7165-0.52549,1.5502,0.76667,0.71654,1.1106,1.1347,1.3907,2.2102,1.4806,1.0777,0.09,1.4712-0.0732,2.0985-0.87063,0.71-0.90263,0.772-1.4326,0.772-6.6002v-5.6188l5.5626,0.10078c4.7906,0.0868,5.5784,0.18299,5.6763,0.69308,0.0693,0.36135-0.39147,0.89034-1.1819,1.3567-1.0854,0.64037-1.2955,0.96841-1.2955,2.022,0,2.885,4.849,4.7069,9.2645,3.4808,1.9874-0.55183,3.1477-1.8168,3.1477-3.4318,0-1.1098-0.19522-1.4218-1.2955-2.071-0.79039-0.46634-1.2512-0.99533-1.1819-1.3567,0.0979-0.51009,0.88577-0.6063,5.6763-0.69308l5.5626-0.10078v5.7869c0,5.577,0.0307,5.8157,0.84493,6.5807,1.5038,1.4127,3.926,0.73788,4.4203-1.2315,0.28019-1.1164,0.8086-1.0289,1.7991,0.29782,1.3187,1.7663,0.55216,7.9336-0.98606,7.9336-0.29159,0-0.86942-0.57497-1.284-1.2777-0.65555-1.1111-0.93857-1.2777-2.1699-1.2777-2.4537,0-2.6244,0.47077-2.6244,7.2388v5.9036h-5.1349c-6.5624,0-8.0906-0.65804-5.0869-2.1904,1.2928-0.65954,1.4603-0.89478,1.4603-2.0514,0-4.1017-8.6038-5.5676-11.82-2.0138-1.2627,1.3953-0.71244,3.395,1.1267,4.0942,1.0212,0.38827,1.0858,1.2721,0.13026,1.7835-0.38837,0.20785-2.9347,0.37791-5.6585,0.37791h-4.9524v-5.6093z" stroke="#ffffff" stroke-width="0.36506596" fill="#000000"/>
    <path id="path4135" d="m490.36,310.64c-0.13091-2.1395-0.23801-4.7393-0.23801-5.7774,0-1.5009-0.17304-2.05-0.84493-2.6812-1.5038-1.4127-3.926-0.73789-4.4203,1.2315-0.28018,1.1164-0.8086,1.0289-1.7991-0.29783-1.3187-1.7662-0.55216-7.9336,0.98606-7.9336,0.2916,0,0.86941,0.57497,1.284,1.2777,0.65555,1.1111,0.93857,1.2777,2.1699,1.2777,2.5378,0,2.7888-0.63003,2.9233-7.3385l0.11639-5.8038,5.1771,0.006c6.5283,0.007,7.3802,0.42414,4.6295,2.2667-3.3784,2.263-0.27422,5.7331,5.1448,5.7512,3.2738,0.0109,5.4785-1.1072,5.9612-3.0234,0.27587-1.095,0.21633-1.4686-0.33038-2.0727-0.3668-0.40531-0.86775-0.73692-1.1132-0.73692-0.24547,0-0.65082-0.24642-0.90078-0.5476-0.36258-0.43688-0.36258-0.65832,0-1.0952,0.36541-0.44029,1.483-0.5476,5.7032-0.5476h5.2488v5.6093c0,5.122,0.0657,5.6929,0.75663,6.5712,1.3439,1.7085,3.9449,1.1846,4.7011-0.947l0.42366-1.1942,0.8762,1.0054c1.6099,1.8472,1.6388,5.9541,0.0549,7.7955l-0.8071,0.9383-0.90523-1.4015c-0.92181-1.4271-1.881-1.8297-3.4319-1.4405-1.37,0.34385-1.6682,1.692-1.6682,7.54v5.4588l-5.2022-0.006c-6.5545-0.007-7.4077-0.42254-4.6546-2.2667,3.3784-2.263,0.27422-5.7331-5.1448-5.7512-3.2738-0.0109-5.4785,1.1072-5.9612,3.0234-0.27587,1.095-0.21634,1.4686,0.33038,2.0727,0.3668,0.4053,0.86775,0.73691,1.1132,0.73691,0.24548,0,0.65083,0.24643,0.90079,0.54761,0.36258,0.43688,0.36258,0.65831,0,1.0952-0.365,0.43979-1.4769,0.54759-5.6478,0.54759h-5.1933l-0.23802-3.89z" stroke="#ffffff" stroke-width="0.36506596" fill="#000000"/>
    <text id="text5828" style="letter-spacing:0px;word-spacing:0px;" font-weight="normal" xml:space="preserve" font-size="57.39729309px" font-style="normal" y="243.46251" x="306.91446" font-family="Sans" line-height="125%" fill="#000000"><tspan id="tspan5830" font-weight="normal" font-style="normal" font-stretch="normal" font-variant="normal" y="243.46251" x="306.91446" font-family="Serif">WANTED</tspan></text>
   </g>
   <path id="path4137" d="m344.48,321.92c-1.6642-0.84576-1.7658-1.3854-0.39441-2.0946,2.1317-1.1023,2.2179-3.942,0.14829-4.885-0.54381-0.24778-3.0844-0.41243-6.364-0.41243h-5.4588v-5.2237c0-3.8866,0.13006-5.4015,0.5081-5.9185,0.41695-0.57022,0.60698-0.61279,1.0594-0.23733,0.30322,0.25164,0.65205,0.85898,0.77521,1.3496,0.26361,1.0503,1.6818,1.5303,3.0933,1.047,2.4942-0.85413,3.6415-7.1289,1.8773-10.267-1.5006-2.669-4.2115-2.9213-5.0655-0.47156-0.38551,1.1059-1.4163,1.502-1.6827,0.64658-0.0782-0.25098-0.22181-2.7973-0.31923-5.6585l-0.17713-5.2022h5.6522,5.6522l1.1031-1.1031c0.6811-0.68109,1.0195-1.321,0.88458-1.6726-0.1202-0.31324-0.21854-0.80805-0.21854-1.0996,0-0.29152-0.57498-0.8693-1.2777-1.2839-0.70276-0.41463-1.2777-0.90435-1.2777-1.0882,0-0.73318,2.4103-1.7812,4.0996-1.7825,1.9021-0.001,4.5026,0.88193,4.7884,1.6267,0.10411,0.27127-0.39432,0.84845-1.1583,1.3413-1.0814,0.69767-1.3625,1.1219-1.4518,2.1916-0.09,1.0777,0.0732,1.4712,0.87063,2.0985,0.90246,0.70987,1.4328,0.772,6.5907,0.772h5.6093v5.0811c0,2.7946-0.0997,5.3409-0.22159,5.6585-0.36965,0.9633-1.4791,0.66456-1.9746-0.53169-0.25268-0.61003-0.73889-1.2587-1.0805-1.4415-0.68589-0.36708-2.0983-0.12127-2.8975,0.50427-1.0168,0.7958-1.912,3.5083-1.9183,5.8118-0.0106,3.9166,1.344,6.0914,3.794,6.0914,1.2724,0,1.4692-0.129,1.9491-1.2777,0.62122-1.4868,1.7765-1.7355,2.1193-0.45633,0.12108,0.45177,0.22238,2.9981,0.22512,5.6585l0.005,4.8371-5.3847,0.005c-5.8644,0.006-6.9721,0.28059-7.5302,1.8677-0.54139,1.5394,0.003,2.8537,1.4284,3.4493,1.5725,0.65702,1.5885,1.0621,0.0783,1.9829-1.5252,0.92994-4.7146,0.97276-6.4582,0.0867v0.00002z" stroke="#ffffff" stroke-width="0.36506596" fill="#000000"/>
  </g>
 </g>
</svg>
