<?xml version="1.0" encoding="UTF-8" standalone="no"?>
<!-- Created with Inkscape (http://www.inkscape.org/) -->

<svg
   xmlns:dc="http://purl.org/dc/elements/1.1/"
   xmlns:cc="http://creativecommons.org/ns#"
   xmlns:rdf="http://www.w3.org/1999/02/22-rdf-syntax-ns#"
   xmlns:svg="http://www.w3.org/2000/svg"
   xmlns="http://www.w3.org/2000/svg"
   xmlns:sodipodi="http://sodipodi.sourceforge.net/DTD/sodipodi-0.dtd"
   xmlns:inkscape="http://www.inkscape.org/namespaces/inkscape"
   width="205"
   height="115"
   id="svg2"
   version="1.1"
   inkscape:version="0.48.3.1 r9886"
   sodipodi:docname="black-pieces.svg">
  <defs
     id="defs4" />
  <sodipodi:namedview
     id="base"
     pagecolor="#ffffff"
     bordercolor="#666666"
     borderopacity="1.0"
     inkscape:pageopacity="0.0"
     inkscape:pageshadow="2"
     inkscape:zoom="1.4142136"
     inkscape:cx="142.29009"
     inkscape:cy="50.70464"
     inkscape:document-units="px"
     inkscape:current-layer="layer1"
     showgrid="false"
     fit-margin-top="0"
     fit-margin-left="0"
     fit-margin-right="0"
     fit-margin-bottom="0"
     inkscape:window-width="1280"
     inkscape:window-height="748"
     inkscape:window-x="0"
     inkscape:window-y="31"
     inkscape:window-maximized="1" />
  <metadata
     id="metadata7">
    <rdf:RDF>
      <cc:Work
         rdf:about="">
        <dc:format>image/svg+xml</dc:format>
        <dc:type
           rdf:resource="http://purl.org/dc/dcmitype/StillImage" />
        <dc:title></dc:title>
      </cc:Work>
    </rdf:RDF>
  </metadata>
  <g
     inkscape:label="Layer 1"
     inkscape:groupmode="layer"
     id="layer1"
     transform="translate(176.18354,-221.52712)">
    <path
       style="fill:#335395;fill-opacity:1;stroke:#7175b6;stroke-width:3;stroke-miterlimit:4;stroke-opacity:1;stroke-dasharray:none"
       d="m -125.80951,137.68354 47.986261,0 c 0,0 -15.593355,17.56847 5.75809,17.56847 21.35146,0 6.68357,-17.69552 6.68357,-17.69552 l 41.3963,0 0,19.12143 c 0,0 16.62117,-14.51749 16.62117,8.3873 0,22.90478 -16.66585,6.52068 -16.66585,6.52068 l 0,23.42005 -40.62149,0 c 0,0 14.38761,-18.58017 -7.66106,-18.58017 -22.048675,0 -5.83839,18.62733 -5.83839,18.62733 l -47.867841,0 0,-23.89343 c 0,0 -18.49535,14.79203 -18.49535,-6.73085 0,-21.52289 18.71582,-7.19169 18.71582,-7.19169 z"
       id="path2985-3-9"
       inkscape:connector-curvature="0"
       sodipodi:nodetypes="cczccczccczccczcc" />
    <path
       style="fill:#335395;fill-opacity:1;stroke:#7175b6;stroke-width:3;stroke-miterlimit:4;stroke-opacity:1;stroke-dasharray:none"
       d="m -23.967569,194.95883 0,21.22543 c 0,0 -17.06846,-15.59336 -17.06846,5.75809 0,21.35146 17.19551,6.68357 17.19551,6.68357 l 0,23.62335 -40.62143,0 c 0,0 14.51749,16.62117 -8.3873,16.62117 -22.904777,0 -6.52068,-16.66585 -6.52068,-16.66585 l -46.607541,0 0,-22.84854 c 0,0 16.08017,14.38761 16.08017,-7.66106 0,-22.04868 -16.12733,-5.83839 -16.12733,-5.83839 l 0,-21.10701 47.080921,0 c 0,0 -14.792027,-18.49535 6.73085,-18.49535 21.52289,0 7.19169,18.71582 7.19169,18.71582 z"
       id="path2985-3-9-9"
       inkscape:connector-curvature="0"
       sodipodi:nodetypes="cczccczccczccczcc" />
    <path
       style="fill:#335395;fill-opacity:1;stroke:#7175b6;stroke-width:3;stroke-miterlimit:4;stroke-opacity:1;stroke-dasharray:none"
       d="m -227.84897,194.87493 47.98627,0 c 0,0 -15.59337,17.56847 5.75809,17.56847 21.35145,0 6.68356,-17.69552 6.68356,-17.69552 l 41.3963,0 0,19.12144 c 0,0 16.62117,-14.5175 16.62117,8.3873 0,22.90478 -16.66585,6.52068 -16.66585,6.52068 l 0,23.42004 -40.62149,0 c 0,0 14.38761,-18.58017 -7.66105,-18.58017 -22.04869,0 -5.83839,18.62733 -5.83839,18.62733 l -47.86785,0 0,-23.89342 c 0,0 -18.49535,14.79203 -18.49535,-6.73085 0,-21.5229 18.71582,-7.19169 18.71582,-7.19169 z"
       id="path2985-3-9-4"
       inkscape:connector-curvature="0"
       sodipodi:nodetypes="cczccczccczccczcc" />
    <path
       style="fill:#335395;fill-opacity:1;stroke:#7175b6;stroke-width:3;stroke-miterlimit:4;stroke-opacity:1;stroke-dasharray:none"
       d="m -125.8126,137.67924 0,21.22543 c 0,0 -17.06845,-15.59336 -17.06845,5.75809 0,21.35146 17.1955,6.68357 17.1955,6.68357 l 0,23.62335 -40.62143,0 c 0,0 14.5175,16.62117 -8.38729,16.62117 -22.90478,0 -6.52069,-16.66585 -6.52069,-16.66585 l -46.60753,0 0,-22.84854 c 0,0 16.08017,14.38761 16.08017,-7.66106 0,-22.04868 -16.12733,-5.83839 -16.12733,-5.83839 l 0,-21.10702 47.08093,0 c 0,0 -14.79205,-18.49534 6.73085,-18.49534 21.52288,0 7.19168,18.71581 7.19168,18.71581 z"
       id="path2985-3-9-9-9"
       inkscape:connector-curvature="0"
       sodipodi:nodetypes="cczccczccczccczcc" />
    <path
       style="fill:#335395;fill-opacity:1;stroke:#7175b6;stroke-width:3;stroke-miterlimit:4;stroke-opacity:1;stroke-dasharray:none"
       d="m -125.93949,251.84024 47.986261,0 c 0,0 -15.593356,17.56847 5.75809,17.56847 21.35146,0 6.68357,-17.69552 6.68357,-17.69552 l 41.3963,0 0,19.12143 c 0,0 16.62117,-14.51749 16.62117,8.3873 0,22.90478 -16.66585,6.52068 -16.66585,6.52068 l 0,23.42004 -40.62149,0 c 0,0 14.38761,-18.58016 -7.66106,-18.58016 -22.048676,0 -5.83839,18.62732 -5.83839,18.62732 l -47.867851,0 0,-23.89342 c 0,0 -18.49535,14.79203 -18.49535,-6.73085 0,-21.52289 18.71582,-7.19169 18.71582,-7.19169 z"
       id="path2985-3-9-2"
       inkscape:connector-curvature="0"
       sodipodi:nodetypes="cczccczccczccczcc" />
    <path
       style="fill:#335395;fill-opacity:1;stroke:#7175b6;stroke-width:3;stroke-miterlimit:4;stroke-opacity:1;stroke-dasharray:none"
       d="m -24.097549,309.11553 0,21.22542 c 0,0 -17.06846,-15.59336 -17.06846,5.75809 0,21.35146 17.19551,6.68357 17.19551,6.68357 l 0,23.62335 -40.62143,0 c 0,0 14.51749,16.62117 -8.3873,16.62117 -22.904776,0 -6.52068,-16.66585 -6.52068,-16.66585 l -46.607541,0 0,-22.84854 c 0,0 16.08017,14.38761 16.08017,-7.66106 0,-22.04867 -16.12733,-5.83839 -16.12733,-5.83839 l 0,-21.107 47.080921,0 c 0,0 -14.792026,-18.49535 6.73085,-18.49535 21.52289,0 7.19169,18.71582 7.19169,18.71582 z"
       id="path2985-3-9-9-2"
       inkscape:connector-curvature="0"
       sodipodi:nodetypes="cczccczccczccczcc" />
    <path
       style="fill:#335395;fill-opacity:1;stroke:#7175b6;stroke-width:3;stroke-miterlimit:4;stroke-opacity:1;stroke-dasharray:none"
       d="m -227.97895,309.03163 47.98627,0 c 0,0 -15.59337,17.56846 5.75809,17.56846 21.35145,0 6.68356,-17.69551 6.68356,-17.69551 l 41.3963,0 0,19.12143 c 0,0 16.62117,-14.51749 16.62117,8.3873 0,22.90478 -16.66585,6.52068 -16.66585,6.52068 l 0,23.42004 -40.62149,0 c 0,0 14.38761,-18.58017 -7.66105,-18.58017 -22.04869,0 -5.83839,18.62733 -5.83839,18.62733 l -47.86785,0 0,-23.89342 c 0,0 -18.49535,14.79203 -18.49535,-6.73085 0,-21.52289 18.71582,-7.19169 18.71582,-7.19169 z"
       id="path2985-3-9-4-8"
       inkscape:connector-curvature="0"
       sodipodi:nodetypes="cczccczccczccczcc" />
    <path
       style="fill:#335395;fill-opacity:1;stroke:#7175b6;stroke-width:3;stroke-miterlimit:4;stroke-opacity:1;stroke-dasharray:none"
       d="m -125.94258,251.83593 0,21.22544 c 0,0 -17.06846,-15.59337 -17.06846,5.75809 0,21.35146 17.19551,6.68357 17.19551,6.68357 l 0,23.62334 -40.62142,0 c 0,0 14.51749,16.62117 -8.3873,16.62117 -22.90478,0 -6.52069,-16.66585 -6.52069,-16.66585 l -46.60753,0 0,-22.84853 c 0,0 16.08017,14.38761 16.08017,-7.66106 0,-22.04868 -16.12733,-5.83839 -16.12733,-5.83839 l 0,-21.10702 47.08091,0 c 0,0 -14.79203,-18.49534 6.73086,-18.49534 21.52289,0 7.19169,18.71581 7.19169,18.71581 z"
       id="path2985-3-9-9-9-5"
       inkscape:connector-curvature="0"
       sodipodi:nodetypes="cczccczccczccczcc" />
    <path
       style="fill:#335395;fill-opacity:1;stroke:#7175b6;stroke-width:3;stroke-miterlimit:4;stroke-opacity:1;stroke-dasharray:none"
       d="m 77.50049,137.57439 47.98627,0 c 0,0 -15.59336,17.56846 5.75809,17.56846 21.35146,0 6.68357,-17.69551 6.68357,-17.69551 l 41.3963,0 0,19.12143 c 0,0 16.62117,-14.51749 16.62117,8.3873 0,22.90478 -16.66585,6.52068 -16.66585,6.52068 l 0,23.42004 -40.62149,0 c 0,0 14.38761,-18.58016 -7.66106,-18.58016 -22.04868,0 -5.83839,18.62732 -5.83839,18.62732 l -47.86785,0 0,-23.89342 c 0,0 -18.49535,14.79203 -18.49535,-6.73085 0,-21.52289 18.71582,-7.19169 18.71582,-7.19169 z"
       id="path2985-3-9-49"
       inkscape:connector-curvature="0"
       sodipodi:nodetypes="cczccczccczccczcc" />
    <path
       style="fill:#335395;fill-opacity:1;stroke:#7175b6;stroke-width:3;stroke-miterlimit:4;stroke-opacity:1;stroke-dasharray:none"
       d="m 179.34244,194.84968 0,21.22543 c 0,0 -17.06846,-15.59337 -17.06846,5.75809 0,21.35146 17.19551,6.68357 17.19551,6.68357 l 0,23.62335 -40.62143,0 c 0,0 14.51749,16.62117 -8.3873,16.62117 -22.90478,0 -6.52068,-16.66585 -6.52068,-16.66585 l -46.60754,0 0,-22.84854 c 0,0 16.08017,14.38761 16.08017,-7.66106 0,-22.04868 -16.12733,-5.83839 -16.12733,-5.83839 l 0,-21.10701 47.08092,0 c 0,0 -14.79203,-18.49535 6.73085,-18.49535 21.52289,0 7.19169,18.71582 7.19169,18.71582 z"
       id="path2985-3-9-9-0"
       inkscape:connector-curvature="0"
       sodipodi:nodetypes="cczccczccczccczcc" />
    <path
       style="fill:#335395;fill-opacity:1;stroke:#7175b6;stroke-width:3;stroke-miterlimit:4;stroke-opacity:1;stroke-dasharray:none"
       d="m -24.538969,194.76578 47.98627,0 c 0,0 -15.59336,17.56846 5.758089,17.56846 21.35146,0 6.68357,-17.69551 6.68357,-17.69551 l 41.3963,0 0,19.12143 c 0,0 16.62117,-14.51749 16.62117,8.38731 0,22.90478 -16.66585,6.52068 -16.66585,6.52068 l 0,23.42004 -40.62149,0 c 0,0 14.38761,-18.58017 -7.66106,-18.58017 -22.048679,0 -5.838389,18.62733 -5.838389,18.62733 l -47.86785,0 0,-23.89342 c 0,0 -18.49535,14.79203 -18.49535,-6.73085 0,-21.5229 18.71582,-7.19169 18.71582,-7.19169 z"
       id="path2985-3-9-4-9"
       inkscape:connector-curvature="0"
       sodipodi:nodetypes="cczccczccczccczcc" />
    <path
       style="fill:#335395;fill-opacity:1;stroke:#7175b6;stroke-width:3;stroke-miterlimit:4;stroke-opacity:1;stroke-dasharray:none"
       d="m 77.4974,137.57008 0,21.22543 c 0,0 -17.06845,-15.59336 -17.06845,5.7581 0,21.35146 17.1955,6.68357 17.1955,6.68357 l 0,23.62334 -40.62142,0 c 0,0 14.51749,16.62117 -8.3873,16.62117 -22.904779,0 -6.520679,-16.66585 -6.520679,-16.66585 l -46.60754,0 0,-22.84853 c 0,0 16.08017,14.38761 16.08017,-7.66106 0,-22.04868 -16.12733,-5.8384 -16.12733,-5.8384 l 0,-21.10701 47.08092,0 c 0,0 -14.79203,-18.49535 6.730849,-18.49535 21.52289,0 7.19169,18.71582 7.19169,18.71582 z"
       id="path2985-3-9-9-9-1"
       inkscape:connector-curvature="0"
       sodipodi:nodetypes="cczccczccczccczcc" />
    <path
       style="fill:#335395;fill-opacity:1;stroke:#7175b6;stroke-width:3;stroke-miterlimit:4;stroke-opacity:1;stroke-dasharray:none"
       d="m 77.37051,251.73109 47.98627,0 c 0,0 -15.59336,17.56847 5.75809,17.56847 21.35146,0 6.68357,-17.69552 6.68357,-17.69552 l 41.3963,0 0,19.12143 c 0,0 16.62117,-14.51749 16.62117,8.3873 0,22.90478 -16.66585,6.52068 -16.66585,6.52068 l 0,23.42004 -40.62149,0 c 0,0 14.38761,-18.58016 -7.66106,-18.58016 -22.04868,0 -5.83839,18.62732 -5.83839,18.62732 l -47.86785,0 0,-23.89342 c 0,0 -18.49535,14.79203 -18.49535,-6.73085 0,-21.52289 18.71582,-7.19169 18.71582,-7.19169 z"
       id="path2985-3-9-2-1"
       inkscape:connector-curvature="0"
       sodipodi:nodetypes="cczccczccczccczcc" />
    <path
       style="fill:#335395;fill-opacity:1;stroke:#7175b6;stroke-width:3;stroke-miterlimit:4;stroke-opacity:1;stroke-dasharray:none"
       d="m 179.21246,309.00638 0,21.22542 c 0,0 -17.06846,-15.59336 -17.06846,5.75809 0,21.35146 17.19551,6.68357 17.19551,6.68357 l 0,23.62335 -40.62143,0 c 0,0 14.51749,16.62117 -8.3873,16.62117 -22.90478,0 -6.52068,-16.66585 -6.52068,-16.66585 l -46.60754,0 0,-22.84854 c 0,0 16.08017,14.38761 16.08017,-7.66106 0,-22.04867 -16.12733,-5.83839 -16.12733,-5.83839 l 0,-21.107 47.08092,0 c 0,0 -14.79203,-18.49535 6.73085,-18.49535 21.52289,0 7.19169,18.71582 7.19169,18.71582 z"
       id="path2985-3-9-9-2-9"
       inkscape:connector-curvature="0"
       sodipodi:nodetypes="cczccczccczccczcc" />
    <path
       style="fill:#335395;fill-opacity:1;stroke:#7175b6;stroke-width:3;stroke-miterlimit:4;stroke-opacity:1;stroke-dasharray:none"
       d="m -24.668949,308.92248 47.98627,0 c 0,0 -15.59336,17.56846 5.758089,17.56846 21.35146,0 6.68357,-17.69551 6.68357,-17.69551 l 41.3963,0 0,19.12143 c 0,0 16.62117,-14.51749 16.62117,8.3873 0,22.90478 -16.66585,6.52068 -16.66585,6.52068 l 0,23.42004 -40.62149,0 c 0,0 14.38761,-18.58017 -7.66106,-18.58017 -22.048679,0 -5.838389,18.62733 -5.838389,18.62733 l -47.86785,0 0,-23.89342 c 0,0 -18.49535,14.79203 -18.49535,-6.73085 0,-21.52289 18.71582,-7.19169 18.71582,-7.19169 z"
       id="path2985-3-9-4-8-7"
       inkscape:connector-curvature="0"
       sodipodi:nodetypes="cczccczccczccczcc" />
    <path
       style="fill:#335395;fill-opacity:1;stroke:#7175b6;stroke-width:3;stroke-miterlimit:4;stroke-opacity:1;stroke-dasharray:none"
       d="m 77.36742,251.72678 0,21.22544 c 0,0 -17.06845,-15.59337 -17.06845,5.75809 0,21.35146 17.1955,6.68357 17.1955,6.68357 l 0,23.62334 -40.62142,0 c 0,0 14.51749,16.62117 -8.3873,16.62117 -22.904779,0 -6.520679,-16.66585 -6.520679,-16.66585 l -46.60754,0 0,-22.84853 c 0,0 16.08017,14.38761 16.08017,-7.66106 0,-22.04868 -16.12733,-5.83839 -16.12733,-5.83839 l 0,-21.10702 47.08092,0 c 0,0 -14.79203,-18.49534 6.730849,-18.49534 21.52289,0 7.19169,18.71581 7.19169,18.71581 z"
       id="path2985-3-9-9-9-5-6"
       inkscape:connector-curvature="0"
       sodipodi:nodetypes="cczccczccczccczcc" />
  </g>
</svg>
