<?xml version="1.0" encoding="UTF-8" standalone="no"?>
<!-- Created with Inkscape (http://www.inkscape.org/) -->

<svg
   xmlns:dc="http://purl.org/dc/elements/1.1/"
   xmlns:cc="http://creativecommons.org/ns#"
   xmlns:rdf="http://www.w3.org/1999/02/22-rdf-syntax-ns#"
   xmlns:svg="http://www.w3.org/2000/svg"
   xmlns="http://www.w3.org/2000/svg"
   xmlns:sodipodi="http://sodipodi.sourceforge.net/DTD/sodipodi-0.dtd"
   xmlns:inkscape="http://www.inkscape.org/namespaces/inkscape"
   width="307.57211"
   height="106.57109"
   id="svg2"
   version="1.1"
   inkscape:version="0.48.3.1 r9886"
   sodipodi:docname="blue-piece.svg">
  <defs
     id="defs4" />
  <sodipodi:namedview
     id="base"
     pagecolor="#ffffff"
     bordercolor="#666666"
     borderopacity="1.0"
     inkscape:pageopacity="0.0"
     inkscape:pageshadow="2"
     inkscape:zoom="1.979899"
     inkscape:cx="48.60612"
     inkscape:cy="73.063688"
     inkscape:document-units="px"
     inkscape:current-layer="layer1"
     showgrid="false"
     fit-margin-top="0"
     fit-margin-left="0"
     fit-margin-right="0"
     fit-margin-bottom="0"
     inkscape:window-width="1280"
     inkscape:window-height="748"
     inkscape:window-x="0"
     inkscape:window-y="31"
     inkscape:window-maximized="1" />
  <metadata
     id="metadata7">
    <rdf:RDF>
      <cc:Work
         rdf:about="">
        <dc:format>image/svg+xml</dc:format>
        <dc:type
           rdf:resource="http://purl.org/dc/dcmitype/StillImage" />
        <dc:title />
      </cc:Work>
    </rdf:RDF>
  </metadata>
  <g
     inkscape:label="Layer 1"
     inkscape:groupmode="layer"
     id="layer1"
     transform="translate(-20.667518,-55.341619)">
    <path
       style="fill:#335395;fill-opacity:1;stroke:none"
       d="m 21.080498,76.554823 135.662172,0 c 0,0 -30.77658,-21.213204 11.36474,-21.213204 42.14132,0 13.19135,20.962444 13.19135,20.962444 l 128.21139,0 0,17.928429 c 0,0 18.72947,-23.233509 18.72947,8.586298 0,31.8198 -18.81765,11.97322 -18.81765,11.97322 l 0,19.84658 -124.68217,0 c 0,0 22.31559,27.27412 -13.12062,27.27412 -35.43622,0 -13.52321,-27.18103 -13.52321,-27.18103 l -137.428452,0 0,-18.78091 c 0,0 20.72267,17.69095 20.72267,-9.33727 0,-27.02822 -20.28754,-10.246817 -20.28754,-10.246817 z"
       id="path2985"
       inkscape:connector-curvature="0"
       sodipodi:nodetypes="cczccczccczcccscc" />
  </g>
</svg>
