<?xml version="1.0" encoding="UTF-8" standalone="no"?>
<!-- Created with Inkscape (http://www.inkscape.org/) -->

<svg
   xmlns:dc="http://purl.org/dc/elements/1.1/"
   xmlns:cc="http://creativecommons.org/ns#"
   xmlns:rdf="http://www.w3.org/1999/02/22-rdf-syntax-ns#"
   xmlns:svg="http://www.w3.org/2000/svg"
   xmlns="http://www.w3.org/2000/svg"
   xmlns:sodipodi="http://sodipodi.sourceforge.net/DTD/sodipodi-0.dtd"
   xmlns:inkscape="http://www.inkscape.org/namespaces/inkscape"
   width="241.90306"
   height="193.46407"
   id="svg2"
   version="1.1"
   inkscape:version="0.48.3.1 r9886"
   sodipodi:docname="logo.svg">
  <defs
     id="defs4" />
  <sodipodi:namedview
     id="base"
     pagecolor="#ffffff"
     bordercolor="#666666"
     borderopacity="1.0"
     inkscape:pageopacity="0.0"
     inkscape:pageshadow="2"
     inkscape:zoom="1.4142136"
     inkscape:cx="-27.33348"
     inkscape:cy="54.996279"
     inkscape:document-units="px"
     inkscape:current-layer="layer1"
     showgrid="false"
     fit-margin-top="0"
     fit-margin-left="0"
     fit-margin-right="0"
     fit-margin-bottom="0"
     inkscape:window-width="1280"
     inkscape:window-height="748"
     inkscape:window-x="0"
     inkscape:window-y="31"
     inkscape:window-maximized="1" />
  <metadata
     id="metadata7">
    <rdf:RDF>
      <cc:Work
         rdf:about="">
        <dc:format>image/svg+xml</dc:format>
        <dc:type
           rdf:resource="http://purl.org/dc/dcmitype/StillImage" />
        <dc:title />
      </cc:Work>
    </rdf:RDF>
  </metadata>
  <g
     inkscape:label="Layer 1"
     inkscape:groupmode="layer"
     id="layer1"
     transform="translate(192.62646,-162.9424)">
    <path
       style="fill:#151515;fill-opacity:1;stroke:#335395;stroke-width:3;stroke-miterlimit:4;stroke-opacity:0.94117647000000004;stroke-dasharray:none;"
       d="m 31.459541,259.78166 0,29.0036 c 0,0 -17.06846,-15.59337 -17.06846,5.75809 0,21.35146 17.19551,6.68357 17.19551,6.68357 l 0,36.35127 -40.6214305,0 c 0,0 14.51749,16.62117 -8.3872995,16.62117 -22.90478,0 -6.52068,-16.66585 -6.52068,-16.66585 l -46.60754,0 0,-35.57646 c 0,0 16.08017,14.38761 16.08017,-7.66106 0,-22.04868 -16.12733,-5.83839 -16.12733,-5.83839 l 0,-28.88518 47.08092,0 c 0,0 -14.79203,-18.49535 6.73085,-18.49535 21.5228895,0 7.1916895,18.71582 7.1916895,18.71582 z"
       id="path2985-3-9-9-0"
       inkscape:connector-curvature="0"
       sodipodi:nodetypes="cczccczccczccczcc" />
    <path
       style="fill:#151515;fill-opacity:1;stroke:#335395;stroke-width:3;stroke-miterlimit:4;stroke-opacity:0.94117647000000004;stroke-dasharray:none;"
       d="m -172.42187,260.40487 47.98627,0 c 0,0 -15.59336,17.56846 5.75809,17.56846 21.351461,0 6.68357,-17.69551 6.68357,-17.69551 l 41.396301,0 0,26.8996 c 0,0 16.62117,-14.51749 16.62117,8.38731 0,22.90478 -16.66585,6.52068 -16.66585,6.52068 l 0,36.14796 -40.621491,0 c 0,0 14.387611,-18.58017 -7.66106,-18.58017 -22.04868,0 -5.83839,18.62733 -5.83839,18.62733 l -47.86785,0 0,-36.62134 c 0,0 -18.49535,14.79203 -18.49535,-6.73085 0,-21.5229 18.71582,-7.19169 18.71582,-7.19169 z"
       id="path2985-3-9-4-9"
       inkscape:connector-curvature="0"
       sodipodi:nodetypes="cczccczccczccczcc" />
    <path
       style="fill:#151515;fill-opacity:1;stroke:#335395;stroke-width:3;stroke-miterlimit:4;stroke-opacity:0.94117647000000004;stroke-dasharray:none;"
       d="m -70.555463,183.14699 0,29.0036 c 0,0 -17.06846,-15.59337 -17.06846,5.75809 0,21.35146 17.19551,6.68357 17.19551,6.68357 l 0,36.35127 -40.621427,0 c 0,0 14.517487,16.62117 -8.3873,16.62117 -22.90478,0 -6.52068,-16.66585 -6.52068,-16.66585 l -46.60754,0 0,-35.57646 c 0,0 16.08017,14.38761 16.08017,-7.66106 0,-22.04868 -16.12733,-5.83839 -16.12733,-5.83839 l 0,-28.88518 47.08092,0 c 0,0 -14.79203,-18.49535 6.73085,-18.49535 21.522887,0 7.19169,18.71582 7.19169,18.71582 z"
       id="path2985-3-9-9-0-8"
       inkscape:connector-curvature="0"
       sodipodi:nodetypes="cczccczccczccczcc" />
    <path
       style="fill:#151515;fill-opacity:1;stroke:#335395;stroke-width:3;stroke-miterlimit:4;stroke-opacity:0.94117647000000004;stroke-dasharray:none;"
       d="m -70.668797,182.9747 47.98627,0 c 0,0 -15.59336,17.56846 5.75809,17.56846 21.3514594,0 6.68357,-17.69551 6.68357,-17.69551 l 41.3963,0 0,26.8996 c 0,0 16.62117,-14.51749 16.62117,8.38731 0,22.90478 -16.66585,6.52068 -16.66585,6.52068 l 0,36.14796 -40.6214906,0 c 0,0 14.38761,-18.58017 -7.6610594,-18.58017 -22.04868,0 -5.83839,18.62733 -5.83839,18.62733 l -47.86785,0 0,-36.62134 c 0,0 -18.49535,14.79203 -18.49535,-6.73085 0,-21.5229 18.71582,-7.19169 18.71582,-7.19169 z"
       id="path2985-3-9-4-9-3"
       inkscape:connector-curvature="0"
       sodipodi:nodetypes="cczccczccczccczcc" />
    <text
       xml:space="preserve"
       style="font-size:40px;font-style:normal;font-weight:normal;line-height:125%;letter-spacing:0px;word-spacing:0px;fill:#ffffff;fill-opacity:1;stroke:none;font-family:Sans"
       x="-122.40106"
       y="270.82574"
       id="text5119"
       sodipodi:linespacing="125%"><tspan
         sodipodi:role="line"
         id="tspan5121"
         x="-122.40106"
         y="270.82574">LOGO</tspan></text>
  </g>
</svg>
